<?xml version="1.0" standalone="no"?>
<!DOCTYPE svg PUBLIC "-//W3C//DTD SVG 1.1//EN" "http://www.w3.org/Graphics/SVG/1.1/DTD/svg11.dtd" >
<svg xmlns="http://www.w3.org/2000/svg">
<metadata>
This is a custom SVG webfont generated by Font Squirrel.
Copyright   : Created by Paul Ijsendoorn  Drawperfectcom with FontForge 20 httpfontforgesfnet
Designer    : Paul IJsendoorn
Foundry     : Paul IJsendoorn  Drawperfectcom
Foundry URL : httpwwwdrawperfectcom
</metadata>
<defs>
<font id="webfontkL6Xzbjt" horiz-adv-x="505" >
<font-face units-per-em="2048" ascent="1536" descent="-512" />
<missing-glyph horiz-adv-x="604" />
<glyph unicode="&#xfb00;" horiz-adv-x="1015" d="M1022 1192q6 -12 6 -23q0 -31 -35 -30q-33 0 -55 35q-53 80 -109 79q-57 0 -96 -89t-39 -232q0 -43 2 -66h31q231 0 231 -69q0 -18 -15 -35t-36 -17q-2 0 -4 1.5t-4 1.5q-51 31 -121 30q-23 0 -76 -4q-4 -172 -4 -258q0 -262 25 -448v-11q0 -25 -12.5 -40t-30.5 -15 q-35 0 -47 57q-39 184 -55.5 250t-56.5 193t-97 256q-4 6 -8 10t-8.5 6t-10.5 3t-8 1h-12h-12q-23 0 -72 -4q-4 -172 -4 -258q0 -262 24 -448v-11q0 -25 -12 -40t-31 -15q-35 0 -47 57q-39 184 -55 250t-56 193t-98 256q-6 12 -6 20q0 53 187 80q0 6 7 122t19 179 q18 90 66.5 135t113.5 45q61 0 121 -39.5t90 -107.5q6 -12 6 -23q0 -31 -34 -30q-33 0 -56 35q-53 80 -108 79q-57 0 -96 -89t-39 -232q0 -43 2 -66h30q117 0 191 -26q23 4 58.5 11t37.5 7q0 6 7 122t20 179q18 90 66 135t114 45q61 0 120.5 -39.5t90.5 -107.5zM610 508 q0 25 1 85t1 89q0 57 -2 78q-16 0 -39.5 -5t-35.5 -7q32 -68 75 -240zM201 508q0 25 1 85t1 89q0 57 -2 78q-16 0 -40 -5t-36 -7q33 -68 76 -240z" />
<glyph unicode="&#xfb01;" horiz-adv-x="782" d="M-23 799q0 53 187 80q0 6 7 121.5t19 179.5q18 90 66.5 135t114.5 45q61 0 120.5 -40t90.5 -108q6 -12 6 -22q0 -31 -35 -31q-33 0 -55 35q-53 80 -109 80q-57 0 -96 -89t-39 -233q0 -43 2 -65h31q190 0 223 -47q8 16 26.5 28.5t33 12.5t21.5 -16.5t7 -26.5l-4 -11 q-2 -10 -8 -26.5t-13.5 -32.5t-20.5 -28.5t-27.5 -12.5t-23.5 12.5t-9 22.5q0 8 2 12q-16 -8 -25 -8q-6 0 -10 2q-51 31 -121 31q-23 0 -76 -4q-4 -172 -4 -258q0 -262 25 -449v-10q0 -25 -12.5 -40t-30.5 -15q-35 0 -47 57q-39 184 -55.5 249.5t-56.5 192.5t-97 256 q-7 13 -7 21zM94 768q33 -68 76 -240q0 25 1 85.5t1 88.5q0 57 -2 78q-16 0 -40 -5t-36 -7zM403 365q0 131 41 260q14 35 48 34q16 0 28 -10t12 -26q0 -10 -8 -27q-45 -84 -45 -211q0 -98 24.5 -189.5t49.5 -115.5q102 35 170 145q8 16 27 17q16 0 27 -12.5t11 -30.5 q0 -37 -80.5 -118t-162.5 -81q-55 0 -98.5 112t-43.5 253z" />
<glyph unicode="&#xfb02;" horiz-adv-x="909" d="M-20 788q0 53 186 80q4 23 7 95.5t11.5 129t25.5 121t59 100.5t103.5 36t121 -40t90.5 -108q6 -12 6 -22q0 -31 -35 -31q-33 0 -55 35q-53 80 -109 80q-57 0 -96 -89.5t-39 -232.5q0 -43 2 -65q154 0 227 -29q92 319 183 319q119 0 118 -180q0 -403 -182 -698 q23 -57 58.5 -113.5t60.5 -56.5q29 0 79 70.5t64.5 70.5t26.5 -15.5t12 -31.5q0 -12 -4 -18q-111 -186 -194 -187q-33 0 -85.5 68.5t-78.5 126.5q-43 -59 -126 -122t-173 -87q-4 -2 -11 -2q-31 0 -38 78q-39 184 -55.5 249.5t-56.5 192.5t-97 256q-6 12 -6 20zM96 758 q33 -68 76 -240q0 25 1 85.5t1 88.5q0 57 -2 78q-16 0 -40 -5t-36 -7zM260 520q0 -254 21 -416q70 25 134 78.5t97 106.5q-63 150 -63 311q0 84 14 156l-2 2q-51 31 -121 30q-23 0 -76 -4q-4 -176 -4 -264zM535 621q0 -47 6 -103q6 -61 28 -133q135 268 136 573 q0 31 -8.5 80t-22.5 49q-8 0 -21 -28q-68 -166 -93 -254t-25 -184z" />
<glyph unicode="&#xfb03;" horiz-adv-x="1230" d="M-49 778q0 53 186 80q0 6 7.5 122t19.5 179q18 90 66.5 135t113.5 45q61 0 120.5 -39.5t90.5 -107.5q6 -12 6 -23q0 -31 -35 -30q-33 0 -55 35q-53 80 -109 79q-57 0 -96 -89t-39 -232q0 -43 2 -66h31q125 0 199 -30q25 6 108 22q0 6 7.5 122t19.5 179q18 90 66.5 135 t113.5 45q61 0 120.5 -39.5t90.5 -107.5q6 -12 6 -23q0 -31 -35 -30q-33 0 -55 35q-53 80 -108 79q-57 0 -96.5 -89t-39.5 -232q0 -43 2 -66h31q231 0 232 -69q0 -18 -15.5 -35t-36.5 -17q-2 0 -4 1.5t-4 1.5q-51 31 -121 30q-23 0 -75 -4q-4 -172 -4 -258q0 -262 24 -448 v-11q0 -25 -12 -40t-31 -15q-35 0 -47 57q-39 184 -55.5 250t-56.5 193t-97 256l-6 10q-29 10 -72 10q-20 0 -73 -4q-4 -172 -5 -258q0 -262 25 -448v-11q0 -25 -12.5 -40t-30.5 -15q-35 0 -47 57q-39 184 -55.5 250t-56.5 193t-97 256q-6 12 -6 20zM68 748q33 -68 75 -240 q0 25 1 85t1 89q0 57 -2 78q-16 0 -39.5 -5t-35.5 -7zM498 748q33 -68 75 -240q0 25 1 85t1 89q0 57 -2 78q-16 0 -39.5 -5t-35.5 -7zM864 346q0 135 94 303q8 12 23 13q18 0 33.5 -13.5t15.5 -30.5q0 -6 -2 -10q-59 -123 -59 -250q0 -150 73 -264q41 16 56.5 37t27 53.5 t31.5 59.5q8 14 27 14q16 0 28.5 -12.5t12.5 -26.5t-8 -24q-14 -16 -38 -70.5t-58 -85.5t-93 -31q-55 0 -63 17q-101 182 -101 321zM1032 756l6 14l-2 -2q0 8 13 25l6 8l-2 -2q6 41 37 86q12 18 22 18q33 0 33 -29q0 -41 -31 -94t-57 -53q-25 0 -25 29z" />
<glyph unicode="&#xfb04;" horiz-adv-x="1417" d="M-29 778q0 53 187 80q0 6 7 122t19 179q18 90 66.5 135t114.5 45q61 0 120.5 -39.5t89.5 -107.5q6 -12 7 -23q0 -31 -35 -30q-33 0 -55 35q-53 80 -109 79q-57 0 -96 -89t-39 -232q0 -43 2 -66h31q123 0 196 -28q23 6 105 20q0 6 7 122t19 179q18 90 66.5 135t113.5 45 q61 0 121 -39.5t90 -107.5q6 -12 7 -23q0 -31 -35 -30q-33 0 -56 35q-53 80 -108 79q-57 0 -96 -89t-39 -232q0 -43 2 -66h31q231 0 231 -69q0 -18 -15.5 -35t-35.5 -17h-4l-4 3q-51 31 -121 30q-23 0 -76 -4q-4 -176 -4 -264q0 -248 22 -434q150 119 277 260 q-18 92 -19 180q0 297 220 602q12 18 32 19q2 0 6 -2h5q14 -8 49 -17.5t50 -27t15 -62.5q-31 -455 -270 -737q43 -172 92 -172q43 0 126 83t91 83q14 0 26.5 -10.5t12.5 -24.5q0 -10 -8 -19l-46 -57l-38 -49q-12 -16 -47 -48t-90 -77q-6 -6 -27 -6q-43 0 -55 16 q-59 106 -94 215q-131 -131 -297 -239q-10 -8 -21 -9q-16 0 -43 23t-35 59q-39 184 -55 250t-56 193t-98 256l-6 12q-31 8 -69 8q-20 0 -70 -4q-4 -172 -4 -258q0 -262 24 -448v-11q0 -25 -12 -40t-31 -15q-35 0 -47 57q-39 184 -55 250t-56 193t-98 256q-6 12 -6 20z M88 748q33 -68 76 -240q0 25 1 85t1 89q0 57 -2 78q-16 0 -40 -5t-36 -7zM512 748q33 -68 76 -240q0 25 1 85t1 89q0 57 -2 78q-16 0 -40 -5t-36 -7zM1040 510q0 -31 4 -92q111 145 160 277t49 298q0 72 -14 72q-10 0 -25 -27q-96 -168 -135 -285.5t-39 -242.5z" />
<glyph unicode="ffj" horiz-adv-x="1019" d="M594 1192q6 -12 6 -23q0 -31 -35 -30q-33 0 -55 35q-53 80 -109 79q-57 0 -96 -89t-39 -232q0 -43 2 -66h31q231 0 231 -69q0 -18 -15 -35t-36 -17h-4l-4 3q-51 31 -121 30q-23 0 -76 -4q-4 -172 -4 -258q0 -262 25 -448v-11q0 -25 -12.5 -40t-30.5 -15q-35 0 -47 57 q-39 184 -55.5 250t-56.5 193t-97 256q-6 12 -6 20q0 53 186 80q0 6 7 122t20 179q18 90 66 135t114 45q61 0 120.5 -39.5t90.5 -107.5zM182 508q0 25 1 85t1 89q0 57 -2 78q-16 0 -39.5 -5t-36.5 -7q33 -68 76 -240zM1010 1192q6 -12 6 -23q0 -31 -35 -30q-33 0 -55 35 q-53 80 -109 79q-57 0 -96 -89t-39 -232q0 -43 2 -66h31q231 0 231 -69q0 -18 -15.5 -35t-35.5 -17q-2 0 -4 1.5t-4 1.5q-51 31 -121 30q-23 0 -76 -4q-4 -172 -4 -258q0 -262 25 -448v-11q0 -25 -12.5 -40t-30.5 -15q-35 0 -47 57q-39 184 -55.5 250t-56.5 193t-97 256 q-6 12 -6 20q0 53 186 80q0 6 7 122t19 179q18 90 66.5 135t114.5 45q61 0 120.5 -39.5t90.5 -107.5zM598 508q0 25 1 85t1 89q0 57 -2 78q-16 0 -39.5 -5t-36.5 -7q33 -68 76 -240z" />
<glyph unicode="fj" horiz-adv-x="518" d="M582 1192q6 -12 6 -23q0 -31 -35 -30q-33 0 -55 35q-53 80 -109 79q-57 0 -96 -89t-39 -232q0 -43 2 -66h31q231 0 231 -69q0 -18 -15.5 -35t-35.5 -17h-4l-4 3q-51 31 -121 30q-23 0 -76 -4q-4 -172 -4 -258q0 -262 25 -448v-11q0 -25 -12.5 -40t-30.5 -15q-35 0 -47 57 q-39 184 -55.5 250t-56.5 193t-97 256q-6 12 -7 20q0 53 187 80q0 6 7 122t19 179q18 90 66.5 135t114.5 45q61 0 120.5 -39.5t90.5 -107.5zM170 508q0 25 1 85t1 89q0 57 -2 78q-16 0 -40 -5t-36 -7q33 -68 76 -240z" />
<glyph unicode=" "  horiz-adv-x="604" />
<glyph unicode="&#x09;" horiz-adv-x="604" />
<glyph unicode="&#xa0;" horiz-adv-x="604" />
<glyph unicode="!" horiz-adv-x="391" d="M143 76q0 8 4 20q14 35 66 35q27 0 47.5 -15.5t20.5 -43.5q0 -33 -18.5 -61.5t-49.5 -28.5q-25 0 -47.5 30.5t-22.5 63.5zM158 1264v8q0 53 51 53q27 0 49.5 -14.5t22.5 -30.5v-4q-8 -49 -17.5 -446.5t-9.5 -487.5v-37q0 -23 -9 -33t-38 -10h-9q-3 0 -6.5 1t-5.5 3t-3 4 t-2 6.5t-1 7.5t-1 10t-1 12v16v18q0 18 -4 398.5t-16 525.5z" />
<glyph unicode="&#x22;" horiz-adv-x="452" d="M61 1138.5q0 24.5 14.5 37t30.5 12.5q72 0 72 -121q0 -100 -57 -100q-35 0 -35 22q0 2 11.5 22.5t11.5 41t-11 26.5q-16 4 -21 6t-10.5 15.5t-5.5 38zM236 1137q0 59 71 59q49 0 49 -102q0 -137 -45 -138q-16 0 -27.5 11.5t-11.5 25.5q0 8 10.5 25.5t10.5 25.5 q0 25 -21 35q-16 4 -21 6t-10 14.5t-5 37.5z" />
<glyph unicode="#" horiz-adv-x="1159" d="M61 442q0 12 7.5 21.5t22.5 14.5t30.5 8t40 5.5t42 3.5t45 2t40.5 1q4 16 17 52l20 56l63 225q-29 0 -86 2.5t-84 2.5q-23 0 -22 26q0 16 10 30.5t26 14.5h181q39 141 92 283l14 31q6 18 35 18q18 0 35.5 -11t17.5 -26l-12 -35l-40 -114l-50 -146q195 0 323 13 q66 246 82 274q20 35 60 35q35 0 35 -33l-7 -27l-28 -95l-43 -144q102 12 162 12q18 0 18 -24q0 -23 -13.5 -38.5t-41 -23.5t-49 -12t-58.5 -7t-49 -6l-104 -325q45 0 121.5 5t107.5 5q39 0 39 -37q0 -20 -10.5 -35.5t-33 -24.5t-43 -14.5t-55 -7.5t-54 -3t-56.5 0t-45 1 l-25 -112l-20 -96q-6 -30 -17.5 -62.5t-24.5 -44.5t-34 -12q-18 0 -30.5 13t-12.5 36q0 4 4 24l76 260q-43 2 -155.5 8.5t-176.5 8.5q-2 -8 -9 -39t-12 -48l-15 -50q-9 -33 -16 -54.5t-17.5 -49t-20.5 -46t-21.5 -35t-24.5 -25t-26 -8.5q-33 0 -32 27q18 100 108 328 q-100 0 -174 -10q-27 -1 -27 34zM371 502q37 2 114 2q39 0 115 -1t113 -1l35 119l57 204q-33 -2 -100 -2q-76 0 -228 4q-72 -211 -90 -272z" />
<glyph unicode="$" horiz-adv-x="940" d="M66 258q0 37 40 37q29 0 56 -21q123 -119 272 -133q-2 35 -2 115q0 29 2 144.5t2 248.5l-122 40q-79 26 -107.5 38t-68.5 39t-53 63.5t-13 92.5q0 127 116.5 203.5t249.5 97.5v77q0 47 37 48q18 0 35.5 -14.5t17.5 -33.5q0 -2 -3 -28.5t-3 -46.5q158 -10 279 -146 q16 -18 16 -39q0 -37 -39 -36q-16 0 -28 12q-98 102 -230 117q0 -268 2 -412l43 -12q121 -41 217.5 -121t96.5 -189q0 -141 -106.5 -239.5t-256.5 -98.5v-36q0 -35 -1 -48.5t-10 -28t-30 -14.5q-8 0 -14 1.5t-10.5 3.5t-7.5 4t-4 7l-2 10q-1 5 -2 14.5t-1 16.5v21v25v24 q-145 6 -256.5 66.5t-111.5 130.5zM174 924q0 -63 66 -90q84 -41 198 -80v379q-88 -8 -176 -68.5t-88 -140.5zM520 143q123 16 219 133q43 51 43 107q0 123 -254 231q0 -25 2 -75t2 -72q0 -160 -12 -324z" />
<glyph unicode="%" horiz-adv-x="878" d="M57 817q0 106 97 170q49 35 92 35q57 0 92 -57.5t37 -133.5q8 8 16 9l12 -2q-12 -84 -54 -144.5t-111 -60.5q-72 0 -126.5 60.5t-54.5 123.5zM96 16q0 2 4 7q29 57 90.5 153t67.5 109l135 229q55 78 163 266.5t134 216.5q27 31 66 31q27 0 26 -20q0 -4 -55 -103 l-136 -235l-142 -238l-69 -113l-70 -116q-26 -43 -68.5 -102.5t-87.5 -108.5q-2 -4 -13 -4q-12 0 -28.5 10t-16.5 18zM131 831q0 -53 53 -92q35 -27 74 -26q29 0 45 44t16 79q0 45 -20 78.5t-55 33.5q-43 0 -78 -41t-35 -76zM444 178.5q0 61.5 40 117.5t106 89q33 12 63 12 q59 0 90 -46t31 -113q0 -39 -8 -70q8 8 18.5 8t10.5 -12q-84 -162 -189 -162q-68 0 -115 57.5t-47 119zM526 186q0 -35 25 -63q23 -27 55 -45q47 20 79 74.5t32 103.5q0 61 -51 61q-59 0 -99.5 -44t-40.5 -87z" />
<glyph unicode="&#x26;" horiz-adv-x="1062" d="M125 217q0 76 49 178.5t92 162.5l131 179q-68 131 -67 240q0 195 219 268q18 6 31 6q37 0 57 -53t20 -104q0 -96 -94 -291q-31 -61 -51 -90q59 -125 209 -326q59 76 109 154l72 112q22 35 30 35q16 0 31.5 -16.5t15.5 -38.5q0 -10 -3 -21.5t-11.5 -28t-14.5 -30.5 t-20 -37l-24 -37l-27 -42l-28 -41l-32 -45l-31 -44q63 -78 136 -149.5t108 -96.5q10 -14 10 -22q0 -20 -23.5 -35.5t-49.5 -15.5q-12 0 -44 23.5t-90.5 78.5t-123.5 131q-111 -113 -196 -174t-167 -61q-100 0 -161.5 76.5t-61.5 154.5zM219 217q0 -31 14 -47q49 -74 125 -74 q70 0 147 57.5t142 147.5q-139 178 -215 309q-213 -287 -213 -393zM428 975q0 -63 33 -150q92 145 106 269q-2 8 -3 23.5t-11 25.5q-125 -41 -125 -168z" />
<glyph unicode="'" horiz-adv-x="227" d="M10 1266q0 33 23.5 56.5t62.5 25.5q49 4 70.5 -20.5t21.5 -96.5q0 -66 -43 -112t-67 -46q-18 0 -19 27q0 12 11.5 43t11.5 41q0 12 -12 16q-60 13 -60 66z" />
<glyph unicode="(" horiz-adv-x="573" d="M100 622.5q0 448.5 330 770.5q12 12 31 12q16 0 29.5 -9.5t13.5 -23.5q0 -10 -8 -18q-141 -170 -213 -345t-72 -452q0 -129 41 -251t90 -200.5t145 -211.5q23 -23 23 -48q0 -20 -14.5 -34.5t-32.5 -14.5q-25 0 -37 27q-326 350 -326 798.5z" />
<glyph unicode=")" horiz-adv-x="567" d="M104 -205q0 14 9 29q129 133 201.5 345t72.5 443q0 457 -254 736q-8 8 -8 22q0 16 11 30.5t26 14.5q6 0 16 -6q162 -152 243 -358.5t81 -434.5q0 -236 -85 -456.5t-239 -378.5q-10 -25 -37 -25q-14 0 -25.5 10.5t-11.5 28.5z" />
<glyph unicode="*" horiz-adv-x="1001" d="M70 928q0 35 98 35q16 0 47 -1t47 -1l139 4l27 34q-68 104 -109 160q-72 96 -71 148q0 16 8 31.5t20 15.5q14 0 34 -28t42.5 -65.5t36.5 -50.5l117 -178q133 211 178 256q20 0 37.5 -14t17.5 -27q0 -10 -16 -10q0 -43 -152 -266q63 -4 138 -4q45 0 118.5 8t85.5 8 q35 0 35 -37q0 -25 -11 -40t-43 -20t-57.5 -5t-83 2t-91.5 2q-78 0 -84 2q156 -176 155 -219q33 -31 62.5 -82t29.5 -80q-16 -16 -32 -17q-25 0 -140.5 138.5t-160.5 212.5q-139 -231 -181 -269q-25 -27 -41 -26q-31 0 -30 49q0 18 42 91t85 138l43 64h-156q-184 4 -184 41z " />
<glyph unicode="+" horiz-adv-x="1077" d="M59 502q0 35 37 44t150 9h235h13q10 66 11 199t11 205.5t45 72.5q39 0 39 -219q0 -53 -2 -138t-2 -102q0 -23 2 -22l14 2q63 2 174 4t168 6q66 0 66 -41q0 -18 -16.5 -33.5t-40.5 -15.5h10l-55 -2q-57 -2 -152.5 -5t-163.5 -7l-6 -381q-2 -39 -19.5 -59.5t-39.5 -20.5 q-41 0 -41 47q0 270 -11 424q-12 0 -63 -1t-84 -1q-279 0 -279 35z" />
<glyph unicode="," horiz-adv-x="286" d="M61 -102.5q0 24.5 31 28.5q82 8 82 64q0 20 -8 33q0 -25 -29 -25q-31 0 -47 18.5t-16 46.5q0 49 17.5 70t70.5 21q94 0 94 -117q0 -66 -43 -115t-121 -49q-31 0 -31 24.5z" />
<glyph unicode="-" horiz-adv-x="675" d="M59 557q0 16 6.5 25.5t23.5 12.5t32.5 4t48.5 1q338 0 383 4h6q39 0 39 -41q0 -39 -39 -39q-53 0 -115.5 -1t-105.5 -2t-47 -1h-80q-20 0 -51 -2t-41 -2q-60 0 -60 41z" />
<glyph unicode="." horiz-adv-x="284" d="M68 59q0 41 25.5 75t66.5 34h12q59 -8 59 -78q0 -41 -25.5 -71.5t-68.5 -30.5q-69 -1 -69 71z" />
<glyph unicode="/" horiz-adv-x="935" d="M72 -102q2 29 45 114q10 20 117.5 260t146.5 318l205 440l198 434q12 29 43 29q23 0 42.5 -15.5t19.5 -31.5q0 -8 -2 -12q-6 -10 -73 -157l-149 -324q-83 -177 -130 -267q-49 -92 -129 -268l-145 -322q-65 -145 -66 -151q-39 -82 -86 -82q-37 0 -37 35z" />
<glyph unicode="0" horiz-adv-x="864" d="M39 588q0 98 18.5 203.5t58.5 216t120.5 182.5t191.5 72q78 0 162 -41q199 -96 198 -390q0 -90 -14 -163q20 -10 21 -131q0 -102 -17.5 -192.5t-56.5 -173.5t-112.5 -132t-176.5 -49q-141 0 -232 88t-126 216t-35 294zM135 573q0 -92 15.5 -177t47 -158.5t89 -117.5 t135.5 -44q236 0 274 352q-78 -154 -102 -154q-37 0 -37 31q0 16 18 41q82 117 115 277v2v10q0 18 8 29q10 61 11 118q0 152 -72 261.5t-213 109.5q-80 0 -139.5 -58.5t-90 -150.5t-45 -186.5t-14.5 -184.5z" />
<glyph unicode="1" horiz-adv-x="569" d="M63 10q0 80 203 80h2q0 106 2 385t2 395q0 231 -6 250q-14 -8 -42.5 -32.5t-53.5 -42t-41 -17.5q-20 0 -36.5 12.5t-16.5 30.5q0 27 37 59.5t91 67.5t64 43q41 35 72 35t31 -39q0 -164 -6.5 -575.5t-6.5 -571.5h138q39 0 39 -33q0 -59 -197 -59q-10 -8 -29 -8 q-10 0 -23.5 7t-21.5 7q-18 0 -48 -3t-42 -3h-70q-41 0 -41 12z" />
<glyph unicode="2" horiz-adv-x="768" d="M72 55q0 18 28 54l131 150q31 36 122 154.5t130 188.5t77 171t38 185q0 117 -57.5 172.5t-145.5 55.5q-84 0 -153.5 -44t-69.5 -100q0 -45 47 -84q20 -18 21 -34q0 -20 -22.5 -38t-39.5 -18q-47 18 -75.5 66.5t-28.5 105.5q0 104 97 172t214 68q135 0 222 -82t87 -240 q0 -121 -54 -253t-118 -223l-151 -209q-88 -118 -121 -171q29 -2 82 -2q47 0 162.5 5.5t201.5 5.5q39 0 39 -50q0 -25 -14 -45t-37 -20q-117 0 -279.5 3t-261.5 3q-31 0 -51 14t-20 39z" />
<glyph unicode="3" horiz-adv-x="823" d="M104 49q0 43 23 43q299 0 397 66q168 94 168 262q0 139 -95 223t-204 84q-33 0 -76 -19.5t-57 -19.5q-23 0 -38 14.5t-15 34.5q0 16 16 43q41 66 87 126.5t74 92.5l77 88l67 76q-258 -4 -335 -4q-39 0 -39 51q0 23 12 42.5t33 19.5q72 0 221 -2t221 -2q23 0 38 -14.5 t15 -36.5q0 -18 -59 -88l-133 -157q-74 -89 -99 -143q166 -6 278 -126.5t112 -276.5q0 -184 -146.5 -309t-367.5 -125h-13q-162 -2 -162 57z" />
<glyph unicode="4" horiz-adv-x="843" d="M43 487q51 193 135 773q39 18 68 18q37 0 37 -25q-49 -399 -113 -706q145 37 317 43q6 53 27 293.5t35 351.5q0 37 47 37q25 0 43 -12.5t18 -34.5q-43 -326 -71 -637q8 0 39.5 -1t50 -3t42 -8.5t36 -21.5t12.5 -38q0 -39 -51 -39q-25 0 -62 5t-57 5h-18 q-23 -301 -23 -442q0 -66 -43 -65q-27 0 -50.5 21.5t-23.5 47.5q0 68 18 232l21 204q-221 -25 -379 -55h-6l-4 -2q-20 0 -31.5 15.5t-11.5 29.5z" />
<glyph unicode="5" horiz-adv-x="792" d="M23 63q0 31 45 31q59 0 99 1t108.5 7.5t114.5 16.5t101.5 32.5t88 53.5t56 79t23.5 109q0 166 -80.5 251t-187.5 85q-123 0 -235 -96q-25 -25 -52 -25q-20 0 -34.5 9.5t-14.5 21.5q0 8 6 12q43 80 75 182.5t41 155.5l32 187h-45q-20 0 -21 41q0 45 21 45l61 6 q0 25 13.5 37t29.5 12q29 0 35 -41q102 4 166 4q39 0 119 -1t121 -1q39 0 39 -43q0 -20 -12.5 -36.5t-35.5 -16.5q-80 0 -209 -3t-192 -3q-2 -18 -6 -69.5t-8 -80.5t-11.5 -73t-17.5 -83t-25 -77q96 41 175 41q143 0 248.5 -114t105.5 -325q0 -401 -627 -401 q-110 -1 -110 69z" />
<glyph unicode="6" horiz-adv-x="731" d="M35 377q0 164 69 325q215 489 586 637q20 0 20.5 -57t-20.5 -57q-154 -45 -312.5 -244t-219.5 -416q0 2 3 4t5 5.5t4 5.5q109 84 229 84q125 0 216.5 -94.5t91.5 -256.5q0 -141 -100.5 -225t-235.5 -84q-92 0 -160 32t-104.5 87t-54 118.5t-17.5 135.5zM129 383 q0 -135 72.5 -204.5t185.5 -69.5q94 0 165 48t71 128q0 119 -63.5 194.5t-153.5 75.5q-80 0 -154 -61q-18 -18 -39 -19q-25 0 -43 21.5t-18 46.5q-23 -86 -23 -160z" />
<glyph unicode="7" horiz-adv-x="772" d="M37 1176q0 72 178 71q33 0 119 -5t141 -5q33 0 106.5 7t116.5 7q37 0 37 -32q0 -10 -18 -76l-65 -205q-46 -143 -72 -236q14 2 41 3q70 0 107.5 -30t37.5 -59q0 -14 -10.5 -25t-26.5 -11q-18 0 -37 18q-25 0 -74 3t-71 3l-33 -104l-32 -106l-26 -93q-17 -61 -26.5 -101 t-19 -92.5t-13.5 -101.5q-27 -27 -55 -26q-41 0 -41 63q0 115 139 555h-2q-66 -16 -145 -16q-37 0 -51 4q-43 8 -43 51q0 25 14 44t35 19q6 0 41 -13t57 -13q39 0 121 18q135 436 135 463q0 10 -106 10q-223 0 -404 -35q-2 0 -5 -1t-5 -1q-18 0 -31.5 15t-13.5 33z" />
<glyph unicode="8" horiz-adv-x="737" d="M39 285q0 154 131 362q-115 135 -115 289q0 131 138.5 239.5t298.5 108.5q117 0 172 -59.5t55 -143.5q0 -152 -174 -448q-23 -14 -47 -15q-55 0 -56 70q4 12 50.5 90t84 162t37.5 139q0 53 -42 76t-93 23q-98 0 -206.5 -84t-108.5 -170q0 -80 78 -179q27 39 57 72 q8 6 20 6q20 0 33 -23.5t13 -56.5q0 -35 -11 -55l-32 -29l24 -24q10 -10 24 -22l20 -17l23 -18l21 -18q6 -5 27.5 -20.5l31.5 -22.5l37 -29l45 -33q158 -117 158 -244q0 -102 -99 -156.5t-202 -54.5q-186 0 -289.5 83t-103.5 202zM145 293q0 -190 277 -191q70 0 126 28 t56 89q0 35 -31 74q-37 43 -155.5 134t-171.5 142q-101 -139 -101 -276z" />
<glyph unicode="9" horiz-adv-x="741" d="M47 848q0 170 111.5 302t251.5 132q100 0 180 -78h8q37 0 84 -43q33 -186 33 -364q0 -156 -29 -288t-91.5 -245.5t-179 -185.5t-276.5 -84h-12q-51 0 -51 41q0 14 8 26.5t18 12.5q123 14 218.5 69.5t148.5 127t88 161.5t46 164t11 145q0 61 -8 103q-2 -10 -5 -27.5 t-23.5 -61.5t-50 -77t-88 -60.5t-132.5 -27.5q-96 0 -170 53t-86 150q-4 37 -4 55zM139 881q0 -84 48.5 -129t121.5 -45q98 0 162 67q59 63 81.5 136t22.5 180q-63 90 -167 90q-102 0 -185.5 -87t-83.5 -212z" />
<glyph unicode=":" horiz-adv-x="299" d="M63 80q0 37 25 61.5t53 24.5q27 0 55.5 -26.5t28.5 -71.5q0 -57 -51 -66q-25 -4 -33 -4q-78 0 -78 82zM70 680q0 33 19.5 58.5t47.5 25.5q8 0 15 -2q72 -25 71 -90q0 -27 -17.5 -45.5t-47.5 -18.5q-43 0 -65.5 20.5t-22.5 51.5z" />
<glyph unicode=";" horiz-adv-x="280" d="M51 -84q0 18 55.5 32.5t55.5 31.5q0 4 -2 13t-2 13q0 8 8 14q0 -27 -25 -26q-31 0 -49 25.5t-18 60.5q0 29 21.5 49.5t58.5 20.5q35 0 56 -37t21 -80q0 -61 -33.5 -107.5t-86.5 -46.5q-27 0 -43.5 11.5t-16.5 25.5zM61 684q0 31 19.5 54.5t46.5 23.5q10 0 16 -2 q39 -12 59.5 -38t20.5 -54q0 -25 -17.5 -41.5t-47.5 -16.5q-47 0 -72 21.5t-25 52.5z" />
<glyph unicode="&#x3c;" horiz-adv-x="819" d="M61 592q0 29 29 53q94 78 337 253t284 187q18 6 32 7q37 0 37 -31q0 -53 -121 -129q-47 -29 -248.5 -175.5t-228.5 -162.5q27 -14 281 -204.5t293 -213.5q43 -27 43 -61q0 -39 -43 -39q-16 0 -25 4q-86 29 -455 319l-47 32l-74 51q-34 24 -64 55.5t-30 54.5z" />
<glyph unicode="=" horiz-adv-x="929" d="M59 418q0 29 16.5 37t55.5 8q57 0 157.5 3t229.5 3q51 0 98.5 -2t53.5 -2q14 0 116 6q37 0 57.5 -17.5t20.5 -39.5q0 -31 -33 -31q-25 0 -85 -6t-93 -6q-45 0 -122.5 1t-108.5 1h-153q-65 0 -95.5 -1t-36.5 -1q-78 0 -78 47zM59 719q0 27 12.5 34t43.5 7h67q35 0 114 3 t191 3q88 0 163 -4t100 -4q37 0 59 2h8q49 0 49 -37q0 -18 -13 -32.5t-34 -14.5q-18 0 -18 -2l2 -4q0 -6 -53 -6q-27 0 -170.5 5t-186.5 5q-78 0 -145.5 -4t-69.5 -4q-31 0 -43 1t-34.5 5t-32 15.5t-9.5 31.5z" />
<glyph unicode="&#x3e;" horiz-adv-x="839" d="M61 129q0 31 41 53q53 31 289 211t266 213q-27 16 -201.5 152.5t-222.5 165.5q-12 6 -32.5 19l-29.5 18.5l-25.5 15.5t-23.5 16l-18 16q-10 9 -14 16t-7 16.5t-3 19.5q0 31 41 31q18 0 31 -5q39 -12 278.5 -188t341.5 -262q20 -18 21 -33q0 -12 -16.5 -32.5t-45.5 -45.5 l-51 -44q-23 -19 -51.5 -39.5t-30.5 -22.5l-264 -197q-154 -111 -199 -125q-10 -4 -29 -4q-45 0 -45 35z" />
<glyph unicode="?" horiz-adv-x="782" d="M55 1044q0 43 19.5 92.5t58.5 98.5t111.5 81t165.5 32q197 0 269.5 -87t72.5 -233q0 -82 -38 -154.5t-93 -128.5l-110 -109q-54 -54 -92 -125t-38 -151q0 -10 1 -29.5t1 -27.5q0 -47 -37 -47q-35 0 -49 15.5t-14 58.5q0 102 37.5 186t91.5 139l107 109q54 53 92 120.5 t38 147.5q0 217 -237 217q-131 0 -196.5 -60.5t-82.5 -146.5q-12 -66 -45 -66t-33 68zM268 76q0 16 6 35q16 45 70 45q59 0 59 -82q0 -33 -18 -53.5t-53 -20.5q-27 0 -45.5 21.5t-18.5 54.5z" />
<glyph unicode="@" horiz-adv-x="1251" d="M45 408q0 293 182.5 496.5t422 203.5t397 -180t157.5 -461q0 -152 -75.5 -284t-182.5 -132q-111 0 -137 244q-135 -281 -285 -281q-74 0 -139 80q-88 102 -88 279q0 188 99.5 338.5t250.5 150.5q104 0 223 -86l4 2h7q41 0 41 -80q0 -31 -16.5 -131t-16.5 -157 q0 -250 72 -250q12 0 29.5 8t41 31.5t44 57.5t33.5 93.5t13 130.5q0 219 -125 378t-366 159q-117 0 -216.5 -61.5t-158.5 -155.5t-92 -197.5t-33 -197.5q0 -70 13.5 -140.5t46 -142.5t80.5 -127t125 -90t171 -35q109 0 219 39q16 6 31 6q35 0 35 -25q0 -33 -90 -64.5 t-199 -31.5q-90 0 -175 31t-166 96.5t-129 190.5t-48 295zM391 381q0 -94 36 -174t95 -80q74 0 160 133t127 287q2 43 20 137v6q-96 84 -184 84q-113 0 -183.5 -121.5t-70.5 -271.5z" />
<glyph unicode="A" horiz-adv-x="1241" d="M43 16q16 225 84 467h-6q-66 0 -66 41q0 43 66 43h33q154 465 407 719q16 20 62 21q66 0 65 -43q115 -147 192 -365l150 -442q74 -225 170 -371q8 -16 8 -29q0 -23 -14 -41t-35 -18q-76 0 -223 446q-6 23 -10 33q-106 -20 -260 -20q-84 0 -242 10t-174 10 q-86 -264 -119 -461q0 -41 -45 -41q-43 0 -43 41zM281 567h618q-12 35 -41 158q-20 88 -52 167t-62.5 129t-61.5 86t-50.5 52.5t-25.5 16.5q-20 0 -65 -46q-135 -223 -260 -563z" />
<glyph unicode="B" horiz-adv-x="1124" d="M16 1137q0 61 153 101t263 40q186 0 318.5 -95.5t132.5 -277.5q0 -102 -70 -176q141 -49 216 -163.5t75 -227.5q0 -125 -79 -210t-198.5 -121t-269.5 -36q-418 0 -496 250q-33 104 -32 238q0 164 44 327.5t105 253.5q33 47 62 47q27 0 26 -32q0 -18 -8 -35 q-143 -266 -143 -537q0 -76 8 -134t28.5 -100t39 -72t57.5 -48l64 -30q26 -11 79 -15t84 -5t92 -1h19q66 0 131 10t137 37t117 83t45 134q0 109 -75 198t-196 136q-94 -59 -223 -88t-235 -29q-31 0 -48.5 2t-38 19.5t-20.5 50.5q0 25 27 33q143 106 375 106q57 0 125 -10 l10 8q55 61 55 137q0 117 -103.5 194t-262.5 77q-82 0 -162 -20.5t-129 -42t-54 -21.5q-18 0 -31.5 13.5t-13.5 31.5zM356 655q162 0 267 52q-16 2 -52 2q-119 -1 -215 -54z" />
<glyph unicode="C" horiz-adv-x="1097" d="M27 580q0 240 125 424q84 129 222 203.5t294 74.5q186 0 354 -111q25 -16 25 -41q0 -18 -16.5 -33.5t-37.5 -15.5q-23 0 -41 19q-137 88 -286 88q-178 0 -320.5 -111.5t-175.5 -285.5q-23 -113 -23 -220q0 -248 128 -363.5t327 -115.5q219 0 424 115q6 2 14 2 q29 0 29 -33q0 -78 -130 -140.5t-316 -62.5q-313 0 -467 211q-129 177 -129 396z" />
<glyph unicode="D" horiz-adv-x="1153" d="M-115 1163q0 31 45 59.5t145.5 48t235.5 19.5q207 0 368 -64.5t253 -167t138 -215t46 -225.5q0 -150 -59.5 -273.5t-153.5 -199t-206.5 -117.5t-225.5 -42q-127 0 -190 59h-2q-4 2 -7 2q-6 0 -30.5 -6t-38.5 -6q-57 0 -60 80v84q0 178 5.5 556t5.5 416 q-53 -12 -106.5 -31.5t-81 -33.5t-29.5 -14q-18 0 -35 23t-17 48zM248 298q0 -30 6 -57.5t9 -30.5l23 -24q19 -20 29 -32q35 -41 156 -41q72 0 145.5 16t147.5 54t131 93.5t93 139.5t36 184q0 180 -121 333.5t-319 225.5q-90 33 -222 33q-39 0 -104 -4q0 -55 -5 -363.5 t-5 -427.5v-99z" />
<glyph unicode="E" horiz-adv-x="1036" d="M35 918q0 354 477 354q242 0 406 -64q45 -18 45 -47q0 -31 -43 -31q-2 0 -21.5 4.5t-54.5 10.5l-79 13q-44 7 -102.5 11.5t-115.5 4.5q-408 0 -408 -236q0 -162 137 -211q82 27 187 27q98 0 196.5 -22.5t98.5 -55.5t-81 -42t-243 -9q-49 0 -72 2q-223 -66 -223 -271 q0 -74 30 -127t67.5 -78.5t102 -40t106.5 -16.5t108 -2q133 0 267 53.5t167 102.5q14 23 39 22q18 0 30.5 -11t12.5 -29.5t-14 -39.5q-70 -96 -214.5 -146t-269.5 -50q-526 0 -526 375q0 205 129 303q-139 70 -139 246z" />
<glyph unicode="F" horiz-adv-x="905" d="M-16 524q0 8 2 15.5t4 12.5t8 10t9 8t13.5 6.5t15.5 5.5t18.5 6t19.5 6q0 29 -2 86t-2 84q0 236 116 373q147 174 394 174q117 0 210 -38t93 -83q0 -20 -16.5 -36.5t-39.5 -16.5q-16 0 -32 12q-106 74 -220 74q-147 0 -288 -136q-119 -115 -119 -331q0 -59 10 -152 q100 12 238 12q412 0 411 -69q0 -41 -51 -41q-2 0 -6 1t-6 1q-137 20 -289 20q-129 0 -287 -16q6 -141 32 -270t52 -187q2 -4 2 -14q0 -18 -18 -33.5t-41 -15.5q-51 0 -93 172t-48 334l-62 -6h-4q-24 -1 -24 32z" />
<glyph unicode="G" horiz-adv-x="1230" d="M23 561q0 205 114.5 378t287.5 265t353 92t336 -108q20 0 21 -27q0 -20 -18.5 -34.5t-33.5 -14.5q-6 0 -16 14q-143 78 -279 78q-164 0 -316.5 -76.5t-256.5 -234.5t-104 -361q0 -190 105.5 -302.5t232.5 -112.5q168 0 342 126t264 279q-35 -8 -64 -8q-8 0 -23.5 1 t-25.5 1q-12 0 -67.5 -2t-94.5 -2q-164 0 -268 35q-12 2 -22.5 19.5t-10.5 31.5q0 33 43 33q2 0 34 -13.5t128 -13.5q332 0 430 51q16 8 35 9q43 0 59 -50q0 -84 -28.5 -239.5t-28.5 -200.5v-37q0 -57 27 -110q0 -20 -17.5 -32.5t-40.5 -12.5q-57 0 -57 127q0 121 51 325 q-100 -170 -302 -300t-382 -130q-170 0 -288.5 148.5t-118.5 408.5z" />
<glyph unicode="H" horiz-adv-x="1073" d="M-27 1223q0 27 42 52t106 25q102 0 137 -116.5t35 -397.5v-88h14q127 -4 322 -4q182 0 248 2q4 436 12 496q12 104 61 104q27 0 49.5 -15t22.5 -34q0 -2 -20.5 -340t-20.5 -528q0 -256 29 -277q20 -16 20 -49q0 -47 -67 -47q-61 0 -73.5 116t-12.5 478q-158 -8 -422 -8 h-168q-6 -152 -37 -563q-2 -47 -53 -47q-25 0 -45.5 17t-20.5 46q0 72 17.5 265.5t21.5 285.5q-47 0 -68 8q-25 6 -24 49q0 35 19.5 42t76.5 7q2 33 2 101q0 147 -18.5 264t-53.5 117q-6 0 -26.5 -6.5t-36.5 -6.5q-29 0 -48.5 16t-19.5 36z" />
<glyph unicode="I" horiz-adv-x="421" d="M66 35q0 37 79 51q4 0 5 154v338q0 127 7 327.5t7 233.5q0 45 -26.5 56t-26.5 54q0 35 120 35q57 0 98.5 -18.5t41.5 -42.5q0 -31 -70 -58q-49 -20 -49 -581q0 -123 9 -313.5t20 -192.5q90 -6 90 -58q0 -33 -27 -32h-36h-50q-20 0 -52 1t-53.5 4t-43 8t-32.5 13.5 t-11 20.5z" />
<glyph unicode="J" horiz-adv-x="1234" d="M-20 354q0 25 17 38.5t44 13.5q31 0 57 -23q201 -260 496 -260q111 0 197 35t138 97t87 130t50 154t20.5 146t5.5 128q0 369 -103 369q-63 0 -168.5 -6.5t-146.5 -6.5q-170 0 -213 17q-16 6 -28.5 26.5t-12.5 40.5q0 53 59 54q55 0 139 -16.5t160 -16.5q20 0 87 6t114 6 q49 0 87 -9t52 -20l15 -8q59 -78 59 -340q0 -205 -39 -404.5t-106 -281.5q-166 -227 -451 -227q-317 0 -586 297q-30 30 -30 61z" />
<glyph unicode="K" horiz-adv-x="1046" d="M29 1055q0 168 14 210t63 42q51 0 68 -58q-33 -238 -33 -536q90 66 181.5 153.5t153 157.5t152.5 149.5t187 137.5q66 0 66 -47q0 -20 -11 -41q-102 -82 -233 -201t-226.5 -195.5t-211.5 -146.5q106 -35 205.5 -87t162 -91t162.5 -126t134 -121l151 -146q4 -6 4 -23 q0 -31 -27.5 -58.5t-58.5 -27.5q-27 0 -45 20l-133 134l-151 147q-52 49 -137 121t-164 118t-159 74l8.5 -265t6.5 -306q0 -43 -52 -43q-23 0 -41 12.5t-18 34.5q0 137 -9 506t-9 502z" />
<glyph unicode="L" horiz-adv-x="1015" d="M37 602q0 352 123 649q8 25 39 25q25 0 44 -14.5t19 -34.5q0 -10 -2 -15q-35 -76 -70.5 -279.5t-35.5 -377.5q0 -145 14 -252q10 -74 52 -121t110.5 -65.5t113.5 -22.5t111 -4q240 0 363 109q23 20 53 20q57 0 57 -45q0 -23 -16 -41q-113 -145 -469 -145q-88 0 -156 8 t-135.5 29.5t-113.5 67.5t-64 114q-37 159 -37 395z" />
<glyph unicode="M" horiz-adv-x="1443" d="M47 793q0 264 16 417q4 41 42 68t88 27q90 0 141 -80q41 -63 119.5 -310t155.5 -445t130 -198q39 0 119 212t161 460t107 291q47 78 131 78q41 0 69 -19.5t42 -43t20.5 -75t7.5 -80t1 -91.5v-33q0 -86 -5.5 -266.5t-5.5 -272.5q0 -203 19 -362v-9q0 -55 -49 -55 q-18 0 -30.5 9.5t-20 30t-12.5 40.5t-6 54t-1 57.5t1 62.5t1 57q0 88 3 266.5t3 256.5q0 344 -47 344q-45 0 -115 -203l-151 -452q-80 -249 -131 -318q-59 -80 -133 -80q-55 0 -105 57q-41 47 -121.5 304.5t-162.5 479.5t-135 222q-41 0 -41 -201q0 -111 14 -398.5 t14 -399.5q0 -94 -4 -129q-2 -25 -20.5 -39.5t-38.5 -14.5q-23 0 -40.5 16.5t-17.5 43.5v8q0 53 -6 309.5t-6 403.5z" />
<glyph unicode="N" horiz-adv-x="1005" d="M41 45q31 428 31 774q0 254 -15 404q0 31 23.5 50t60.5 19q57 0 88 -49q29 -49 103 -186l154 -288l160 -298q79 -147 136.5 -241.5t67.5 -94.5q2 35 2 156q0 215 -9 508t-18 368q-2 10 -2 39q0 78 68 78q84 0 84 -98q0 -55 -27 -56q-16 0 -16 -784q0 -45 1 -120.5 t1 -104.5q0 -131 -82 -131q-53 0 -84 51q-80 131 -229 401l-266 492q-116 221 -105 221q-6 0 -6 -154q0 -55 1 -223t1 -262q0 -322 -10 -446q-6 -70 -60 -70q-43 0 -53 45z" />
<glyph unicode="O" horiz-adv-x="1183" d="M25 664q0 162 56 315.5t165 265.5q49 0 65 -31q135 80 297 80q100 0 195.5 -40t176.5 -114.5t131 -201.5t50 -287q0 -281 -178 -465t-432 -184q-242 0 -384 196t-142 466zM150 651q0 -233 103 -402t290 -169q205 0 365.5 159.5t160.5 397.5q0 119 -45 246 q-117 322 -418 321q-166 0 -313 -82q-143 -178 -143 -471z" />
<glyph unicode="P" horiz-adv-x="976" d="M27 791q0 526 389 526q252 0 396 -130t144 -296q0 -203 -175 -332t-429 -129q-100 0 -198 29h-2l-5 2q8 -68 29 -206t27 -204v-6q0 -43 -51 -43q-23 0 -40.5 13.5t-19.5 35.5q-6 80 -35.5 342.5t-29.5 397.5zM123 856q0 -33 3 -94.5t3 -77.5q0 -68 8 -127h2q4 2 6 2 q10 0 39 -14q94 -14 176 -15q80 0 158 16.5t158 54.5t130 114t50 178q0 147 -134 238.5t-312 91.5q-287 0 -287 -367z" />
<glyph unicode="Q" horiz-adv-x="1241" d="M33 614q0 256 134 408t329 190q-6 12 -7 31q0 35 56.5 50.5t113.5 15.5q225 0 395.5 -224.5t170.5 -513.5q0 -211 -138 -358q57 -55 109 -129q20 -27 21 -53q0 -20 -14.5 -34.5t-35.5 -14.5q-14 0 -31.5 8t-37.5 28l-33 33q-12 12 -36.5 43t-31.5 37q-172 -123 -395 -123 q-272 0 -420.5 175t-148.5 431zM133 631q0 -86 27.5 -175t84 -170t155 -132.5t225.5 -51.5q164 0 303 103q-18 18 -89 77.5t-115 104.5t-44 66q0 31 47 30q35 0 92.5 -38.5t89.5 -68.5l103 -95q115 127 114 292q0 117 -46 256.5t-115 212.5q-123 117 -236 146q2 -6 2 -21 q0 -29 -20.5 -49t-57.5 -20q-18 0 -58 5t-60 5q-162 0 -282 -122t-120 -355z" />
<glyph unicode="R" horiz-adv-x="1241" d="M-16 442q0 35 27.5 58.5t68.5 27.5q-6 90 -6 177q0 225 43 364q35 121 131 176t221 55q176 0 303 -75q111 -66 191.5 -175.5t80.5 -220.5q0 -143 -142 -244.5t-374 -150.5q205 -78 423 -189.5t286 -160.5q25 -23 25 -41t-18.5 -32.5t-43.5 -14.5q-18 0 -29 8 q-86 55 -371.5 191.5t-484.5 205.5q-41 -6 -116 -10q18 -164 45 -328v-6q0 -20 -27 -40.5t-51 -20.5q-35 0 -37 35q-27 221 -39 354q-106 0 -106 57zM174 680q0 -29 8 -152q74 -4 201 -45q238 25 389.5 126.5t151.5 232.5q0 125 -144.5 243.5t-343.5 118.5q-70 0 -120 -30.5 t-76.5 -75.5t-42 -120t-19.5 -140.5t-4 -157.5z" />
<glyph unicode="S" horiz-adv-x="1159" d="M23 227q0 39 49 39q33 0 65 -22q78 -66 204 -111t255 -45q80 0 172 27.5t167 88t75 138.5q0 57 -58.5 111.5t-162 96.5t-187.5 68.5t-192.5 54t-120.5 32.5q-129 37 -190.5 90t-61.5 155q0 106 88 187.5t203.5 118t228.5 36.5q141 0 270 -52t220 -146q20 -23 20 -41 q0 -31 -41 -31q-27 0 -45 18q-72 68 -185.5 112t-236.5 44q-82 0 -171 -26.5t-158.5 -83t-69.5 -128.5q0 -74 84 -106q68 -27 254 -77t207 -56q68 -23 134 -52.5t137 -73.5t114 -103.5t43 -124.5q0 -166 -165 -268.5t-366 -102.5q-215 0 -397 74.5t-182 158.5z" />
<glyph unicode="T" horiz-adv-x="1341" d="M-2 1161q0 37 41 37q78 0 275.5 1t267.5 1h18v27q0 45 57.5 45t57.5 -45v-27q55 0 280.5 4t327.5 4q23 0 35 -13t12 -30q0 -37 -39 -39q-137 -14 -612 -28q10 -225 10 -428q0 -381 -29.5 -532.5t-119.5 -151.5q-27 0 -44.5 15t-17.5 38q0 29 33 55q61 45 61 432 q0 102 -6 301t-6 267q-334 -14 -547 -15q-16 0 -35.5 27.5t-19.5 54.5z" />
<glyph unicode="U" horiz-adv-x="1153" d="M43 637q0 133 26.5 282.5t52 234.5t38.5 108q20 33 53 32q18 0 32.5 -13t14.5 -32q0 -10 -2 -16q-111 -332 -111 -576q0 -158 38 -269.5t105.5 -169.5t142.5 -83.5t167 -25.5q80 0 137.5 11t116.5 46t96 95.5t60.5 165.5t23.5 249q0 115 -9 254t-17.5 232t-8.5 95 q0 20 18.5 36t37.5 16q51 0 57 -92q14 -168 14 -1162q0 -27 -15 -44t-42 -17q-25 0 -40 16.5t-15 34.5l4 145q-4 -8 -12.5 -20t-42 -44t-77.5 -56.5t-121 -45t-167 -20.5q-160 0 -272.5 53.5t-172 146.5t-85 199.5t-25.5 233.5z" />
<glyph unicode="V" horiz-adv-x="1316" d="M29 1266q0 47 53 47q57 0 74 -51q117 -406 223 -683.5t250 -465.5q0 -2 2 -2q18 0 102 138t146 267q166 348 301 784q8 18 37 19q25 0 47 -17.5t22 -44.5q0 -8 -4 -24q-344 -926 -567 -1200q-25 -31 -78 -31q-49 0 -70 27q-41 53 -84 122.5t-75.5 132t-74.5 158.5 l-67 156q-25 59 -66.5 172l-57.5 159l-57 166l-50 144q-6 15 -6 27z" />
<glyph unicode="W" horiz-adv-x="1576" d="M31 1249q0 20 18.5 33.5t38.5 13.5q45 0 47 -45q10 -340 55 -592q98 -573 256 -573q147 0 281 446l29 97q-55 221 -56 354q0 45 3.5 77t13.5 71.5t35.5 60t64.5 20.5q86 0 86 -163.5t-57 -401.5l26 -96q27 -96 64 -187.5t95.5 -172t111.5 -80.5q80 0 140 163.5t87 386 t39 376t12 206.5q0 18 19.5 30.5t46.5 12.5q57 0 57 -43q0 -51 -69 -584q-31 -242 -136.5 -453.5t-205.5 -211.5q-92 0 -183.5 145.5t-150.5 339.5q-27 -90 -50.5 -155.5t-66.5 -152.5t-103.5 -134t-132.5 -47q-74 0 -133 49t-99 136t-64.5 167t-47.5 184q-33 152 -52 394.5 t-19 328.5zM784 977q0 -78 15 -148q20 113 20 203q0 53 -14 84q-21 -59 -21 -139z" />
<glyph unicode="X" horiz-adv-x="1265" d="M41 1253q0 20 23.5 33.5t50.5 13.5q20 0 28 -4q74 -45 161 -136t189.5 -214t151.5 -174l12 -16l467 528q23 25 54 25q23 0 40 -14.5t17 -34.5q0 -18 -12 -33q-139 -170 -488 -553q96 -104 237.5 -286.5t250.5 -295.5q14 -14 14 -29q0 -20 -20.5 -34.5t-45.5 -14.5 q-27 0 -47 21q-119 119 -261 304t-204 255q-297 -326 -487 -559q-31 -37 -70 -37q-25 0 -42 15.5t-17 37.5q0 18 12 37q53 82 132 171t201 213l155 159l43 43l-126 140l-136 151q-47 51 -122 123.5t-143 128.5q-18 20 -18 36z" />
<glyph unicode="Y" horiz-adv-x="1124" d="M37 1247q0 25 18.5 42.5t42.5 17.5q37 0 58 -39l112 -215q43 -80 129 -205t170 -205q72 106 230 320l231 319q20 29 53 29q25 0 45.5 -14.5t20.5 -34.5q0 -12 -6 -21q-78 -123 -247 -349t-235 -325q14 -12 15 -30q0 -23 -15.5 -43.5t-35.5 -20.5q-12 0 -21 6 q-143 -213 -217 -426q-20 -61 -68 -61q-20 0 -34.5 14t-14.5 37q0 16 4 27q72 219 238 485q-51 49 -107.5 116.5t-99.5 130.5l-92 137q-49 75 -76 121l-57 100q-31 54 -33 57q-8 14 -8 30z" />
<glyph unicode="Z" horiz-adv-x="1144" d="M23 109q0 29 22 51l858 1052q-84 -2 -348 -9t-410 -7q-23 0 -38 18.5t-15 38.5q0 45 53 45h863q33 0 58.5 -17t25.5 -40q0 -18 -21 -37q-72 -63 -159 -157l-151 -167q-65 -73 -171 -206l-148 -186l-156 -203q-116 -152 -126 -166q188 -12 362 -13q233 0 557 25 q25 0 42.5 -20.5t17.5 -49.5q0 -45 -43 -45q-219 -18 -439 -18q-272 0 -596 29q-38 39 -38 82z" />
<glyph unicode="[" horiz-adv-x="411" d="M45 154q0 168 7 476t7 472q0 213 -8 409q0 10 22.5 17.5t63.5 8.5t78 1t86 -1t68 -1q35 0 34 -41q0 -43 -36 -43q-51 0 -117 4t-100 4v-123q0 -82 -1.5 -185t-1.5 -225v-248q0 -126 -1 -248t-1 -229.5t-1 -189.5t-1 -129v-47q20 0 63.5 -1t65.5 -1q12 0 37 1t37 1 q27 0 44.5 -16.5t17.5 -38.5q0 -41 -70 -41q-20 0 -74.5 5t-85.5 5q-43 0 -78 -8q-16 0 -32.5 15.5t-16.5 33.5q-6 193 -6 363z" />
<glyph unicode="\" horiz-adv-x="849" d="M70 1491q0 23 16 35t37 12q37 0 49 -29q4 -16 56 -139l119 -289q67 -166 106 -284q78 -240 301 -799q39 -111 39 -135q0 -41 -37 -41q-29 0 -53.5 44t-51.5 114l-6 18l-232 615q-220 583 -337 851q-6 15 -6 27z" />
<glyph unicode="]" horiz-adv-x="446" d="M29 1505q0 29 27.5 37t88.5 8q25 0 80.5 -2t81.5 -2q8 0 22.5 1t20.5 1q16 0 26.5 -15t10.5 -36q6 -195 6 -362q0 -168 -7 -473.5t-7 -468.5q0 -213 8 -410q0 -27 -49 -27h-268q-37 0 -37 41q0 16 10 29.5t29 13.5q51 0 116.5 -3t100.5 -3v122q0 81 1 184.5t2 225.5 l2 246l2 248q1 123 2 229.5t2 188.5t1 129v47q-27 6 -65 6q-23 0 -72 -4t-74 -4q-27 0 -44 16.5t-17 36.5z" />
<glyph unicode="^" horiz-adv-x="813" d="M41 1047q0 12 59 77l139 150q79 84 107 123q18 25 53 24q51 0 138 -110q27 -31 86 -88.5t98 -100.5t39 -61q0 -23 -16.5 -42.5t-35 -19.5t-30.5 21q-37 61 -279 303l-62 -72l-77 -87l-70 -75q-39 -42 -66.5 -62.5t-41.5 -20.5q-16 0 -28.5 11.5t-12.5 29.5z" />
<glyph unicode="_" horiz-adv-x="706" d="M-49 -39q0 31 22.5 39t75.5 8h33h237q74 0 153 -2t101 -2q59 0 97 2h8q49 0 49 -37q0 -18 -14.5 -32.5t-36.5 -14.5q-12 0 -12 -2l16 -4q0 -2 -18 -2q-4 0 -70 2t-146.5 5t-126.5 3q-100 0 -167.5 -3t-97 -5t-38.5 -2q-23 0 -35 3t-21 13.5t-9 30.5z" />
<glyph unicode="`" horiz-adv-x="559" d="M190 1403q0 14 13.5 23.5t27.5 9.5q35 0 56 -37q20 -35 39.5 -56.5t31 -26.5t17.5 -15.5t6 -28.5q0 -20 -15.5 -36.5t-33.5 -16.5q-10 0 -17 6q-10 8 -12 10t-8 9t-10 14.5t-20 28.5l-36 48q-39 52 -39 68z" />
<glyph unicode="a" horiz-adv-x="768" d="M27 184q0 43 10 101.5t33.5 132.5t76 123t121.5 49q82 0 147.5 -69.5t94.5 -160.5q16 59 16 117q0 121 -61.5 217.5t-142.5 96.5q-94 0 -203 -97q-18 -16 -39 -16q-29 0 -29 31q0 66 100.5 124t176.5 58q119 0 199.5 -117t80.5 -274q0 -141 -49 -262l-4 -11 q33 -113 82 -112q4 0 12 1t13 1q39 0 38 -39q0 -25 -20.5 -45.5t-54.5 -20.5q-100 0 -138 146q-49 -68 -133 -115t-166 -47q-161 0 -161 188zM113 174q0 -74 34 -84q16 -6 35 -6q66 0 149 55.5t120 122.5q-29 86 -78 161t-99 75q-61 0 -98 -63.5t-45 -129.5 q-18 -61 -18 -131z" />
<glyph unicode="b" horiz-adv-x="894" d="M-45 160q0 20 30.5 63t78 100.5t67.5 88.5q-27 127 -27 266q0 283 95.5 503t214.5 220q47 0 69.5 -37t22.5 -129q0 -160 -68.5 -384t-206.5 -433q29 -127 84.5 -223.5t125 -96.5t134 138.5t93.5 306.5q-131 12 -131 129q0 80 47 150.5t108 70.5q82 0 82 -217v-41 q94 12 125 12t31 -18q0 -20 -48 -48t-112 -36q-23 -143 -59.5 -259t-108.5 -202t-164 -86q-55 0 -101 23.5t-72.5 51t-51.5 81t-34 80t-23 77.5q-27 -35 -146 -153q-18 -16 -36.5 -16t-18.5 18zM201 690q0 -80 8 -143q96 188 149.5 392t53.5 345v37q-96 -70 -153.5 -247 t-57.5 -384zM625 684q0 -43 53 -49v39q0 74 -10 117q-43 -74 -43 -107z" />
<glyph unicode="c" horiz-adv-x="747" d="M2 457q0 203 129 340q111 119 240 118q70 0 126 -31.5t64 -54.5q4 -10 4 -30q0 -51 -45 -51q-12 0 -55 33.5t-100 33.5q-111 0 -185 -121t-74 -250q0 -162 82 -243.5t193 -81.5q92 0 179 51t124 119q8 20 27 20q14 0 26.5 -13t12.5 -32q0 -14 -7 -26q-55 -98 -150 -164 t-220 -66q-33 0 -67 4t-92 30t-102 70t-77 134t-33 211z" />
<glyph unicode="d" horiz-adv-x="919" d="M2 344q0 199 120 362.5t314 163.5q45 0 86 -8v12q14 375 160 545q14 14 33 15q51 0 72.5 -123t21.5 -258q0 -342 -143 -701q70 -252 137 -252q23 0 104 72q20 18 39 18q20 0 21 -20q0 -14 -13 -33q-88 -141 -168 -141q-104 0 -178 219l-4 10q-119 -227 -307 -227 q-76 0 -141 35q-154 82 -154 311zM98 348q0 -104 51.5 -178t147.5 -74q166 0 272 244q-43 180 -47 422q-43 12 -84 12q-147 0 -243.5 -134t-96.5 -292zM610 893q4 -43 10.5 -178t14.5 -203q90 322 90 559q0 129 -23 236q-12 -25 -22 -53.5l-17.5 -51t-14.5 -56.5t-10 -52.5 t-8 -55.5t-7 -50l-7.5 -51t-5.5 -44z" />
<glyph unicode="e" horiz-adv-x="702" d="M2 387q0 190 103.5 349t261.5 159q145 0 145 -176q0 -82 -37 -162t-111.5 -153.5t-129 -108.5t-103.5 -59l8 -17q29 -53 81 -88t112 -35q178 0 305 178q14 18 29 19q27 0 26 -41q0 -84 -118.5 -168t-231.5 -84q-156 0 -248 104.5t-92 282.5zM98 391q0 -16 4 -53 q190 106 293 266q37 86 37 139q0 61 -51 62q-80 0 -181.5 -127t-101.5 -287z" />
<glyph unicode="f" horiz-adv-x="542" d="M-23 778q0 53 187 80q0 6 7 122t19 179q18 90 66.5 135t114.5 45q61 0 120.5 -39.5t90.5 -107.5q6 -12 6 -23q0 -31 -35 -30q-33 0 -55 35q-53 80 -109 79q-57 0 -96 -89t-39 -232q0 -43 2 -66h31q231 0 231 -69q0 -18 -15.5 -35t-35.5 -17h-4l-4 3q-51 31 -121 30 q-23 0 -76 -4q-4 -172 -4 -258q0 -262 25 -448v-11q0 -25 -12.5 -40t-30.5 -15q-35 0 -47 57q-39 184 -55.5 250t-56.5 193t-97 256q-7 12 -7 20zM94 748q33 -68 76 -240q0 25 1 85t1 89q0 57 -2 78q-16 0 -40 -5t-36 -7z" />
<glyph unicode="g" horiz-adv-x="772" d="M10 319q0 115 48 248t147.5 237.5t218.5 104.5q51 0 88 -23.5t49 -56.5l6 -22q4 -16 4 -23q0 -20 -12 -37.5t-29 -17.5q-10 0 -39.5 37t-62.5 37q-94 0 -201.5 -149.5t-107.5 -315.5q0 -106 50 -160.5t105 -54.5q92 0 179 94q47 51 75.5 104.5t42 132t16.5 116.5t7 149 q2 25 20.5 42t40.5 17q39 0 45 -41q31 -201 31 -377q0 -76 -2 -110l49 37q16 14 33 14q20 0 20 -22q0 -18 -18 -43l-94 -115q-35 -268 -133.5 -448.5t-206.5 -217.5q-2 -2 -8 -2q-25 0 -61 37t-40 61q-25 49 -24 101q0 199 387 516q12 111 12 317q-6 -37 -17.5 -80 t-40 -116.5t-87 -141t-133.5 -106.5q-55 -31 -113 -31q-78 0 -137.5 57.5t-83 126t-23.5 125.5zM356 -332q0 -55 31 -110q168 197 221 471q-123 -109 -187.5 -193t-64.5 -168z" />
<glyph unicode="h" horiz-adv-x="849" d="M-109 143q0 27 37 52q137 182 164 233q61 113 72 336q6 121 6 430q0 61 55 61q41 0 47 -26q-6 -96 -12 -333t-16 -388q104 221 311 364q14 8 45 9q39 0 57.5 -13.5t21.5 -30t3 -51.5v-12q0 -104 -7 -207.5t-20 -232.5l-18 -197l84 64l117 87q51 38 57 38q25 0 25 -27 q0 -33 -116 -143.5t-200 -155.5q-10 -6 -18 -6q-18 0 -30.5 16.5t-12.5 34.5q0 92 18.5 305t18.5 299q0 57 -7 101q-289 -199 -372 -715q-12 -39 -51 -39t-39 37v8q25 174 43 340q-57 -123 -166 -238q-29 -31 -60 -30q-37 -1 -37 30z" />
<glyph unicode="i" horiz-adv-x="397" d="M33 459q0 205 47 317q20 45 53 45q43 0 43 -51q0 -14 -2 -22q-41 -141 -41 -330q0 -145 27.5 -233.5t83.5 -88.5q39 0 110.5 74t85.5 74q8 0 9 -15q0 -49 -72 -141t-158 -92q-92 0 -139 138.5t-47 324.5zM141 952q0 57 34 102.5t69 45.5q33 0 32.5 -49.5t-26 -96.5 t-66.5 -47q-10 0 -16 2q-27 6 -27 43z" />
<glyph unicode="j" horiz-adv-x="507" d="M0 -252q0 123 82 265.5t201 240.5l6 451q-33 -10 -64.5 -28l-72.5 -42.5t-64 -36.5q-12 -6 -22 -6q-18 0 -32 16.5t-14 36.5q0 45 133.5 104.5t186.5 59.5q29 0 36 -21.5t7 -72.5q0 -57 -5 -199.5t-5 -202.5q90 57 168 58q31 0 30 -35q0 -31 -29.5 -48.5t-85 -38 t-89.5 -44.5q-4 -270 -64.5 -465t-169.5 -195q-66 0 -99.5 67.5t-33.5 135.5zM84 -254q0 -63 39 -86q4 -4 14 -4q55 0 100.5 190.5t45.5 298.5q-68 -61 -133.5 -187t-65.5 -212zM283 971q0 61 27.5 104t58.5 43q20 0 36.5 -16.5t16.5 -36.5q0 -25 -12.5 -47.5t-30 -43 t-19.5 -24.5q-14 -23 -45 -22q-32 0 -32 43z" />
<glyph unicode="k" horiz-adv-x="624" d="M8 41q0 45 17 115q49 449 65 1185q0 47 49 48q53 0 54 -48q-20 -434 -50 -903q4 6 19 32l24 43q10 17 25.5 32.5t28.5 15.5q16 0 28 -12q-4 6 -4 24q0 53 25 60q242 250 307 250q25 0 45.5 -18.5t20.5 -39.5q0 -18 -19 -26q-76 -41 -158 -116t-133 -138 q133 -324 269 -484q12 -16 12 -28q0 -18 -16.5 -32.5t-36.5 -14.5q-45 0 -138.5 136t-179.5 290q-135 -240 -156 -379q-6 -41 -49 -41q-20 0 -34.5 13t-14.5 36z" />
<glyph unicode="l" horiz-adv-x="491" d="M-90 139q0 10 64.5 125t86.5 142q-27 158 -26 305q0 246 81 479t167 233q119 0 118 -303q0 -375 -239 -733l14 -54t22.5 -79t27 -73t37 -62.5t42.5 -22.5q29 0 82 52.5t72 52.5q20 0 20 -27q0 -10 -6 -27q-29 -63 -74 -102t-70.5 -47t-41.5 -8q-127 0 -201 309 q-8 -10 -115 -164q-18 -16 -41 -16q-20 0 -20 20zM121 659q0 -88 14 -137q47 70 75 119t59.5 180t31.5 295q0 53 -6 93t-12.5 56.5t-10.5 16.5q-66 -94 -108.5 -279.5t-42.5 -343.5z" />
<glyph unicode="m" horiz-adv-x="1073" d="M-10 827q0 18 16.5 35t36.5 17q68 0 107 -293q86 285 235 284q160 0 219 -241q78 240 234 239h22h14q186 0 187 -446q0 -86 -9.5 -221t-9.5 -164q0 -23 -15 -36t-36 -13q-16 0 -30.5 11t-14.5 32q0 55 13.5 206.5t13.5 219.5q0 10 -1 26.5t-1 24.5q-4 53 -13.5 106.5 t-37 109.5t-66.5 56q-31 0 -72 -39q-59 -57 -95 -163.5t-45 -176t-17.5 -214t-8.5 -152.5q-2 -18 -17 -30.5t-36 -12.5q-43 0 -49 39q23 231 23 370q0 51 -6.5 106.5t-19.5 121t-45 107.5t-77 42t-86 -63.5t-69.5 -161.5t-38 -159.5t-22.5 -200.5l-15 -162q-6 -37 -47 -37 q-20 0 -36 13t-16 36q0 45 8.5 137t8.5 139q0 39 -4 138q-12 285 -74 348q-8 8 -8 22z" />
<glyph unicode="n" horiz-adv-x="706" d="M29 772q0 39 16 57.5t70 18.5q47 0 56 -61.5t15 -360.5q115 274 279 387q18 12 38.5 12t37 -13t20.5 -30q41 -279 41 -657q35 27 69 67.5l55.5 64.5t41.5 24q33 0 33 -35q0 -86 -215 -230q-23 -14 -45 -14q-35 0 -35 35q0 453 -23 663q-123 -111 -205.5 -293t-111.5 -350 q0 -27 -19.5 -43t-42.5 -16q-33 0 -32 27q0 10 6 22q0 68 9 253t9 278q0 82 -6 145h-2h-8q-51 0 -51 49z" />
<glyph unicode="o" horiz-adv-x="720" d="M33 422q0 80 5 128t35.5 123t90.5 136q84 84 190 84q57 0 117 -23q8 12 25 13q18 0 26 -15l23 -30l6 -2q2 -4 29 -51l41 -72q88 41 102 41q27 0 27 -29q0 -43 -95 -107q27 -86 27 -180q0 -201 -96.5 -320.5t-251.5 -119.5q-111 0 -206 115.5t-95 308.5zM117 428 q0 -121 59.5 -221.5t175.5 -100.5q109 0 174.5 102.5t65.5 237.5q0 76 -21 138q-41 -33 -92 -33q-33 0 -57 18q-29 20 -29 88q0 88 39 123q-39 23 -82 23q-98 0 -165.5 -116t-67.5 -259zM479 674q0 -31 25 -31q14 0 35 14q-18 43 -43 72q-17 -32 -17 -55z" />
<glyph unicode="p" horiz-adv-x="632" d="M-111 623q0 88 72 150.5t178 84.5q2 27 41 27q33 0 49 -17h21q190 0 296.5 -118.5t106.5 -311.5q0 -186 -119.5 -314t-310.5 -128q-27 0 -39 2q-4 -51 -6 -129t-5 -122t-10 -91t-22.5 -67.5t-42.5 -20.5q-41 0 -41 67q0 31 25 390q-10 10 -10 18q0 12 12 25l8 94 q8 158 23 351l18 251q-117 -37 -139 -164q-6 -37 -53 -37q-52 1 -52 60zM188 80q12 -2 37 -2q141 0 235.5 93t94.5 282q0 137 -74.5 233t-212.5 96q-8 0 -18 -1t-14 -1q-4 -88 -18.5 -282.5t-20.5 -309.5z" />
<glyph unicode="q" horiz-adv-x="681" d="M8 338q0 225 144.5 370.5t365.5 145.5q47 0 92 -6t45 -55q0 -16 -6 -29q23 -10 23 -39q0 -47 -54 -268q-33 -227 -32 -488q0 -55 4 -166q109 184 160 185q14 0 24 -11.5t10 -25.5q0 -8 -8 -25q-74 -106 -112.5 -182t-59.5 -166q-8 -41 -49 -41q-20 0 -34.5 14.5 t-14.5 38.5h-4q0 4 4 9q-16 158 -17 305q0 123 9 219q-102 -127 -238 -127q-115 0 -183.5 85t-68.5 257zM94 336q0 -127 49.5 -188.5t108.5 -61.5q76 0 150.5 66.5t103.5 148.5q20 225 53 447q-45 4 -63 4q-172 0 -287 -127t-115 -289z" />
<glyph unicode="r" horiz-adv-x="485" d="M-98 647q0 6 33.5 29.5t75.5 64.5t61 84l4 13q14 33 43 32q39 0 39 -49q0 -10 -1 -22.5t-2 -22.5t-2 -19t-1 -16l-2 -6q35 82 97 127t132 45q135 0 135 -153q0 -82 -31.5 -143.5t-70.5 -61.5q-27 0 -44.5 21.5t-17.5 43.5q0 14 19.5 27.5t40 40.5t20.5 74 q0 66 -69.5 65.5t-138 -80t-81.5 -159.5q-6 -33 -15 -228.5t-9 -279.5v-25q0 -63 -54 -63q-20 0 -34.5 14t-14.5 39q0 270 37 631q-86 -53 -114 -54q-35 0 -35 31z" />
<glyph unicode="s" horiz-adv-x="671" d="M-2 254q0 49 22.5 118.5t63.5 69.5q18 0 35.5 -12t17.5 -31q0 -12 -12 -24q-23 -51 -23 -103q0 -84 61.5 -132t153.5 -48q111 0 180.5 55.5t69.5 122.5q0 55 -41 107.5t-116 87.5q-184 84 -228 119q-66 53 -65 131q0 92 68.5 141t168.5 49q80 0 129 -33.5t49 -89.5 q0 -43 -32.5 -73.5t-89.5 -30.5q-18 2 -19 14q0 4 21.5 33t21.5 41q0 45 -98 45q-43 0 -81 -20.5t-38 -59.5q0 -59 117 -110q16 -8 62 -25.5t86 -38t81 -49.5q115 -82 115 -232q0 -37 -18.5 -83t-55.5 -94t-108.5 -79.5t-163.5 -31.5q-133 0 -233.5 72.5t-100.5 193.5z" />
<glyph unicode="t" horiz-adv-x="497" d="M-98 801q0 33 26 33q63 0 176 6q23 260 58 401q12 57 49 57q63 -4 70 -59q0 -39 -37 -70q-2 -27 -18.5 -136t-24.5 -191q115 4 168 4q57 0 123 -4q27 0 26 -35q0 -47 -35 -47l-290 -6q-6 -92 -7 -207q0 -166 39 -309.5t101 -143.5q47 0 96 31t84 60.5t45 29.5q8 0 8 -12 q0 -57 -88 -134t-170 -77q-59 0 -102 48t-65.5 132t-33 177t-10.5 200q0 102 6 205l-157 -2q-16 0 -26.5 15.5t-10.5 33.5z" />
<glyph unicode="u" horiz-adv-x="731" d="M31 334q0 131 24.5 273.5t53.5 221.5q10 31 47 31q20 0 35.5 -12t15.5 -31v-10q-86 -250 -86 -494q0 -209 88 -209q61 0 129 110t117 282t59 342q2 39 49 39q23 0 39 -12.5t16 -33.5v-8l-4 -20q-29 -137 -28 -381q0 -322 51 -322q31 0 69.5 47.5t53.5 47.5q20 0 20 -27 q0 -39 -55 -103.5t-117 -64.5q-104 0 -104 317v64q-25 -88 -58.5 -166t-102.5 -149.5t-150 -71.5q-86 0 -124 98.5t-38 241.5z" />
<glyph unicode="v" horiz-adv-x="720" d="M8 784q0 37 16.5 56.5t38.5 19.5q20 0 35 -13t24 -46t15 -64.5l16.5 -91t20.5 -104.5q35 -152 91.5 -285t82.5 -133q12 10 46 65.5t80 158t75 206.5q-86 78 -86 168q0 57 28.5 102t98.5 45q29 0 53.5 -17t24.5 -48q0 -106 -19 -209h10q31 0 57.5 32.5t35.5 32.5 q25 0 24 -34q0 -37 -37 -81t-82 -44q-14 0 -26 6q-45 -178 -135 -343t-158 -165q-35 0 -62 33q-66 74 -159.5 347t-106.5 388q-2 6 -2 18zM545 733q4 -45 24 -82q14 72 17 133q-2 -2 -9.5 -4t-10.5 -3t-8 -5t-7 -8t-4 -12.5t-2 -18.5z" />
<glyph unicode="w" horiz-adv-x="1265" d="M-49 705q0 16 17 31l56 49q38 34 70 83q12 12 35 13q25 0 45.5 -14.5t20.5 -32.5q-51 -268 -52 -373q0 -29 6.5 -77t21.5 -119.5t54 -121t92 -49.5q90 0 145.5 127t61.5 256q-6 76 -6 144q0 12 -1 33.5t-1 33.5t1 30.5t5 29t10.5 20.5t16.5 15t24 5q51 0 52 -45 q0 -150 -7 -237q16 -172 66.5 -291t138.5 -119q106 0 154.5 130t50.5 321q-53 10 -87 52t-34 101q0 70 40 131.5t97 61.5q18 0 32 -8t23 -27.5t14 -36t8 -47.5t4 -48t2 -52t1 -45q139 37 195 96q14 16 29 16q16 0 16 -18q0 -12 -25.5 -47t-85 -78t-129.5 -55 q-8 -236 -80.5 -390.5t-207.5 -154.5q-180 0 -265 246q-33 -100 -100 -177t-156 -77q-72 0 -131 64.5t-94 146.5q-41 90 -41 258q0 119 19 241q-29 -23 -82 -22q-39 0 -39 27zM983 696.5q0 -32.5 45 -67.5q0 8 -6 143q-39 -43 -39 -75.5z" />
<glyph unicode="x" horiz-adv-x="681" d="M18 39q0 12 11 33q23 45 115 182t120 217l6 8q4 10 9 15l-236 294q-16 16 -16 39q0 20 15 36t36 16q16 0 42.5 -22.5t63.5 -67l64 -78.5l66 -88l51 -68q123 164 258 326q16 12 28 12q18 0 31.5 -16.5t13.5 -38.5q0 -14 -6 -27q-123 -135 -272 -326l274 -381l-2 -2 q18 -29 19 -45q0 -23 -17.5 -40t-38.5 -17q-12 0 -27.5 12.5t-19.5 28.5h-4l-4 10l-246 344q-135 -178 -243 -362q-20 -33 -50 -33q-16 0 -28.5 11.5t-12.5 27.5z" />
<glyph unicode="y" horiz-adv-x="731" d="M-14 362q0 129 37.5 253t117.5 188q25 18 43 18q20 0 33.5 -15t13.5 -36q0 -16 -12 -29q-59 -55 -96 -166.5t-37 -218.5q0 -133 51 -197.5t109 -64.5q92 0 176 105q135 168 153 589q2 25 17.5 40.5t36.5 15.5q37 0 45 -45q35 -211 35 -418q0 -51 -4 -150l36 29 q20 14 35 14t15 -16q0 -20 -31 -63l-66 -86q-37 -311 -132 -474t-200 -163q-131 0 -131 161q0 195 377 517q8 82 8 190v63q-47 -176 -146 -287.5t-232 -111.5q-90 0 -149.5 60.5t-81 136t-21.5 161.5zM332 -348q0 -61 53 -113q156 168 205 477q-258 -235 -258 -364z" />
<glyph unicode="z" horiz-adv-x="638" d="M-119 88q0 29 23 49q51 49 189 172t231.5 220.5t152.5 193.5q-61 -12 -145 -12q-51 0 -248 12q-43 0 -43 43q0 20 13.5 35.5t35.5 15.5q162 -14 242 -14q119 0 209 31q16 4 26 4q23 0 39.5 -9.5t16.5 -23.5q0 -6 -2 -8q-39 -88 -110 -180.5t-127 -148.5l-166 -159 l-157 -147q92 -2 240 -54.5t221 -52.5q18 0 60.5 9.5t58.5 9.5q33 0 33 -29q0 -41 -58.5 -64.5t-119.5 -23.5q-31 0 -174.5 61.5t-258.5 61.5q-43 0 -89 -19.5t-52 -19.5q-41 0 -41 47z" />
<glyph unicode="{" horiz-adv-x="591" d="M76 627q0 16 16 28q150 96 150 353q0 55 -7.5 160.5t-7.5 152.5q0 238 217 238q37 0 37 -39q0 -16 -10 -28.5t-27 -12.5q-141 0 -141 -172q0 -72 13.5 -186.5t13.5 -153.5q0 -213 -121 -332q47 -39 71.5 -102.5t29.5 -114.5t5 -127q0 -43 -6 -130t-6 -126 q0 -70 13.5 -112t45 -63.5t60.5 -27.5t84 -12q35 -4 35 -41q0 -35 -60 -35q-82 0 -135 28.5t-78.5 85t-34 114t-8.5 141.5q0 33 2 95t2 93q0 121 -23.5 194.5t-92.5 98.5q-37 13 -37 33z" />
<glyph unicode="|" horiz-adv-x="319" d="M119 -31v84v414q0 59 1 203.5t1 267.5q0 117 -1 295t-1 199q0 53 39 53q20 0 38.5 -15.5t18.5 -37.5q-2 -20 -2 -152q0 -68 5 -275.5t5 -328.5q0 -131 -6 -305t-12 -298t-6 -132q0 -12 2 -45t2 -50q0 -55 -33 -55q-12 0 -21.5 4t-14.5 15.5t-8 21.5t-5 28.5t-2 31.5v38 v39z" />
<glyph unicode="}" horiz-adv-x="571" d="M43 -219q0 39 35 43q104 10 152.5 72.5t48.5 216.5q0 39 -1.5 116.5t-1.5 118.5q0 213 99 291q-129 127 -129 350q0 41 15 156t15 184q0 154 -137 154q-16 0 -26.5 12t-10.5 29q0 39 37 39q111 0 165 -72t54 -184q0 -43 -5 -135.5t-5 -139.5q0 -125 34 -216t126 -150 q16 -12 16 -35q0 -27 -32 -37q-68 -23 -99 -96.5t-29.5 -165.5t-5 -196.5t-21.5 -189.5t-79.5 -141.5t-179.5 -56.5q-35 0 -35 33z" />
<glyph unicode="~" horiz-adv-x="806" d="M70 604q0 57 73.5 102.5t137.5 45.5q49 0 91 -32t67.5 -71t59 -70.5t66.5 -31.5q35 0 70 59.5t53 59.5q14 0 25.5 -12.5t11.5 -32.5q0 -66 -53.5 -114t-120.5 -48q-14 0 -39 4q-51 0 -90 46t-73 92t-70 46q-66 0 -125 -69q-16 -25 -39 -25q-18 0 -31.5 15.5t-13.5 35.5z " />
<glyph unicode="&#xa1;" horiz-adv-x="391" d="M143 76q0 8 4 20q14 35 66 35q27 0 47.5 -15.5t20.5 -43.5q0 -33 -18.5 -61.5t-49.5 -28.5q-25 0 -47.5 30.5t-22.5 63.5zM158 1264v8q0 53 51 53q27 0 49.5 -14.5t22.5 -30.5v-4q-8 -49 -17.5 -446.5t-9.5 -487.5v-37q0 -23 -9 -33t-38 -10h-9q-3 0 -6.5 1t-5.5 3t-3 4 t-2 6.5t-1 7.5t-1 10t-1 12v16v18q0 18 -4 398.5t-16 525.5z" />
<glyph unicode="&#xa2;" horiz-adv-x="821" d="M70 588q0 135 79.5 273t217.5 175q0 47 -1 117t-1 90q0 53 38 53q20 0 39 -15t19 -38q-4 -41 -4 -65q0 -2 4 -134q145 -12 170 -102l2 -12q0 -51 -45 -51q-18 0 -49 26.5t-76 36.5l4 -74q2 -37 2 -120q0 -154 -14 -498q92 2 177 52t120 118q8 20 26 20q14 0 26.5 -13 t12.5 -32q0 -14 -6 -26q-53 -94 -146.5 -161t-213.5 -69q-6 -111 -7 -137q0 -14 2.5 -41t2.5 -37q0 -37 -33 -37q-18 0 -29.5 6.5t-15.5 26t-5 33.5t-1 53v25v114q-47 6 -93.5 31t-94.5 72t-77.5 135t-29.5 205zM174 575q0 -115 35 -178q49 -100 156 -135q-2 68 -3 213 q0 94 2.5 236.5t2.5 220.5q-98 -45 -145.5 -145.5t-47.5 -211.5z" />
<glyph unicode="&#xa3;" horiz-adv-x="788" d="M61 641q0 8 7.5 15.5t22.5 12.5l26.5 9t31 8t25.5 6q-29 160 -29 281q0 133 65.5 219t211.5 86q102 0 190 -47t107 -111q0 -18 -11.5 -32.5t-27.5 -14.5q-12 0 -29 17q-106 100 -221 100q-86 0 -140 -62.5t-54 -181.5q0 -86 20 -235q74 8 111 8q76 0 258 -27q23 0 36 -13 t13 -32q0 -20 -14.5 -34.5t-38.5 -14.5q-186 27 -256 27q-23 0 -97 -4q18 -111 19 -177q0 -137 -15 -229q31 -8 93 -43l39 -27q22 -14 31 -19t26.5 -13.5t40.5 -13.5l59 -13q29 -6 51 -6q51 0 101.5 40t72.5 40q18 0 31.5 -15.5t13.5 -35.5q0 -57 -82.5 -90t-152.5 -33 q-92 0 -159.5 33.5t-111.5 72.5t-73 45q-39 -117 -117 -117q-33 0 -52.5 21.5t-19.5 48.5q0 57 82 103q39 211 39 335q0 53 -2 82l-67 -10q-54 0 -54 41z" />
<glyph unicode="&#xa4;" horiz-adv-x="1245" d="M154 160q0 43 67.5 121.5t67.5 83.5q-109 133 -109 319q0 174 96 313q2 2 3 7q0 12 -54.5 81.5t-54.5 110.5q0 25 18 45q14 16 37 16q80 0 197 -176q125 66 250 66q106 0 202 -55q6 0 36 42t71 82.5t74 40.5q20 0 40.5 -22.5t20.5 -52.5q0 -39 -61.5 -92.5t-61.5 -73.5 q0 -6 4 -15q104 -180 105 -348q0 -176 -117 -303q-2 -2 -2 -4q0 -8 72.5 -83t72.5 -113q0 -27 -28.5 -44.5t-48.5 -17.5q-31 0 -63 24.5t-52.5 53.5t-42 53.5t-31.5 24.5q-123 -39 -225 -39q-141 0 -244 67q-2 4 -14 -10t-30.5 -38.5l-40 -50.5t-48.5 -44t-49 -18 q-18 0 -37.5 13t-19.5 36zM309 696q0 -152 94.5 -269.5t247.5 -117.5q59 0 111 17q80 23 163 109.5t83 215.5q0 80 -33 156q-51 117 -141.5 172t-194.5 55q-168 0 -249 -99.5t-81 -238.5z" />
<glyph unicode="&#xa5;" horiz-adv-x="1085" d="M53 1247q0 25 19.5 41.5t44.5 16.5q33 0 57 -37q57 -92 122.5 -173t109.5 -124l135 -131q33 53 91 124l138 163q80 93 123 149q20 27 55 27q27 0 47.5 -14.5t20.5 -35.5q0 -12 -6 -20q-59 -72 -181 -203t-173.5 -198.5t-51.5 -114.5q197 0 299 6q33 0 51.5 -16.5 t18.5 -40.5q0 -33 -30 -46.5t-138 -13.5q-14 0 -84 3t-119 3v-131q55 0 132 -3t110 -3q43 0 67 2q63 0 64 -47q0 -33 -31 -46t-139 -13q-14 0 -84 3t-117 3q-2 -74 3 -184.5t5 -126.5q0 -76 -65 -76q-27 0 -46.5 16.5t-19.5 42.5q0 2 1 6t1 6q6 27 6 316q-100 0 -188 -7.5 t-90 -7.5q-35 0 -52.5 2.5t-32.5 14.5t-15 36.5t13 36t30.5 13.5t64.5 2h25q33 0 100.5 8t144.5 10v127q-100 0 -188 -7t-90 -7q-35 0 -52.5 2t-32.5 14.5t-15 36.5q0 43 50 54.5t193 13.5q84 0 135 2q0 2 1.5 8t1.5 8q-109 94 -215.5 214t-165 201t-58.5 95z" />
<glyph unicode="&#xa6;" horiz-adv-x="385" d="M145 221q0 6 2 10q6 20 6.5 52t5.5 47.5t29 17.5q29 0 43.5 -18.5t17.5 -41t7 -81.5q0 -43 -4 -126t-4 -116q0 -102 -2 -112q0 -8 4 -56v-10q0 -31 -14.5 -47t-34.5 -16q-33 0 -35 49q-2 0 -4 -6.5t-4 -6.5q-4 0 -4 60q0 12 1 82.5t1 107.5q0 78 -2 127t-5.5 65.5 t-3.5 18.5zM145 1143q0 6 2 10q6 20 6.5 52t5.5 47.5t29 17.5q29 0 43.5 -18.5t17.5 -41t7 -82.5q0 -43 -4 -125.5t-4 -115.5q0 -102 -2 -113q0 -8 4 -55v-10q0 -31 -14.5 -47.5t-34.5 -16.5q-33 0 -35 49q-2 0 -4 -6t-4 -6q-4 0 -4 59q0 12 1 83t1 108q0 78 -2 127 t-5.5 65.5t-3.5 18.5z" />
<glyph unicode="&#xa7;" horiz-adv-x="860" d="M86 512q0 129 104.5 207t223.5 82l-100 37q-28 10 -77 35.5t-66 48t-33.5 59.5t-16.5 84q0 115 99 181.5t212 66.5q184 0 279 -162q12 -18 12 -34.5t-11.5 -27t-23.5 -10.5q-16 0 -24 15q-102 135 -228 135q-61 0 -137 -46t-76 -114q0 -61 62 -94q106 -55 284 -131 q92 -43 164 -118t72 -175q0 -94 -56.5 -170t-136.5 -113q172 -106 172 -258q0 -141 -107.5 -228t-244.5 -87q-115 0 -209 67.5t-94 133.5q0 35 37 34q31 0 59 -24q98 -113 215 -113q68 0 153 61.5t85 149.5q0 43 -30 82t-86 69.5t-97 49t-105 41.5q-133 27 -203.5 101.5 t-70.5 164.5zM197 522q0 -53 44 -98t103 -70l96 -22q70 0 163 62.5t93 158.5q0 61 -91 108.5t-165 47.5q-80 0 -161.5 -48.5t-81.5 -138.5z" />
<glyph unicode="&#xa8;" horiz-adv-x="649" d="M84 1268q0 29 18.5 52t44.5 23q12 0 19 -2q61 -27 61 -77q0 -53 -71.5 -53t-71.5 57zM412 1270q0 27 19.5 50t49.5 26h8q31 0 49.5 -23t18.5 -51q0 -27 -17.5 -45.5t-50.5 -18.5q-39 0 -58 18.5t-19 43.5z" />
<glyph unicode="&#xa9;" horiz-adv-x="1095" d="M115 831q0 238 204 367q-14 14 -14 31q0 45 80 71.5t160 26.5q203 0 341 -124t138 -353q0 -145 -69.5 -267t-204.5 -175q-100 -41 -195 -41q-190 0 -315 141t-125 323zM190 813q0 -150 112 -262.5t265 -112.5q158 0 266.5 116t108.5 304q0 104 -37 181t-99.5 117 t-133 58.5t-152.5 18.5q-102 0 -147 -25l-11 -12v-8q0 -6 -2 -25.5t-2 -34.5q-168 -135 -168 -315zM324 834q0 86 67.5 168.5t169.5 82.5q55 0 104.5 -19t63.5 -34q14 -23 14 -39q0 -20 -32 -20q-10 0 -54.5 15.5t-99.5 15.5q-70 0 -113 -57.5t-43 -129.5q0 -51 45.5 -102 t116.5 -51q43 0 74 15t44 34.5t32.5 35t42.5 15.5q33 0 32 -23q0 -51 -79.5 -108.5t-155.5 -57.5q-80 0 -154.5 78.5t-74.5 180.5z" />
<glyph unicode="&#xaa;" horiz-adv-x="565" d="M74 887q0 76 40 161t124 85q78 0 139 -105q0 80 -33 144.5t-86 64.5q-41 0 -100 -53q-14 -10 -29 -10q-18 0 -32.5 12t-14.5 28q0 35 68.5 71t117.5 36q84 0 136.5 -83t52.5 -200q0 -78 -15 -137q51 -27 52 -100q0 -51 -33 -51q-51 0 -90 84q-74 -70 -170 -70 q-127 0 -127 123zM174 913q0 -41 35 -49q12 -6 27 -6q43 0 106 82q-45 82 -86 82q-82 0 -82 -109z" />
<glyph unicode="&#xab;" horiz-adv-x="931" d="M84 600q0 53 147 191q35 35 84.5 94t80 90t51 31t34 -18.5t13.5 -39.5q0 -31 -23 -43q-23 -16 -81 -83l-117 -137l-68 -83q43 -68 117 -143l121 -125q48 -49 49 -76q0 -25 -16.5 -45t-35.5 -20q-12 0 -184 186t-172 221zM426 598q0 12 11.5 31.5t25.5 38t38 43.5l38 40 q14 15 36 36l25 24q39 33 80 82t65.5 73.5t47.5 24.5q18 0 29.5 -16.5t11.5 -38.5q0 -33 -25 -51q-37 -27 -142.5 -136.5t-131.5 -146.5q43 -70 121 -144l130 -125q51 -50 52 -81q0 -20 -18.5 -35.5t-41.5 -15.5q-16 0 -28 12l-308 338q-16 18 -16 47z" />
<glyph unicode="&#xac;" horiz-adv-x="1191" d="M160 889q0 47 53 55q16 4 92 8q14 0 250 -4t363 -4q25 0 62.5 1t51.5 1q18 -8 19 -153q0 -135 -13 -258q-6 -41 -20 -41q-8 0 -24.5 14t-20.5 16q-16 10 -17 160v98q0 78 -6 78q-41 0 -120.5 -1t-127.5 -1q-37 0 -127 1t-122 1q-125 0 -148 -10h-4q-8 0 -26.5 4t-28.5 4 q-6 0 -18.5 -1t-18.5 -1q-49 0 -49 33z" />
<glyph unicode="&#xad;" horiz-adv-x="675" d="M59 557q0 16 6.5 25.5t23.5 12.5t32.5 4t48.5 1q338 0 383 4h6q39 0 39 -41q0 -39 -39 -39q-53 0 -115.5 -1t-105.5 -2t-47 -1h-80q-20 0 -51 -2t-41 -2q-60 0 -60 41z" />
<glyph unicode="&#xae;" horiz-adv-x="1030" d="M76 813q0 236 209 365q-23 18 -23 55q0 47 77 70.5t161 23.5q209 0 348 -118.5t139 -348.5q0 -164 -73.5 -299t-213.5 -174q-86 -25 -163 -25q-203 0 -332 136.5t-129 314.5zM164 819q0 -147 112.5 -260t270.5 -113q51 0 106.5 18.5t113.5 59.5t96 124t38 196 q0 197 -104.5 291t-251.5 94q-129 0 -205 -43v-27v-2q2 -2 2 -4t-8 -18.5t-8 -30.5q-162 -113 -162 -285zM352 866q0 68 1 99.5t8.5 69.5t22.5 52.5t42 24.5t70 10q102 0 172.5 -51t70.5 -153q0 -76 -51 -113q-12 -8 -39.5 -13.5t-65.5 -7.5t-44 -2q23 -12 59.5 -37.5 t64 -43t37.5 -21.5q20 -14 21 -43q0 -20 -12.5 -36.5t-32.5 -16.5q-31 0 -240 186q8 -135 8 -176q0 -18 -49 -19q-31 0 -33 15q-10 147 -10 276zM430 938q0 -4 1 -12t1 -15l4 -65h45q168 0 168 94q0 43 -43 71.5t-100 28.5q-76 0 -76 -102z" />
<glyph unicode="&#xb0;" horiz-adv-x="417" d="M70 1196q0 66 59 100l-2 4v7q0 35 63.5 34.5t103.5 -36t40 -103.5q0 -98 -74 -123q-35 -10 -59 -10q-59 0 -95 38t-36 89zM131 1200q0 -27 19.5 -46t50.5 -19q70 0 69 67q0 23 -2 37q-20 45 -75 45q-14 0 -31 -4q12 -12 12 -18q-43 -21 -43 -62z" />
<glyph unicode="&#xb1;" horiz-adv-x="821" d="M84 211q0 14 5 22.5t19.5 11.5t26.5 4t37 1h41h166q59 0 135 -2t104 -2q55 0 87 2q45 0 45 -31q0 -43 -88 -43q-8 0 -125 4t-164 4q-76 0 -128 -2t-76 -4t-32 -2q-53 0 -53 37zM84 741q0 14 5 22.5t19.5 11.5t26.5 4t37 1h41h174v54q0 59 -2 118.5t-2 61.5v12v11v11 q0 7 1 9t2 7t3 7l5 5q3 3 7.5 4t9.5 2t11 1q37 0 45 -32q6 -25 10 -263v-10q53 -2 137 -2q16 0 45 1t46 1q45 0 45 -30q0 -43 -88 -43q-129 0 -187 6q0 -29 -3 -100.5t-3 -106.5q0 -37 2 -55q0 -53 -47 -54q-23 0 -32 12.5t-11 29t-2 59.5q0 6 3 77.5t3 139.5 q-84 0 -139.5 -2t-79 -4t-29.5 -2q-53 -1 -53 36z" />
<glyph unicode="&#xb2;" horiz-adv-x="370" d="M59 967q0 59 82 135q6 6 21.5 18.5t21.5 18.5t15.5 17t14.5 19.5t8 21.5t3 28q0 43 -49 43q-53 0 -53 -33q0 -6 6 -14q2 -2 2 -7q0 -6 -18.5 -13t-24.5 -7q-29 6 -29 37q0 35 35 65.5t84 30.5q51 0 85 -28.5t34 -81.5q0 -45 -22.5 -81t-70.5 -83t-67 -68q14 2 88 8t103 6 q14 0 14 -32q0 -14 -7 -24.5t-22.5 -13.5t-24.5 -4t-29.5 0t-22.5 1h-32h-36q-12 0 -32.5 1t-31 3t-22.5 7t-17.5 12.5t-5.5 17.5z" />
<glyph unicode="&#xb3;" horiz-adv-x="352" d="M47 954q0 33 29 33q10 0 34.5 -11t45.5 -11q47 0 69.5 20.5t22.5 51t-23.5 52t-54.5 21.5q-10 0 -26.5 -9t-22.5 -9q-16 0 -29.5 14t-13.5 31q0 31 98 116q-10 0 -29.5 -2t-35 -3t-27.5 -1q-20 0 -21 37q0 25 15 25q25 0 92.5 1t91.5 1q14 0 14 -41q0 -12 -13 -28.5 t-41.5 -43.5t-37.5 -37q57 -4 91 -41t34 -82q0 -57 -45 -96t-108 -39q-31 0 -70 13t-39 38z" />
<glyph unicode="&#xb4;" horiz-adv-x="319" d="M74 1266q0 10 4 16q4 4 7 15.5t19.5 30t59.5 61.5q41 41 72 41q14 0 24 -11.5t10 -23.5q0 -8 -20.5 -48t-56 -83t-70.5 -43q-18 0 -33.5 14.5t-15.5 30.5z" />
<glyph unicode="&#xb5;" horiz-adv-x="919" d="M86 788q0 115 14 136q14 25 58 24q4 0 13 -1t15 -1q39 -4 39 -358q0 -51 -1 -114.5t-1 -65.5q0 -39 20.5 -99.5t85 -123t158.5 -62.5q135 0 186.5 103.5t51.5 283.5q0 45 -4 136t-4 120q0 109 19.5 139.5t66.5 30.5q41 0 41 -172q0 -47 -3 -142.5t-3 -134.5q0 -18 2 -110 t2 -150q0 -238 -39 -237q-55 8 -66 182q-2 -6 -8 -17.5t-28.5 -39t-49 -49t-75 -39t-103.5 -17.5q-164 0 -229 133l-11 29l-8 -16q-12 -45 -12 -187v-135q0 -98 -10 -139t-47 -41q-61 0 -62 256q0 35 1 97.5t1 88.5q0 90 -5 364.5t-5 327.5z" />
<glyph unicode="&#x3bc;" horiz-adv-x="919" d="M86 788q0 115 14 136q14 25 58 24q4 0 13 -1t15 -1q39 -4 39 -358q0 -51 -1 -114.5t-1 -65.5q0 -39 20.5 -99.5t85 -123t158.5 -62.5q135 0 186.5 103.5t51.5 283.5q0 45 -4 136t-4 120q0 109 19.5 139.5t66.5 30.5q41 0 41 -172q0 -47 -3 -142.5t-3 -134.5q0 -18 2 -110 t2 -150q0 -238 -39 -237q-55 8 -66 182q-2 -6 -8 -17.5t-28.5 -39t-49 -49t-75 -39t-103.5 -17.5q-164 0 -229 133l-11 29l-8 -16q-12 -45 -12 -187v-135q0 -98 -10 -139t-47 -41q-61 0 -62 256q0 35 1 97.5t1 88.5q0 90 -5 364.5t-5 327.5z" />
<glyph unicode="&#xb6;" horiz-adv-x="1132" d="M100 1006q0 96 76 169.5t198 112.5t248 57.5t250 18.5q258 0 258 -61q0 -35 -94 -35q-20 0 -49 2t-35 2q-8 0 -8 -2v-33q0 -41 -3 -332t-3 -434q0 -152 13.5 -284t13.5 -306q0 -72 -5.5 -106.5t-12.5 -44t-23.5 -9.5t-29.5 12.5t-15 33.5q-4 29 -12.5 278.5t-8.5 429.5 q0 45 8 217t8 273q0 305 -102 305q-55 0 -89 -13.5t-48 -46t-17.5 -61.5t-3.5 -86q0 -20 4.5 -146t7.5 -305.5t3 -326.5q0 -559 -51 -559q-37 0 -49.5 16t-12.5 53q0 14 3 57.5t3 71.5l-6 666q-8 0 -23.5 2t-58.5 11t-82 25.5t-87 48.5t-83 74t-58.5 108.5t-23.5 146.5z" />
<glyph unicode="&#xb7;" horiz-adv-x="288" d="M49 645q0 41 25.5 74t68.5 39h11q70 2 73 -150q0 -45 -29.5 -73.5t-62.5 -28.5q-20 0 -31.5 7t-15.5 15.5t-12 30t-15 35.5q-12 24 -12 51z" />
<glyph unicode="&#xb8;" horiz-adv-x="886" d="M311 -289q0 18 10.5 31.5t22.5 13.5q18 0 68.5 -42t76.5 -42q16 0 35 18.5t19 43.5q0 37 -82 127t-82 149q0 29 13.5 52.5t33.5 23.5q18 0 34.5 -21.5t18.5 -58.5q2 -23 43 -70t82 -105t41 -107q0 -53 -46 -97.5t-105 -44.5q-68 0 -125.5 41t-57.5 88z" />
<glyph unicode="&#xb9;" horiz-adv-x="366" d="M84 1227q0 18 52 61t83 43q29 0 29 -26q0 -100 -4 -162t-4 -121h26q29 0 29 -37q0 -14 -11.5 -21.5t-22.5 -8.5t-36 -1h-12q-16 0 -55 13h-21q-12 0 -12 20q0 37 61 37h2q0 39 -1 76t-2 63.5t-1 67.5q-61 -35 -69 -35q-12 0 -21.5 9.5t-9.5 21.5z" />
<glyph unicode="&#xba;" horiz-adv-x="624" d="M119 1110q0 27 6 56.5t22.5 74.5t60.5 73.5t107 28.5q33 0 72 -12q6 6 16 6q8 0 15 -6l14 -16h4q0 -2 7.5 -11.5t17.5 -20.5t14 -19q4 2 12 2q16 0 30.5 -20.5t14.5 -33.5q0 -10 -8 -10q-4 0 -10 5t-16 5q23 -59 22 -116q0 -88 -56 -139.5t-134 -51.5q-80 0 -145.5 48 t-65.5 157zM201 1128q0 -59 32.5 -102t96.5 -43q59 0 90 45t31 109q0 31 -7 57q-41 -16 -47 -16q-4 0 -8 4q-27 8 -27 41q0 8 5 37q-29 14 -58 14q-49 0 -78.5 -44.5t-29.5 -101.5zM406 1243q0 -12 14 -12h6l-18 24q-2 -4 -2 -12z" />
<glyph unicode="&#xbb;" horiz-adv-x="905" d="M74 297q0 20 18 33q33 25 167 150.5t153 150.5q-25 33 -90.5 84t-81.5 67q-166 160 -166 176.5t16 29.5t35 13q12 0 25 -8l362 -329q16 -20 16 -39q0 -12 -10 -27.5t-28 -33.5l-32 -32q-15 -14 -32.5 -28.5t-19.5 -16.5l-67 -59l-75 -67l-64 -56l-54 -44q-19 -15 -25 -15 q-18 0 -32.5 16.5t-14.5 34.5zM416 958q0 16 16.5 29.5t34.5 13.5q12 0 25 -8l360 -329q16 -20 16 -39q0 -37 -123 -138q-39 -35 -105 -101l-111 -108q-44 -42 -56 -42q-18 0 -31.5 16t-13.5 35q0 23 18 32q33 23 167.5 152t154.5 154q-23 33 -95.5 87t-88.5 70l-41 40 l-47 45l-39 38q-20 20 -30.5 33.5t-10.5 19.5z" />
<glyph unicode="&#xbc;" horiz-adv-x="884" d="M66 967q0 18 52 61t83 43q29 0 28 -27q0 -29 4 -282h15q29 0 28 -37q0 -12 -5 -19.5t-20 -10.5t-23 -3h-27q-14 0 -62 15h-20q-12 0 -13 20q0 37 62 37h2q0 39 -1 76t-2 63.5t-1 67.5q-61 -35 -70 -35q-12 0 -21 9.5t-9 21.5zM86 -10q2 10 34 89t95 221l133 286l219 473 q10 31 39 31q16 0 30.5 -13.5t14.5 -29.5l-190 -414l-121 -253l-90 -197l-60 -127q-29 -58 -44 -79.5t-27 -21.5q-14 0 -23.5 11.5t-9.5 23.5zM436 217q0 115 25 213q25 12 47 12q39 0 39 -24q-12 -92 -18.5 -117t-8.5 -47q61 -8 107 -8q6 74 20 168q0 31 43 30q51 0 51 -34 l-18 -160l78 10q10 0 17 -14.5t7 -30.5q0 -41 -45 -41h-65q-4 -45 -4 -98v-45q0 -23 -16.5 -35t-39.5 -12q-43 0 -43 32q0 63 9 162q-57 4 -146 4q-39 0 -39 35z" />
<glyph unicode="&#xbd;" horiz-adv-x="792" d="M74 995q0 18 52 61.5t83 43.5q29 0 29 -27q0 -29 4 -282h14q29 0 29 -37q0 -12 -5.5 -19.5t-20.5 -10.5t-22 -3h-28q-14 0 -62 14h-20q-12 0 -12 21q0 37 61 37h2q0 39 -1 75.5t-2 63t-1 67.5q-61 -35 -70 -34q-12 0 -21 9t-9 21zM76 -14q2 10 33.5 89t95.5 221l133 286 q203 416 233 487q10 31 39 31q16 0 30.5 -13.5t14.5 -29.5q0 -4 -204 -428l-121 -253l-90 -197l-60 -127q-29 -58 -44 -79.5t-27 -21.5q-14 0 -23.5 11.5t-9.5 23.5zM416 41q0 59 82 135q94 86 94 146q0 39 -43 38q-18 0 -34.5 -9t-16.5 -21v-4q2 -2 2 -7q0 -6 -18.5 -13 t-24.5 -7q-29 6 -29 37q0 33 33 63.5t84 30.5q49 0 89 -26.5t42 -73.5q0 -55 -27.5 -99.5t-84 -98.5t-70.5 -73q14 2 87.5 8.5t102.5 6.5q14 0 14 -33q0 -14 -7 -24.5t-22.5 -13.5t-24.5 -4t-29.5 0t-22.5 1h-32h-36q-12 0 -32.5 1t-30.5 3t-22.5 7t-17.5 12.5t-5 17.5z" />
<glyph unicode="&#xbe;" horiz-adv-x="894" d="M76 674q0 33 28 33q10 0 35 -11.5t45 -11.5q47 0 69.5 20.5t22.5 51t-23.5 52t-53.5 21.5q-10 0 -26.5 -9t-22.5 -9q-16 0 -30 14.5t-14 30.5q0 31 99 117q-10 0 -29.5 -2t-35 -3t-27.5 -1q-20 0 -21 37q0 25 14 24q25 0 92.5 1t92.5 1q14 0 14 -41q0 -12 -13 -28.5 t-42 -43t-37 -36.5q57 -4 91 -41t34 -82q0 -57 -45 -96t-109 -39q-31 0 -69.5 13t-38.5 38zM129 20q2 10 34 89t95 222l133 285q174 342 209 422q10 31 39 31q16 0 30.5 -13.5t14.5 -29.5q0 -6 -4 -14q-156 -295 -283 -570l-171 -365q-44 -91 -64 -91q-14 0 -23.5 11 t-9.5 23zM467 252q0 104 25 203q25 12 47 12q39 0 39 -25q-12 -92 -18.5 -112.5t-8.5 -40.5q66 -8 106 -8q2 23 9.5 78t11.5 79q0 31 43 31q51 0 51 -35l-18 -149l77 10q8 0 16.5 -14.5t8.5 -30.5q0 -41 -45 -41h-63q-4 -39 -5.5 -82t-1.5 -62.5t-5 -39t-16 -25.5t-34 -6 q-43 0 -43 33q0 70 8 186q-57 4 -145 4q-39 0 -39 35z" />
<glyph unicode="&#xbf;" horiz-adv-x="950" d="M111 150q0 84 36.5 154.5t89.5 123.5l105 104q53 51 94 117t45 139q0 10 1 32t2 29t6.5 18.5t17.5 14.5t33 3q25 0 32 -8.5t7 -36.5q0 -4 -1 -21.5t-1 -30.5q-2 -86 -39 -159.5t-89 -125.5l-105 -104q-52 -51 -88 -115.5t-36 -138.5q0 -137 79 -203.5t185 -66.5 q227 0 260 197q12 55 60 55q25 0 42 -19.5t17 -50.5q0 -98 -98 -196.5t-291 -98.5q-104 0 -179 35t-114 94.5t-55 123t-16 135.5zM457 1073q0 84 71 84q29 0 46.5 -20.5t17.5 -53.5q0 -18 -6 -34q-23 -47 -70 -48q-23 0 -41 18.5t-18 53.5z" />
<glyph unicode="&#xc0;" horiz-adv-x="1247" d="M84 16q16 225 84 467h-6q-66 0 -66 41q0 43 66 43h33q154 465 407 719q16 20 62 21q66 0 65 -43q115 -147 192 -365l150 -442q74 -225 170 -371q8 -16 8 -29q0 -23 -14 -41t-35 -18q-76 0 -223 446q-6 23 -10 33q-106 -20 -260 -20q-84 0 -242 10t-174 10 q-86 -264 -119 -461q0 -41 -45 -41q-43 0 -43 41zM322 567h618q-12 35 -41 158q-20 88 -52 167t-62.5 129t-61.5 86t-50.5 52.5t-25.5 16.5q-20 0 -65 -46q-135 -223 -260 -563zM510 1585q0 14 13.5 28.5t33.5 14.5q18 0 43 -8t56.5 -23.5t48.5 -21.5q135 -55 135 -98 q0 -14 -13 -29q-16 -23 -41 -23q-16 0 -35.5 9.5t-45 25t-41.5 23.5l-31 13l-32 14q-11 5 -27.5 13.5t-25.5 14.5t-19.5 14.5t-14.5 16.5t-4 16z" />
<glyph unicode="&#xc1;" horiz-adv-x="1247" d="M84 16q16 225 84 467h-6q-66 0 -66 41q0 43 66 43h33q154 465 407 719q16 20 62 21q66 0 65 -43q115 -147 192 -365l150 -442q74 -225 170 -371q8 -16 8 -29q0 -23 -14 -41t-35 -18q-76 0 -223 446q-6 23 -10 33q-106 -20 -260 -20q-84 0 -242 10t-174 10 q-86 -264 -119 -461q0 -41 -45 -41q-43 0 -43 41zM322 567h618q-12 35 -41 158q-20 88 -52 167t-62.5 129t-61.5 86t-50.5 52.5t-25.5 16.5q-20 0 -65 -46q-135 -223 -260 -563zM467 1481q0 23 14.5 37t59.5 33.5t53 23.5l42 23l43 25q15 9 34.5 16.5t34.5 7.5q37 0 36 -43 q0 -45 -118.5 -108.5t-155.5 -63.5q-33 0 -41 32q-2 7 -2 17z" />
<glyph unicode="&#xc2;" horiz-adv-x="1257" d="M84 16q16 225 84 467h-6q-66 0 -66 41q0 43 66 43h33q154 465 407 719q16 20 62 21q66 0 65 -43q115 -147 192 -365l150 -442q74 -225 170 -371q8 -16 8 -29q0 -23 -14 -41t-35 -18q-76 0 -223 446q-6 23 -10 33q-106 -20 -260 -20q-84 0 -242 10t-174 10 q-86 -264 -119 -461q0 -41 -45 -41q-43 0 -43 41zM322 567h618q-12 35 -41 158q-20 88 -52 167t-62.5 129t-61.5 86t-50.5 52.5t-25.5 16.5q-20 0 -65 -46q-135 -223 -260 -563zM344 1491q0 33 90 78t121 45q16 0 28.5 -12.5t12.5 -32.5q0 -14 -96.5 -70.5t-121 -56.5 t-32.5 31q-2 6 -2 18zM666 1573q0 8 2 12q8 29 32 29q14 0 34 -9.5t47.5 -24.5t41.5 -21q51 -25 73 -41.5t19 -34.5q0 -14 -11 -27.5t-27 -13.5q-33 0 -97 45q-20 14 -46 29l-38 21q-12 7 -21 16.5t-9 19.5z" />
<glyph unicode="&#xc3;" horiz-adv-x="1239" d="M84 16q16 225 84 467h-6q-66 0 -66 41q0 43 66 43h33q154 465 407 719q16 20 62 21q66 0 65 -43q115 -147 192 -365l150 -442q74 -225 170 -371q8 -16 8 -29q0 -23 -14 -41t-35 -18q-76 0 -223 446q-6 23 -10 33q-106 -20 -260 -20q-84 0 -242 10t-174 10 q-86 -264 -119 -461q0 -41 -45 -41q-43 0 -43 41zM322 567h618q-12 35 -41 158q-20 88 -52 167t-62.5 129t-61.5 86t-50.5 52.5t-25.5 16.5q-20 0 -65 -46q-135 -223 -260 -563zM330 1536q0 53 66.5 94t125.5 41q45 0 83 -28.5t60.5 -64.5t53.5 -64.5t61.5 -28.5t62 54 t48.5 54q12 0 22.5 -11t10.5 -30q0 -59 -47.5 -103t-106.5 -44q-27 0 -39 4q-37 0 -67.5 26.5t-49 57.5t-44 57.5t-52.5 26.5q-57 0 -115 -64q-16 -25 -36 -24q-14 0 -25.5 14.5t-11.5 32.5z" />
<glyph unicode="&#xc4;" horiz-adv-x="1239" d="M84 16q16 225 84 467h-6q-66 0 -66 41q0 43 66 43h33q154 465 407 719q16 20 62 21q66 0 65 -43q115 -147 192 -365l150 -442q74 -225 170 -371q8 -16 8 -29q0 -23 -14 -41t-35 -18q-76 0 -223 446q-6 23 -10 33q-106 -20 -260 -20q-84 0 -242 10t-174 10 q-86 -264 -119 -461q0 -41 -45 -41q-43 0 -43 41zM322 567h618q-12 35 -41 158q-20 88 -52 167t-62.5 129t-61.5 86t-50.5 52.5t-25.5 16.5q-20 0 -65 -46q-135 -223 -260 -563zM434 1544q0 63 66 72h8q35 0 60.5 -28.5t25.5 -55.5q0 -29 -24.5 -51.5t-51.5 -22.5 q-84 0 -84 86zM764 1536q0 31 28.5 56.5t65.5 29.5h8q31 0 51.5 -35t20.5 -61q0 -29 -35 -53.5t-57 -24.5q-31 0 -56.5 28.5t-25.5 59.5z" />
<glyph unicode="&#xc5;" horiz-adv-x="1247" d="M84 16q16 225 84 467h-6q-66 0 -66 41q0 43 66 43h33q154 465 407 719q16 20 62 21q66 0 65 -43q115 -147 192 -365l150 -442q74 -225 170 -371q8 -16 8 -29q0 -23 -14 -41t-35 -18q-76 0 -223 446q-6 23 -10 33q-106 -20 -260 -20q-84 0 -242 10t-174 10 q-86 -264 -119 -461q0 -41 -45 -41q-43 0 -43 41zM322 567h618q-12 35 -41 158q-20 88 -52 167t-62.5 129t-61.5 86t-50.5 52.5t-25.5 16.5q-20 0 -65 -46q-135 -223 -260 -563zM457 1372q0 78 67 119q0 2 -1 5t-1 5q0 43 76 43q72 0 119 -42t47 -120q0 -119 -86 -145 q-37 -12 -68 -12q-70 0 -111.5 44t-41.5 103zM528 1378q0 -31 22.5 -53t57.5 -22q84 0 84 79q0 8 -4 41q-25 53 -88 54q-16 0 -37 -4q14 -18 15 -23q-50 -23 -50 -72z" />
<glyph unicode="&#xc6;" horiz-adv-x="1980" d="M84 16q16 225 84 467h-6q-66 0 -66 41q0 43 66 43h33q154 465 407 719q16 20 62 21q66 0 65 -43q33 -43 61.5 -87t55.5 -102l43 -92q16 -35 42 -107l34 -98l35 -111q28 -87 32 -102q29 90 103 152q-137 70 -138 256q0 135 70 219t168 112.5t227 28.5q231 0 396 -65 q45 -20 45 -51q0 -29 -41 -29q-2 0 -21.5 4t-53.5 10l-76 13q-42 7 -99.5 11.5t-112.5 4.5q-399 0 -399 -240q0 -168 133 -219q80 29 182 29q94 0 190.5 -23.5t96.5 -56.5q0 -35 -79 -44t-237 -9q-47 0 -69 2q-217 -66 -217 -277q0 -53 76 -198q90 -74 327 -74q127 0 259 55 t163 105q16 25 39 24q41 0 41 -43q0 -20 -14 -41q-68 -96 -208.5 -148.5t-260.5 -52.5q-166 0 -275 35q-2 -23 -15 -40t-32 -17q-51 0 -121 168q-57 72 -69 180l-43 131q-106 -20 -260 -20q-84 0 -242 10t-174 10q-86 -264 -119 -461q0 -41 -45 -41q-43 0 -43 41zM322 567 h618q-12 35 -41 158q-20 88 -52 167t-62.5 129t-61.5 86t-50.5 52.5t-25.5 16.5q-20 0 -65 -46q-135 -223 -260 -563z" />
<glyph unicode="&#xc7;" horiz-adv-x="1103" d="M33 590q0 240 125 424q84 129 222 203.5t294 74.5q186 0 354 -110q25 -16 25 -41q0 -18 -16.5 -33.5t-37.5 -15.5q-23 0 -41 18q-137 88 -286 88q-178 0 -320.5 -111.5t-175.5 -285.5q-23 -113 -22 -219q0 -248 128 -364t326 -116q219 0 424 115q6 2 15 2q29 0 28 -33 q0 -78 -122 -137t-302 -63q16 -29 61.5 -56.5t76 -60.5t30.5 -88q0 -66 -49 -114t-119 -48q-59 0 -108 40t-49 73q0 37 34 37q6 0 50.5 -27t85.5 -27q25 0 47 15.5t22 36.5q0 18 -44 44.5t-97 72.5t-68 108q-240 33 -362 203q-129 176 -129 395z" />
<glyph unicode="&#xc8;" horiz-adv-x="1019" d="M10 918q0 354 477 354q242 0 406 -64q45 -18 45 -47q0 -31 -43 -31q-2 0 -21.5 4.5t-54.5 10.5l-79 13q-44 7 -102 11.5t-116 4.5q-408 0 -407 -236q0 -162 137 -211q82 27 186 27q98 0 196.5 -22.5t98.5 -55.5t-81 -42t-242 -9q-49 0 -72 2q-223 -66 -223 -271 q0 -74 29.5 -127t67.5 -78.5t102.5 -40t106.5 -16.5t107 -2q133 0 267.5 53.5t167.5 102.5q14 23 38 22q18 0 30.5 -11t12.5 -29.5t-14 -39.5q-70 -96 -214 -146t-269 -50q-526 0 -527 375q0 205 130 303q-140 70 -140 246zM559 1589q0 16 24.5 28.5t43.5 12.5 q31 0 141.5 -63.5t110.5 -104.5q0 -18 -21 -30q-25 -16 -49 -17q-18 0 -34.5 9.5t-39 27.5t-33.5 25q-8 4 -30 17l-39 24q-16 10 -34.5 23t-29 25.5t-10.5 22.5z" />
<glyph unicode="&#xc9;" horiz-adv-x="1011" d="M10 918q0 354 477 354q242 0 406 -64q45 -18 45 -47q0 -31 -43 -31q-2 0 -21.5 4.5t-54.5 10.5l-79 13q-44 7 -102 11.5t-116 4.5q-408 0 -407 -236q0 -162 137 -211q82 27 186 27q98 0 196.5 -22.5t98.5 -55.5t-81 -42t-242 -9q-49 0 -72 2q-223 -66 -223 -271 q0 -74 29.5 -127t67.5 -78.5t102.5 -40t106.5 -16.5t107 -2q133 0 267.5 53.5t167.5 102.5q14 23 38 22q18 0 30.5 -11t12.5 -29.5t-14 -39.5q-70 -96 -214 -146t-269 -50q-526 0 -527 375q0 205 130 303q-140 70 -140 246zM461 1460q0 18 97 94t136 76q16 0 26.5 -13 t10.5 -34q0 -25 -18 -43q-37 -37 -97.5 -77t-101.5 -40q-14 0 -27 7q-26 14 -26 30z" />
<glyph unicode="&#xca;" horiz-adv-x="1034" d="M10 918q0 354 477 354q242 0 406 -64q45 -18 45 -47q0 -31 -43 -31q-2 0 -21.5 4.5t-54.5 10.5l-79 13q-44 7 -102 11.5t-116 4.5q-408 0 -407 -236q0 -162 137 -211q82 27 186 27q98 0 196.5 -22.5t98.5 -55.5t-81 -42t-242 -9q-49 0 -72 2q-223 -66 -223 -271 q0 -74 29.5 -127t67.5 -78.5t102.5 -40t106.5 -16.5t107 -2q133 0 267.5 53.5t167.5 102.5q14 23 38 22q18 0 30.5 -11t12.5 -29.5t-14 -39.5q-70 -96 -214 -146t-269 -50q-526 0 -527 375q0 205 130 303q-140 70 -140 246zM340 1468q0 43 95 110t130 67q27 0 27 -29 q0 -41 -77 -107.5t-128 -66.5q-10 0 -27 4q-20 6 -20 22zM702 1587q0 12 7 25q8 20 28 20q47 0 116 -62.5t69 -107.5q0 -35 -25 -35q-14 0 -32.5 12.5t-46 40t-32.5 29.5q-10 8 -34.5 22.5t-37 27t-12.5 28.5z" />
<glyph unicode="&#xcb;" horiz-adv-x="1038" d="M37 918q0 354 477 354q242 0 406 -64q45 -18 45 -47q0 -31 -43 -31q-2 0 -21.5 4.5t-54.5 10.5l-79 13q-44 7 -102.5 11.5t-115.5 4.5q-408 0 -408 -236q0 -162 138 -211q82 27 186 27q98 0 196.5 -22.5t98.5 -55.5t-81 -42t-243 -9q-49 0 -71 2q-223 -66 -224 -271 q0 -74 30 -127t67.5 -78.5t102.5 -40t106.5 -16.5t107.5 -2q133 0 267 53.5t167 102.5q14 23 39 22q18 0 30.5 -11t12.5 -29.5t-14 -39.5q-70 -96 -214.5 -146t-269.5 -50q-526 0 -526 375q0 205 129 303q-139 70 -139 246zM270 1432q0 31 20.5 57.5t49.5 26.5q12 0 18 -3 q68 -29 68 -86t-78 -56.5t-78 61.5zM629 1434q0 31 20.5 56.5t55.5 27.5h8q33 0 53 -25t20 -57q0 -29 -18 -48.5t-55 -19.5q-41 0 -62.5 19.5t-21.5 46.5z" />
<glyph unicode="&#xcc;" horiz-adv-x="450" d="M94 43q0 37 80 51q4 0 4 154v338q0 127 7.5 327.5t7.5 233.5q0 45 -27 56t-27 54q0 35 121 35q57 0 98 -18.5t41 -42.5q0 -31 -69 -57q-49 -20 -49 -582q0 -123 9 -313.5t19 -192.5q90 -6 90 -57q0 -33 -26 -33h-36h-50q-20 0 -52 1t-53.5 4t-43 8t-33 13.5t-11.5 20.5z M104 1655q0 14 13.5 23.5t27.5 9.5q35 0 56 -37q20 -35 39.5 -56.5t31 -26.5t17.5 -15.5t6 -28.5q0 -20 -15.5 -37t-33.5 -17q-10 0 -17 7q-10 8 -12 10t-8 9t-10 14.5t-20 28.5l-36 48q-39 52 -39 68z" />
<glyph unicode="&#xcd;" horiz-adv-x="464" d="M90 45q0 37 80 51q4 0 4 154v338q0 127 7 327.5t7 233.5q0 45 -26.5 56.5t-26.5 54.5q0 35 121 34q57 0 98 -18.5t41 -42.5q0 -31 -69 -57q-49 -20 -50 -582q0 -123 9.5 -313.5t19.5 -192.5q90 -6 90 -57q0 -33 -26 -33h-36h-50q-20 0 -52 1t-53.5 4t-43 8t-33 13.5 t-11.5 20.5zM168 1477q0 10 4 16q4 4 7 15.5t19.5 29.5t59.5 61q41 41 72 41q14 0 24.5 -11t10.5 -23q0 -8 -20.5 -48t-56.5 -83t-71 -43q-18 0 -33.5 14.5t-15.5 30.5z" />
<glyph unicode="&#xce;" horiz-adv-x="534" d="M76 1419q0 10 6 19q29 41 108.5 130t94.5 89q10 0 22 -8.5t25.5 -23.5t22.5 -28l21 -27q11 -15 13 -18l51 -55q31 -33 44.5 -49t13.5 -31q0 -16 -12.5 -28.5t-28.5 -12.5q-4 0 -38 36l-77 82q-43 46 -61 62q-25 -25 -64 -72.5l-66.5 -78.5t-42 -31t-23.5 14.5t-9 30.5z M117 41q0 37 80 51q4 0 4 154v338q0 127 7 327.5t7 233.5q0 45 -26.5 56t-26.5 54q0 35 121 35q57 0 98 -18.5t41 -42.5q0 -31 -70 -58q-49 -20 -49 -581q0 -123 9.5 -313.5t19.5 -192.5q90 -6 90 -57q0 -33 -27 -33h-36h-50q-20 0 -52 1t-53.5 4t-43 8t-32.5 13.5t-11 20.5 z" />
<glyph unicode="&#xcf;" d="M49 1444q0 27 17.5 49.5t42.5 22.5q10 0 16 -3q57 -25 57 -73.5t-67 -48.5q-66 0 -66 53zM117 29q0 37 80 51q4 0 4 153v338q0 127 7 328t7 234q0 45 -26.5 56t-26.5 54q0 35 121 35q57 0 98 -18.5t41 -42.5q0 -31 -70 -58q-49 -20 -49 -581q0 -123 9.5 -313.5 t19.5 -192.5q90 -6 90 -58q0 -33 -27 -32h-36h-50q-20 0 -52 1t-53.5 4t-43 8t-32.5 13.5t-11 20.5zM352 1446q0 27 18.5 48.5t47.5 23.5h6q29 0 46 -20.5t17 -49.5q0 -59 -63 -59q-72 0 -72 57z" />
<glyph unicode="&#xd0;" horiz-adv-x="1275" d="M-6 1180q0 31 45 59.5t145.5 48t235.5 19.5q207 0 367.5 -64.5t253 -167t138.5 -215t46 -225.5q0 -150 -59.5 -273.5t-153.5 -199.5t-207 -118t-225 -42q-127 0 -191 59h-4q-2 2 -4 2q-6 0 -30.5 -6t-39.5 -6q-57 0 -59 80q0 18 -1 62.5t-1 68.5q0 113 4 367 q-12 0 -29.5 -2t-25.5 -2q-76 0 -76 47q0 35 27.5 43t101.5 8h4l6 465q-53 -12 -106.5 -31.5t-81 -34t-29.5 -14.5q-18 0 -34.5 23.5t-16.5 48.5zM356 313q0 -33 6.5 -57.5t10.5 -29.5t21.5 -23.5t29.5 -32.5q35 -41 156 -41q72 0 145.5 16.5t147 54.5t131 93t93.5 139 t36 184q0 229 -191.5 410.5t-470.5 181.5q-39 0 -104 -4l-9 -481q229 0 250 4h6q23 0 35.5 -14.5t12.5 -32.5q0 -47 -48 -47q-80 0 -158.5 -2t-99.5 -2v-215v-101z" />
<glyph unicode="&#xd1;" horiz-adv-x="1015" d="M41 45q31 428 31 774q0 254 -15 404q0 31 23.5 50t60.5 19q57 0 88 -49q29 -49 103 -186l154 -288l160 -298q79 -147 136.5 -241.5t67.5 -94.5q2 35 2 156q0 215 -9 508t-18 368q-2 10 -2 39q0 78 68 78q84 0 84 -98q0 -55 -27 -56q-16 0 -16 -784q0 -45 1 -120.5 t1 -104.5q0 -131 -82 -131q-53 0 -84 51q-80 131 -229 401l-266 492q-116 221 -105 221q-6 0 -6 -154q0 -55 1 -223t1 -262q0 -322 -10 -446q-6 -70 -60 -70q-43 0 -53 45zM231 1487q0 53 71 97t132 44q47 0 88 -30.5t64.5 -67.5t56.5 -67.5t65.5 -30.5t65.5 57t51 57 q14 0 25.5 -12t11.5 -31q0 -63 -52 -109t-116 -46q-16 0 -37 4q-49 0 -87 44t-70.5 88t-67.5 44q-63 0 -119 -66q-16 -25 -39 -24q-16 0 -29.5 15.5t-13.5 33.5z" />
<glyph unicode="&#xd2;" horiz-adv-x="1001" d="M25 664q0 162 56 315.5t165 265.5q49 0 65 -31q135 80 297 80q100 0 195.5 -40t176.5 -114.5t131 -201.5t50 -287q0 -281 -178 -465t-432 -184q-242 0 -384 196t-142 466zM150 651q0 -233 103 -402t290 -169q205 0 365.5 159.5t160.5 397.5q0 119 -45 246 q-117 322 -418 321q-166 0 -313 -82q-143 -178 -143 -471zM494 1612q0 14 13 23.5t28 9.5q35 0 55 -37q20 -35 39.5 -56.5t31 -26.5t17.5 -15.5t6 -28.5q0 -20 -15.5 -37t-33.5 -17q-10 0 -17 7q-10 8 -12 10t-8 9t-10 14.5t-20 28.5l-36 48q-38 52 -38 68z" />
<glyph unicode="&#xd3;" horiz-adv-x="1001" d="M25 664q0 162 56 315.5t165 265.5q49 0 65 -31q135 80 297 80q100 0 195.5 -40t176.5 -114.5t131 -201.5t50 -287q0 -281 -178 -465t-432 -184q-242 0 -384 196t-142 466zM150 651q0 -233 103 -402t290 -169q205 0 365.5 159.5t160.5 397.5q0 119 -45 246 q-117 322 -418 321q-166 0 -313 -82q-143 -178 -143 -471zM532 1468q0 10 5 17q4 4 7 15t19.5 29.5t59.5 61.5q41 41 71 41q14 0 24.5 -11t10.5 -24q0 -8 -20.5 -48t-56.5 -83t-70 -43q-18 0 -34 14.5t-16 30.5z" />
<glyph unicode="&#xd4;" horiz-adv-x="1001" d="M25 664q0 162 56 315.5t165 265.5q49 0 65 -31q135 80 297 80q100 0 195.5 -40t176.5 -114.5t131 -201.5t50 -287q0 -281 -178 -465t-432 -184q-242 0 -384 196t-142 466zM150 651q0 -233 103 -402t290 -169q205 0 365.5 159.5t160.5 397.5q0 119 -45 246 q-117 322 -418 321q-166 0 -313 -82q-143 -178 -143 -471zM389 1434q0 12 6 20q33 47 120 143.5t103 96.5q10 0 23.5 -9.5t28 -26l25 -29.5t22.5 -32l14 -16q20 -25 56 -60.5t49.5 -54t13.5 -34.5q0 -18 -13.5 -30.5t-29.5 -12.5q-6 0 -42 38l-83 90q-47 50 -68 68 q-29 -27 -71 -79l-73 -87q-30 -35 -44 -35t-25.5 16t-11.5 34z" />
<glyph unicode="&#xd5;" horiz-adv-x="1191" d="M25 664q0 162 56 315.5t165 265.5q49 0 65 -31q135 80 297 80q100 0 195.5 -40t176.5 -114.5t131 -201.5t50 -287q0 -281 -178 -465t-432 -184q-242 0 -384 196t-142 466zM150 651q0 -233 103 -402t290 -169q205 0 365.5 159.5t160.5 397.5q0 119 -45 246 q-117 322 -418 321q-166 0 -313 -82q-143 -178 -143 -471zM268 1565q0 57 74 102t137 45q49 0 91 -31.5t68 -70.5t59.5 -71t66.5 -32q35 0 69.5 59.5t53.5 59.5q14 0 25.5 -12t11.5 -33q0 -66 -53.5 -114t-120.5 -48q-14 0 -39 4q-39 0 -74 29t-54.5 63.5t-48 63.5t-57.5 29 q-66 0 -125 -70q-16 -25 -39 -25q-18 0 -31.5 16t-13.5 36z" />
<glyph unicode="&#xd6;" horiz-adv-x="1220" d="M25 664q0 162 56 315.5t165 265.5q49 0 65 -31q135 80 297 80q100 0 195.5 -40t176.5 -114.5t131 -201.5t50 -287q0 -281 -178 -465t-432 -184q-242 0 -384 196t-142 466zM150 651q0 -233 103 -402t290 -169q205 0 365.5 159.5t160.5 397.5q0 119 -45 246 q-117 322 -418 321q-166 0 -313 -82q-143 -178 -143 -471zM416 1524q0 29 18.5 52t44.5 23q12 0 19 -2q61 -27 61 -77q0 -53 -71.5 -53t-71.5 57zM743 1526q0 27 19.5 50t50.5 26h8q31 0 49.5 -23t18.5 -51q0 -27 -17.5 -45.5t-50.5 -18.5q-39 0 -58.5 18.5t-19.5 43.5z" />
<glyph unicode="&#xd7;" horiz-adv-x="1136" d="M154 313v11q2 23 159.5 156.5t157.5 162.5q0 23 -109.5 138.5t-168.5 168.5q-18 16 -19 35q0 23 24.5 42.5t47.5 19.5q12 0 18 -7q14 -12 85 -90t137.5 -142.5t88.5 -64.5q10 0 43 28t77 72l84 85l76 80q36 39 42 45q10 10 23 10q20 0 36.5 -24.5t16.5 -53.5v-8 q-4 -29 -149.5 -175.5t-145.5 -160.5q0 -25 144.5 -174.5t144.5 -159.5q0 -23 -31 -36t-59 -13h-9l-4 2q-18 4 -145 147.5t-139 143.5q-23 0 -90 -63l-141 -139q-75 -77 -97 -95q-25 -18 -43 -18q-25 0 -40 23t-15 54z" />
<glyph unicode="&#xd8;" horiz-adv-x="1191" d="M27 664q0 350 219 581q49 0 65 -31q135 80 297 80q90 0 160 -22l88 192q12 29 43 29q23 0 42.5 -15.5t19.5 -31.5l-3 -2q0 -2 -3 -10.5t-8 -19.5l-13 -29l-18 -38l-22 -53l-28 -63q127 -72 211 -233.5t84 -346.5q0 -281 -179 -465t-433 -184q-129 0 -232 59l-29 -69 q-17 -41 -25.5 -57.5t-22 -37t-26.5 -27.5t-34 -7q-37 0 -37 35q0 23 9.5 45t36 74.5t49.5 103.5q-100 90 -155.5 234.5t-55.5 308.5zM150 651q0 -279 131 -440l209 459l241 518q-66 16 -123 16q-158 0 -315 -82q-143 -180 -143 -471zM352 141q84 -61 193 -61 q203 0 363.5 159.5t160.5 397.5q0 119 -45 246q-68 184 -197 262l-234 -492q-149 -303 -241 -512z" />
<glyph unicode="&#xd9;" horiz-adv-x="1173" d="M43 637q0 133 26.5 282.5t52 234.5t38.5 108q20 33 53 32q18 0 32.5 -13t14.5 -32q0 -10 -2 -16q-111 -332 -111 -576q0 -158 38 -269.5t105.5 -169.5t142.5 -83.5t167 -25.5q80 0 137.5 11t116.5 46t96 95.5t60.5 165.5t23.5 249q0 115 -9 254t-17.5 232t-8.5 95 q0 20 18.5 36t37.5 16q51 0 57 -92q14 -168 14 -1162q0 -27 -15 -44t-42 -17q-25 0 -40 16.5t-15 34.5l4 145q-4 -8 -12.5 -20t-42 -44t-77.5 -56.5t-121 -45t-167 -20.5q-160 0 -272.5 53.5t-172 146.5t-85 199.5t-25.5 233.5zM537 1622q0 14 13 23.5t28 9.5q33 0 55 -37 q20 -35 39.5 -56.5t31 -26.5t17.5 -15.5t6 -28.5q0 -20 -15.5 -36.5t-33.5 -16.5q-10 0 -16 6l-12.5 10t-8.5 9t-10 14.5t-20 28.5l-36 48q-38 52 -38 68z" />
<glyph unicode="&#xda;" horiz-adv-x="1183" d="M43 637q0 133 26.5 282.5t52 234.5t38.5 108q20 33 53 32q18 0 32.5 -13t14.5 -32q0 -10 -2 -16q-111 -332 -111 -576q0 -158 38 -269.5t105.5 -169.5t142.5 -83.5t167 -25.5q80 0 137.5 11t116.5 46t96 95.5t60.5 165.5t23.5 249q0 115 -9 254t-17.5 232t-8.5 95 q0 20 18.5 36t37.5 16q51 0 57 -92q14 -168 14 -1162q0 -27 -15 -44t-42 -17q-25 0 -40 16.5t-15 34.5l4 145q-4 -8 -12.5 -20t-42 -44t-77.5 -56.5t-121 -45t-167 -20.5q-160 0 -272.5 53.5t-172 146.5t-85 199.5t-25.5 233.5zM524 1475q0 10 4 16q4 4 7.5 15.5t19.5 29.5 t59 61q41 41 72 41q14 0 24.5 -11t10.5 -23q0 -8 -20.5 -48t-56.5 -83t-71 -43q-18 0 -33.5 14.5t-15.5 30.5z" />
<glyph unicode="&#xdb;" horiz-adv-x="1187" d="M43 637q0 133 26.5 282.5t52 234.5t38.5 108q20 33 53 32q18 0 32.5 -13t14.5 -32q0 -10 -2 -16q-111 -332 -111 -576q0 -158 38 -269.5t105.5 -169.5t142.5 -83.5t167 -25.5q80 0 137.5 11t116.5 46t96 95.5t60.5 165.5t23.5 249q0 115 -9 254t-17.5 232t-8.5 95 q0 20 18.5 36t37.5 16q51 0 57 -92q14 -168 14 -1162q0 -27 -15 -44t-42 -17q-25 0 -40 16.5t-15 34.5l4 145q-4 -8 -12.5 -20t-42 -44t-77.5 -56.5t-121 -45t-167 -20.5q-160 0 -272.5 53.5t-172 146.5t-85 199.5t-25.5 233.5zM311 1466.5q0 -16.5 19 -34.5q12 -12 28 -13 q25 0 84.5 42t85.5 55q57 27 58 51q0 14 -15.5 34.5t-31.5 20.5q-31 0 -119 -68q-10 -8 -41 -24.5t-49.5 -31.5t-18.5 -31.5zM711 1602q0 8 6 18q4 6 14 6q41 0 127 -58.5t86 -88.5q0 -14 -14.5 -33t-24.5 -19t-23.5 6.5t-29.5 19.5l-29 23q-12 9 -30.5 25.5t-24.5 20.5 q-57 45 -57 80z" />
<glyph unicode="&#xdc;" horiz-adv-x="1173" d="M43 637q0 133 26.5 282.5t52 234.5t38.5 108q20 33 53 32q18 0 32.5 -13t14.5 -32q0 -10 -2 -16q-111 -332 -111 -576q0 -158 38 -269.5t105.5 -169.5t142.5 -83.5t167 -25.5q80 0 137.5 11t116.5 46t96 95.5t60.5 165.5t23.5 249q0 115 -9 254t-17.5 232t-8.5 95 q0 20 18.5 36t37.5 16q51 0 57 -92q14 -168 14 -1162q0 -27 -15 -44t-42 -17q-25 0 -40 16.5t-15 34.5l4 145q-4 -8 -12.5 -20t-42 -44t-77.5 -56.5t-121 -45t-167 -20.5q-160 0 -272.5 53.5t-172 146.5t-85 199.5t-25.5 233.5zM406 1520q0 29 18 52t45 23q12 0 18 -2 q61 -27 62 -77q0 -53 -71.5 -53t-71.5 57zM733 1522q0 27 19.5 50t50.5 25h8q31 0 49.5 -22.5t18.5 -50.5q0 -27 -17.5 -45.5t-50.5 -18.5q-39 0 -58.5 18.5t-19.5 43.5z" />
<glyph unicode="&#xdd;" horiz-adv-x="1015" d="M37 1247q0 25 18.5 42.5t42.5 17.5q37 0 58 -39l112 -215q43 -80 129 -205t170 -205q72 106 230 320l231 319q20 29 53 29q25 0 45.5 -14.5t20.5 -34.5q0 -12 -6 -21q-78 -123 -247 -349t-235 -325q14 -12 15 -30q0 -23 -15.5 -43.5t-35.5 -20.5q-12 0 -21 6 q-143 -213 -217 -426q-20 -61 -68 -61q-20 0 -34.5 14t-14.5 37q0 16 4 27q72 219 238 485q-51 49 -107.5 116.5t-99.5 130.5l-92 137q-49 75 -76 121l-57 100q-31 54 -33 57q-8 14 -8 30zM516 1421q0 10 4 17q4 4 7 15t19.5 29.5t59.5 61.5q41 41 72 41q14 0 24.5 -11 t10.5 -24q0 -8 -20.5 -48t-56.5 -83t-71 -43q-18 0 -33.5 14.5t-15.5 30.5z" />
<glyph unicode="&#xde;" horiz-adv-x="1705" d="M147 23v65v279q0 43 1.5 182t1.5 248q0 106 -1.5 269t-1.5 185q0 53 52 54q18 0 30.5 -4.5t20.5 -14.5t12 -17t6 -24.5t2 -25.5v-31v-29q0 -29 -1 -111.5t-1 -138.5q41 59 70 95q37 0 49 -23q78 45 176 45q156 0 281 -108.5t125 -282.5q0 -162 -122 -274.5t-341 -112.5 q-143 0 -232 78l-4 -151q-2 -79 -4 -125t-2 -56v-60q0 -90 -41 -90q-72 1 -76 179zM297 614q0 -106 67.5 -175.5t182.5 -69.5q16 0 41.5 2t78 17t93.5 39t72.5 75t31.5 119q0 18 -8 63q-27 121 -106.5 173t-180.5 52q-102 0 -172 -37q-100 -127 -100 -258z" />
<glyph unicode="&#xdf;" horiz-adv-x="1705" d="M27 549q0 362 143 542.5t358 180.5q168 0 292 -110.5t124 -262.5q0 -164 -158 -293q82 -41 164 -145.5t82 -225t-105.5 -188t-256.5 -67.5q-90 0 -169 22.5t-79 73.5q0 18 12 30.5t29 12.5q4 0 16 -4q74 -33 154 -33q90 0 152.5 21.5t90 55.5t38 62.5t10.5 57.5 q0 150 -234 288l-10 8q-135 -23 -191 -22q-43 0 -94 12.5t-94 44t-43 72.5q0 14 2 24.5t8 18.5t11.5 14t16.5 9.5t16 5.5t19.5 3t18.5 1h20h17q174 0 332 -99q55 23 95 91.5t40 150.5q0 111 -107.5 183.5t-248.5 72.5q-373 0 -373 -582q0 -291 106 -485q8 -25 9 -33 q0 -25 -15.5 -43t-36.5 -18q-29 0 -53 37q-49 72 -78.5 214t-29.5 302zM403 668q80 -43 129 -43q10 0 64 4q-57 27 -89 33t-104 6z" />
<glyph unicode="&#xe0;" horiz-adv-x="677" d="M23 172q0 43 10 101.5t33.5 132t76 123t121.5 49.5q82 0 147.5 -70t94.5 -160q16 59 16 117q0 121 -61.5 217t-143.5 96q-94 0 -202 -96q-18 -16 -39 -16q-29 0 -29 30q0 66 100.5 124.5t176.5 58.5q119 0 199.5 -117t80.5 -275q0 -141 -49 -262l-4 -10q33 -113 82 -113 q4 0 12 1t12 1q39 0 39 -38q0 -25 -20.5 -45.5t-54.5 -20.5q-100 0 -138 145q-49 -68 -133 -114.5t-166 -46.5q-161 0 -161 188zM109 162q0 -74 34 -84q16 -6 35 -6q66 0 149 55t119 123q-29 86 -78 160.5t-98 74.5q-61 0 -98 -63.5t-45 -128.5q-18 -61 -18 -131zM188 1128 q0 14 13.5 23.5t27.5 9.5q33 0 56 -37q20 -35 39.5 -56t31 -26.5t17.5 -15.5t6 -29q0 -20 -15.5 -36.5t-33.5 -16.5q-10 0 -17 6q-10 8 -12 10.5t-8 9.5t-10 14t-20 29l-36 48q-39 51 -39 67z" />
<glyph unicode="&#xe1;" horiz-adv-x="677" d="M14 195q0 43 10.5 101t34 132t75.5 123t122 49q82 0 147.5 -69.5t94.5 -159.5q16 59 16 116q0 121 -61.5 217.5t-143.5 96.5q-94 0 -203 -96q-18 -16 -38 -17q-29 0 -29 31q0 66 100.5 124t175.5 58q119 0 200 -116.5t81 -274.5q0 -141 -49 -262l-4 -10q33 -113 82 -113 q4 0 12 1t12 1q39 0 39 -39q0 -25 -20.5 -45t-55.5 -20q-100 0 -137 145q-49 -68 -133 -115t-166 -47q-162 1 -162 189zM100 184q0 -74 35 -84q16 -6 35 -6q66 0 148.5 55.5t119.5 122.5q-29 86 -78 161t-98 75q-61 0 -98 -63.5t-45 -129.5q-19 -61 -19 -131zM301 1038 q0 10 4 17q4 4 7 15t19.5 29.5t59.5 61.5q41 41 72 41q14 0 24.5 -11t10.5 -24q0 -8 -20.5 -48t-56.5 -83t-71 -43q-18 0 -33.5 14.5t-15.5 30.5z" />
<glyph unicode="&#xe2;" horiz-adv-x="681" d="M18 184q0 43 10.5 101.5t34 132.5t75.5 123t122 49q82 0 147.5 -69.5t94.5 -160.5q16 59 16 117q0 121 -61.5 217.5t-143.5 96.5q-94 0 -202 -97q-18 -16 -39 -16q-29 0 -29 31q0 66 100.5 124t175.5 58q119 0 200 -117t81 -274q0 -141 -49 -262l-4 -11q33 -113 82 -112 q4 0 12 1t12 1q39 0 39 -39q0 -25 -20.5 -45.5t-55.5 -20.5q-100 0 -137 146q-49 -68 -133 -115t-166 -47q-162 0 -162 188zM88 1010q0 10 6 20q33 47 120 143.5t103 96.5q10 0 23.5 -9.5t28 -25.5t24.5 -29.5t25 -29.5l12 -19q20 -25 56 -60.5t49.5 -54t13.5 -34.5 q0 -18 -13.5 -30.5t-29.5 -12.5q-6 0 -42 39l-83 89q-47 50 -68 68q-29 -27 -71 -79l-73 -87q-30 -35 -44 -34.5t-25.5 16t-11.5 33.5zM104 174q0 -74 35 -84q16 -6 35 -6q66 0 149 55.5t119 122.5q-29 86 -78 161t-98 75q-61 0 -98 -63.5t-45 -129.5q-19 -61 -19 -131z" />
<glyph unicode="&#xe3;" horiz-adv-x="673" d="M20 184q0 43 10.5 101.5t34 132.5t76 123t121.5 49q82 0 147.5 -69.5t94.5 -160.5q16 59 16 117q0 121 -61.5 217.5t-143.5 96.5q-94 0 -202 -97q-18 -16 -39 -16q-29 0 -29 31q0 66 100.5 124t176.5 58q119 0 199.5 -117t80.5 -274q0 -141 -49 -262l-4 -11 q33 -113 82 -112q4 0 12 1t12 1q39 0 39 -39q0 -25 -20.5 -45.5t-55.5 -20.5q-100 0 -137 146q-49 -68 -133 -115t-166 -47q-162 0 -162 188zM45 1077q0 49 64.5 87t119.5 38q43 0 79 -26.5t57.5 -59.5t51 -59.5t58.5 -26.5q31 0 60.5 50t46.5 50q33 0 32 -38 q0 -55 -47 -96.5t-104 -41.5q-12 0 -33 4q-35 0 -64.5 25t-47 53.5t-42 53t-49.5 24.5q-59 0 -108 -59q-14 -20 -35 -21q-14 0 -26.5 13.5t-12.5 29.5zM106 174q0 -74 35 -84q14 -6 35 -6q66 0 149 55.5t119 122.5q-29 86 -78 161t-98 75q-61 0 -98 -63.5t-45 -129.5 q-19 -61 -19 -131z" />
<glyph unicode="&#xe4;" horiz-adv-x="669" d="M20 184q0 43 10.5 101.5t34 132.5t76 123t121.5 49q82 0 147.5 -69.5t94.5 -160.5q16 59 16 117q0 121 -61.5 217.5t-143.5 96.5q-94 0 -202 -97q-18 -16 -39 -16q-29 0 -29 31q0 66 100.5 124t176.5 58q119 0 199.5 -117t80.5 -274q0 -141 -49 -262l-4 -11 q33 -113 82 -112q4 0 12 1t12 1q39 0 39 -39q0 -25 -20.5 -45.5t-55.5 -20.5q-100 0 -137 146q-49 -68 -133 -115t-166 -47q-162 0 -162 188zM106 174q0 -74 35 -84q14 -6 35 -6q66 0 149 55.5t119 122.5q-29 86 -78 161t-98 75q-61 0 -98 -63.5t-45 -129.5 q-19 -61 -19 -131zM109 1071q0 29 18 52.5t45 23.5q12 0 18 -2q61 -27 62 -78q0 -53 -71.5 -53t-71.5 57zM436 1073q0 27 19.5 50.5t50.5 25.5h8q31 0 49.5 -22.5t18.5 -51.5q0 -27 -17.5 -45t-50.5 -18q-39 0 -58.5 18t-19.5 43z" />
<glyph unicode="&#xe5;" horiz-adv-x="665" d="M0 184q0 43 10 101.5t34 132.5t76 123t122 49q82 0 147.5 -69.5t93.5 -160.5q16 59 17 117q0 121 -61.5 217.5t-143.5 96.5q-94 0 -203 -97q-18 -16 -39 -16q-29 0 -28 31q0 66 100 124t176 58q119 0 200 -117t81 -274q0 -141 -50 -262l-4 -11q33 -113 82 -112 q4 0 12.5 1t12.5 1q39 0 39 -39q0 -25 -20.5 -45.5t-55.5 -20.5q-100 0 -137 146q-49 -68 -133 -115t-166 -47q-162 0 -162 188zM86 174q0 -74 35 -84q14 -6 35 -6q66 0 148.5 55.5t119.5 122.5q-29 86 -78 161t-98 75q-61 0 -98 -63.5t-46 -129.5q-18 -61 -18 -131z M115 1130q0 76 65 117q0 2 -1 5t-1 5q0 41 74 41q72 0 118 -40.5t46 -118.5q0 -49 -21.5 -89t-62.5 -53q-37 -12 -68 -12q-68 0 -108.5 43t-40.5 102zM184 1135q0 -29 22.5 -51.5t57.5 -22.5q80 0 80 80q0 27 -2 41q-27 51 -90 51q-12 0 -33 -4q14 -18 14 -23 q-49 -22 -49 -71z" />
<glyph unicode="&#xe6;" horiz-adv-x="1118" d="M27 184q0 43 10 101.5t33.5 132.5t76 123t121.5 49q137 0 242 -230l4 27q0 43 6 86q0 158 -61.5 238t-128.5 80q-55 0 -137 -58.5t-107 -58.5q-51 0 -51 41q0 55 113.5 113.5t187.5 58.5q174 0 244 -221q51 98 128.5 160.5t170.5 62.5q145 0 145 -176q0 -82 -37 -162 t-111.5 -153.5t-129 -108.5t-103.5 -60l8 -16q29 -53 81 -88t112 -35q168 0 303 189q10 16 29 16q16 0 29.5 -14.5t13.5 -34.5q0 -16 -13 -33q-57 -86 -152.5 -152.5t-199.5 -66.5q-111 0 -186 49q-20 -10 -56 -10q-25 0 -43 8t-32.5 32.5t-20.5 37t-22 51.5 q-66 -66 -153 -115t-163 -49q-151 0 -151 186zM113 174q0 -74 34 -84q8 -4 27 -4q55 0 135 60.5t137 125.5q-104 225 -174 226q-59 0 -95 -65.5t-46 -127.5q-18 -61 -18 -131zM610 385q0 -16 4 -53q190 106 293 266q37 86 37 139q0 61 -51 62q-80 0 -181.5 -127t-101.5 -287 z" />
<glyph unicode="&#xe7;" horiz-adv-x="548" d="M2 457q0 203 129 340q111 119 240 118q70 0 126 -31.5t64 -54.5q4 -10 4 -30q0 -51 -45 -51q-12 0 -55 33.5t-100 33.5q-111 0 -185 -121t-74 -250q0 -162 82 -243.5t193 -81.5q92 0 179 51t124 119q8 20 27 20q14 0 26.5 -13t12.5 -32q0 -14 -7 -26q-55 -98 -150 -164 t-220 -66q-33 0 -67 4t-92 30t-102 70t-77 134t-33 211zM203 -211q0 2 1 5t1 5q6 27 31 27q14 0 53 -52.5t86 -52.5q23 0 37 12.5t14 24.5q0 14 -51 83t-51 134q0 43 13 75t34 32q27 0 55 -59q0 -104 43 -141.5t43 -100.5q0 -55 -44 -98t-106 -43q-66 0 -112.5 50t-46.5 99z " />
<glyph unicode="&#xe8;" d="M2 387q0 190 103.5 349t261.5 159q145 0 145 -176q0 -82 -37 -162t-111.5 -153.5t-129 -108.5t-103.5 -59l8 -17q29 -53 81 -88t112 -35q178 0 305 178q14 18 29 19q27 0 26 -41q0 -84 -118.5 -168t-231.5 -84q-156 0 -248 104.5t-92 282.5zM98 391q0 -16 4 -53 q190 106 293 266q37 86 37 139q0 61 -51 62q-80 0 -181.5 -127t-101.5 -287zM156 1403q0 14 13 23.5t28 9.5q33 0 55 -37q20 -35 39.5 -56.5t31 -26.5t17.5 -15.5t6 -28.5q0 -20 -15.5 -36.5t-33.5 -16.5q-10 0 -16 6l-12.5 10t-8.5 9t-10 14.5t-20 28.5l-35 48 q-39 52 -39 68z" />
<glyph unicode="&#xe9;" d="M2 387q0 190 103.5 349t261.5 159q145 0 145 -176q0 -82 -37 -162t-111.5 -153.5t-129 -108.5t-103.5 -59l8 -17q29 -53 81 -88t112 -35q178 0 305 178q14 18 29 19q27 0 26 -41q0 -84 -118.5 -168t-231.5 -84q-156 0 -248 104.5t-92 282.5zM92 1266q0 10 4 16 q4 4 7 15.5t19.5 30t59.5 61.5q41 41 72 41q14 0 24.5 -11.5t10.5 -23.5q0 -8 -20.5 -48t-56.5 -83t-71 -43q-18 0 -33.5 14.5t-15.5 30.5zM98 391q0 -16 4 -53q190 106 293 266q37 86 37 139q0 61 -51 62q-80 0 -181.5 -127t-101.5 -287z" />
<glyph unicode="&#xea;" d="M2 387q0 190 103.5 349t261.5 159q145 0 145 -176q0 -82 -37 -162t-111.5 -153.5t-129 -108.5t-103.5 -59l8 -17q29 -53 81 -88t112 -35q178 0 305 178q14 18 29 19q27 0 26 -41q0 -84 -118.5 -168t-231.5 -84q-156 0 -248 104.5t-92 282.5zM25 1114q0 12 6 21 q33 47 120 143t103 96q10 0 23.5 -9t27.5 -25.5t24.5 -30t22.5 -31.5l15 -16q20 -25 56 -61t49 -54.5t13 -34.5q0 -18 -13 -30.5t-30 -12.5q-6 0 -42 39l-83 89q-47 50 -67 69q-29 -27 -72 -79l-73 -87q-30 -35 -44 -35t-25 15.5t-11 33.5zM98 391q0 -16 4 -53 q190 106 293 266q37 86 37 139q0 61 -51 62q-80 0 -181.5 -127t-101.5 -287z" />
<glyph unicode="&#xeb;" d="M2 387q0 190 103.5 349t261.5 159q145 0 145 -176q0 -82 -37 -162t-111.5 -153.5t-129 -108.5t-103.5 -59l8 -17q29 -53 81 -88t112 -35q178 0 305 178q14 18 29 19q27 0 26 -41q0 -84 -118.5 -168t-231.5 -84q-156 0 -248 104.5t-92 282.5zM20 1268q0 29 18.5 52 t45.5 23q12 0 18 -2q61 -27 62 -77q0 -53 -72 -53t-72 57zM98 391q0 -16 4 -53q190 106 293 266q37 86 37 139q0 61 -51 62q-80 0 -181.5 -127t-101.5 -287zM348 1270q0 27 19.5 50t50.5 26h8q31 0 49.5 -23t18.5 -51q0 -27 -17.5 -45.5t-50.5 -18.5q-39 0 -58.5 18.5 t-19.5 43.5z" />
<glyph unicode="&#xec;" horiz-adv-x="389" d="M98 1403q0 14 13.5 23.5t27.5 9.5q33 0 56 -37q20 -35 39.5 -56.5t30.5 -26.5t17.5 -15.5t6.5 -28.5q0 -20 -15.5 -36.5t-33.5 -16.5q-10 0 -17 6q-10 8 -12 10t-8 9t-10.5 14.5t-19.5 28.5l-36 48q-39 52 -39 68zM111 330q0 162 49 309q29 49 63.5 49t34.5 -43 q0 -23 -8 -41q-43 -106 -43 -246q0 -88 16.5 -161.5t36.5 -94.5q10 4 41 3t60.5 11.5t54.5 45.5q18 25 42.5 24.5t24.5 -24.5q0 -35 -76.5 -98.5t-154.5 -63.5q-63 0 -102 95.5t-39 234.5zM248 829q0 47 35.5 97.5t78.5 50.5q31 0 31 -35q0 -43 -39 -98.5t-73 -55.5 q-33 0 -33 41z" />
<glyph unicode="&#xed;" horiz-adv-x="389" d="M35 1266q0 10 4 16q4 4 7 15.5t19.5 30t59.5 61.5q41 41 72 41q14 0 24 -11.5t10 -23.5q0 -8 -20.5 -48t-56 -83t-70.5 -43q-18 0 -33.5 14.5t-15.5 30.5zM111 330q0 162 49 309q29 49 63.5 49t34.5 -43q0 -23 -8 -41q-43 -106 -43 -246q0 -88 16.5 -161.5t36.5 -94.5 q10 4 41 3t60.5 11.5t54.5 45.5q18 25 42.5 24.5t24.5 -24.5q0 -35 -76.5 -98.5t-154.5 -63.5q-63 0 -102 95.5t-39 234.5zM248 829q0 47 35.5 97.5t78.5 50.5q31 0 31 -35q0 -43 -39 -98.5t-73 -55.5q-33 0 -33 41z" />
<glyph unicode="&#xee;" horiz-adv-x="389" d="M-33 1114q0 12 6 21q33 47 120 143t104 96q10 0 23 -9t27.5 -25.5t25 -30t22.5 -31.5l14 -16q20 -25 56 -61t49.5 -54.5t13.5 -34.5q0 -18 -13.5 -30.5t-29.5 -12.5q-6 0 -42 39l-83 89q-47 50 -67 69q-29 -27 -72 -79l-73 -87q-30 -35 -44 -35t-25.5 15.5t-11.5 33.5z M111 330q0 162 49 309q29 49 63.5 49t34.5 -43q0 -23 -8 -41q-43 -106 -43 -246q0 -88 16.5 -161.5t36.5 -94.5q10 4 41 3t60.5 11.5t54.5 45.5q18 25 42.5 24.5t24.5 -24.5q0 -35 -76.5 -98.5t-154.5 -63.5q-63 0 -102 95.5t-39 234.5zM248 829q0 47 35.5 97.5t78.5 50.5 q31 0 31 -35q0 -43 -39 -98.5t-73 -55.5q-33 0 -33 41z" />
<glyph unicode="&#xef;" horiz-adv-x="389" d="M-37 1268q0 29 18.5 52t45.5 23q12 0 18 -2q61 -27 61 -77q0 -53 -71.5 -53t-71.5 57zM111 330q0 162 49 309q29 49 63.5 49t34.5 -43q0 -23 -8 -41q-43 -106 -43 -246q0 -88 16.5 -161.5t36.5 -94.5q10 4 41 3t60.5 11.5t54.5 45.5q18 25 42.5 24.5t24.5 -24.5 q0 -35 -76.5 -98.5t-154.5 -63.5q-63 0 -102 95.5t-39 234.5zM248 829q0 47 35.5 97.5t78.5 50.5q31 0 31 -35q0 -43 -39 -98.5t-73 -55.5q-33 0 -33 41zM291 1270q0 27 19.5 50t49.5 26h9q31 0 49 -23t18 -51q0 -27 -17.5 -45.5t-49.5 -18.5q-39 0 -58.5 18.5t-19.5 43.5z " />
<glyph unicode="&#xf0;" horiz-adv-x="694" d="M12 438q0 129 85 204t216 75q207 0 279 -187l18 -67q8 41 8 104q0 74 -14 152t-49 166t-107.5 163.5t-175.5 116.5l-10 -37q-8 -29 -26.5 -60.5t-28.5 -35.5h-4q-10 0 -22.5 13.5t-12.5 33.5q0 23 9 47.5t16.5 37t3.5 12.5q0 6 2 14q-6 2 -31 5t-40 6t-28.5 14.5 t-13.5 29.5q0 41 51 41q16 0 88 -10q39 109 82 108q29 0 29 -32q0 -16 -6 -35l-23 -62q414 -131 414 -741q0 -166 -35 -369q-47 -43 -84 -43h-8q-90 -88 -209 -88q-145 0 -259 122t-114 302zM106 426q0 -129 90.5 -216t200.5 -87q115 0 183 94q0 106 -22.5 179t-82.5 136 q-63 63 -170 64q-86 0 -142.5 -44t-56.5 -126z" />
<glyph unicode="&#xf1;" horiz-adv-x="716" d="M29 784q0 41 16 59.5t72 18.5q49 0 58 -63.5t15 -366.5q119 283 285 393q16 14 39 15q20 0 37.5 -14.5t21.5 -30.5q41 -283 41 -668q35 27 70 69t57.5 65.5t42.5 23.5q33 0 33 -35q0 -86 -219 -234q-23 -14 -47 -14q-35 0 -35 35q0 461 -22 676q-127 -113 -211 -299.5 t-113 -356.5q0 -27 -20.5 -43t-43.5 -16q-33 0 -32 27q0 10 6 22q0 70 9 258.5t9 282.5q0 80 -6 147h-2h-8q-53 0 -53 49zM115 1077q0 45 58 81t110 36q39 0 71.5 -25.5t53 -55.5t47 -55.5t53.5 -25.5q29 0 55.5 47t42.5 47q29 0 29 -34q0 -53 -42 -91t-97 -38q-10 0 -31 4 q-41 0 -72 36.5t-57.5 72.5t-54.5 36q-51 0 -101 -55q-10 -18 -30 -19q-14 0 -24.5 11.5t-10.5 27.5z" />
<glyph unicode="&#xf2;" horiz-adv-x="716" d="M33 422q0 80 5 128t35.5 123t90.5 136q84 84 190 84q57 0 117 -23q8 12 25 13q18 0 26 -15l23 -30l6 -2q2 -4 29 -51l41 -72q88 41 102 41q27 0 27 -29q0 -43 -95 -107q27 -86 27 -180q0 -201 -96.5 -320.5t-251.5 -119.5q-111 0 -206 115.5t-95 308.5zM117 428 q0 -121 59.5 -221.5t175.5 -100.5q109 0 174.5 102.5t65.5 237.5q0 76 -21 138q-41 -33 -92 -33q-33 0 -57 18q-29 20 -29 88q0 88 39 123q-39 23 -82 23q-98 0 -165.5 -116t-67.5 -259zM250 1180q0 14 13 23t28 9q33 0 55 -36q20 -35 40 -56.5t31 -27t17 -15.5t6 -28 q0 -20 -15 -37t-34 -17q-10 0 -16 6q-10 8 -12.5 10.5t-8.5 9.5t-10 14t-19 29l-36 48q-39 52 -39 68zM479 674q0 -31 25 -31q14 0 35 14q-18 43 -43 72q-17 -32 -17 -55z" />
<glyph unicode="&#xf3;" horiz-adv-x="712" d="M33 422q0 80 5 128t35.5 123t90.5 136q84 84 190 84q57 0 117 -23q8 12 25 13q18 0 26 -15l23 -30l6 -2q2 -4 29 -51l41 -72q88 41 102 41q27 0 27 -29q0 -43 -95 -107q27 -86 27 -180q0 -201 -96.5 -320.5t-251.5 -119.5q-111 0 -206 115.5t-95 308.5zM117 428 q0 -121 59.5 -221.5t175.5 -100.5q109 0 174.5 102.5t65.5 237.5q0 76 -21 138q-41 -33 -92 -33q-33 0 -57 18q-29 20 -29 88q0 88 39 123q-39 23 -82 23q-98 0 -165.5 -116t-67.5 -259zM258 1042q0 10 4 17q4 4 7 15t19.5 29.5t59.5 61.5q41 41 72 41q14 0 24.5 -11 t10.5 -24q0 -8 -20.5 -48t-56.5 -83t-71 -43q-18 0 -33.5 14.5t-15.5 30.5zM479 674q0 -31 25 -31q14 0 35 14q-18 43 -43 72q-17 -32 -17 -55z" />
<glyph unicode="&#xf4;" horiz-adv-x="727" d="M33 422q0 80 5 128t35.5 123t90.5 136q84 84 190 84q57 0 117 -23q8 12 25 13q18 0 26 -15l23 -30l6 -2q2 -4 29 -51l41 -72q88 41 102 41q27 0 27 -29q0 -43 -95 -107q27 -86 27 -180q0 -201 -96.5 -320.5t-251.5 -119.5q-111 0 -206 115.5t-95 308.5zM104 997 q0 10 7 21q33 47 119.5 143t103.5 96q10 0 23.5 -9t27.5 -25.5l24.5 -29.5l24.5 -30l12 -18q20 -25 56.5 -60.5t49.5 -54t13 -35.5q0 -18 -13 -30.5t-30 -12.5q-6 0 -42 39l-83 89q-47 50 -67 69q-29 -27 -72 -79l-73 -87q-30 -35 -44 -35t-25.5 15.5t-11.5 33.5zM117 428 q0 -121 59.5 -221.5t175.5 -100.5q109 0 174.5 102.5t65.5 237.5q0 76 -21 138q-41 -33 -92 -33q-33 0 -57 18q-29 20 -29 88q0 88 39 123q-39 23 -82 23q-98 0 -165.5 -116t-67.5 -259zM479 674q0 -31 25 -31q14 0 35 14q-18 43 -43 72q-17 -32 -17 -55z" />
<glyph unicode="&#xf5;" horiz-adv-x="772" d="M33 422q0 80 5 128t35.5 123t90.5 136q84 84 190 84q57 0 117 -23q8 12 25 13q18 0 26 -15l23 -30l6 -2q2 -4 29 -51l41 -72q88 41 102 41q27 0 27 -29q0 -43 -95 -107q27 -86 27 -180q0 -201 -96.5 -320.5t-251.5 -119.5q-111 0 -206 115.5t-95 308.5zM90 1094 q0 45 63.5 79.5t116.5 34.5q43 0 79 -24.5t57.5 -55t51 -55t58.5 -24.5q31 0 59.5 46t45.5 46q33 0 32 -35q0 -51 -46 -89t-103 -38q-10 0 -35 4q-43 0 -77 36t-62.5 71.5t-59.5 35.5q-55 0 -108 -53q-14 -20 -33 -20q-14 0 -26.5 12.5t-12.5 28.5zM117 428 q0 -121 59.5 -221.5t175.5 -100.5q109 0 174.5 102.5t65.5 237.5q0 76 -21 138q-41 -33 -92 -33q-33 0 -57 18q-29 20 -29 88q0 88 39 123q-39 23 -82 23q-98 0 -165.5 -116t-67.5 -259zM479 674q0 -31 25 -31q14 0 35 14q-18 43 -43 72q-17 -32 -17 -55z" />
<glyph unicode="&#xf6;" horiz-adv-x="624" d="M33 422q0 80 5 128t35.5 123t90.5 136q84 84 190 84q57 0 117 -23q8 12 25 13q18 0 26 -15l23 -30l6 -2q2 -4 29 -51l41 -72q88 41 102 41q27 0 27 -29q0 -43 -95 -107q27 -86 27 -180q0 -201 -96.5 -320.5t-251.5 -119.5q-111 0 -206 115.5t-95 308.5zM111 1059 q0 29 18 52.5t45 23.5q12 0 19 -2q61 -27 61 -78q0 -53 -71.5 -53t-71.5 57zM117 428q0 -121 59.5 -221.5t175.5 -100.5q109 0 174.5 102.5t65.5 237.5q0 76 -21 138q-41 -33 -92 -33q-33 0 -57 18q-29 20 -29 88q0 88 39 123q-39 23 -82 23q-98 0 -165.5 -116t-67.5 -259z M438 1061q0 27 19.5 50.5t50.5 25.5h8q31 0 49.5 -22.5t18.5 -51.5q0 -27 -17.5 -45.5t-50.5 -18.5q-39 0 -58.5 18.5t-19.5 43.5zM479 674q0 -31 25 -31q14 0 35 14q-18 43 -43 72q-17 -32 -17 -55z" />
<glyph unicode="&#xf7;" horiz-adv-x="720" d="M37 369q0 31 26.5 42t86.5 11q25 0 40 -4t56 -4q6 0 25.5 1t33.5 1q49 0 111.5 -1t83.5 -1q31 0 112 4h9q25 0 38 -12.5t13 -26.5q0 -16 -7.5 -22.5t-61.5 -11.5t-171 -5q-23 0 -86 1t-88 1q-109 0 -121 -8h-2q-98 0 -98 35zM283 86q0 37 24.5 61.5t52.5 24.5 q27 0 55.5 -26.5t28.5 -71.5q0 -57 -51 -66q-25 -4 -33 -4q-77 0 -77 82zM289 686q0 33 19.5 58.5t47.5 25.5q8 0 15 -2q72 -25 71 -90q0 -27 -17 -45.5t-48 -18.5q-43 0 -65.5 20.5t-22.5 51.5z" />
<glyph unicode="&#xf8;" horiz-adv-x="774" d="M14 -72q0 23 31 78l105 182q-51 98 -52 234q-2 78 3 129t37 126t91 136q84 84 191 84q47 0 92 -14l55 110q12 20 39 21q29 0 54.5 -16.5t25.5 -34.5q-18 -43 -65 -132q8 -18 33 -61l36 -61q45 18 68 18q20 0 32.5 -14.5t12.5 -37t-12.5 -40t-30.5 -17.5q-6 0 -17.5 8.5 t-19.5 8.5h-4q27 -90 26 -191q0 -205 -96 -323.5t-250 -118.5q-104 0 -184 88l-86 -168q-18 -33 -53 -33q-23 0 -42.5 11.5t-19.5 27.5zM174 420q0 -76 25 -141q53 98 61 110q61 104 209 404q-23 8 -49 8q-100 0 -173 -119t-73 -262zM262 180q66 -70 154 -69 q106 0 170.5 104t64.5 242q0 80 -20 143q-66 -31 -96 -31q-14 0 -19 4q-14 6 -20 19q-39 -76 -115 -204t-119 -208zM567 700q0 -29 27 -28h6q-8 16 -31 49q-2 -9 -2 -21z" />
<glyph unicode="&#xf9;" horiz-adv-x="864" d="M63 344q0 131 25 273.5t53 222.5q10 31 47 30q20 0 36 -12t16 -31v-10q-86 -250 -86 -493q0 -209 88 -209q61 0 128.5 109.5t117 281.5t59.5 342q2 39 49 39q23 0 39 -12.5t16 -32.5v-8l-4 -21q-29 -137 -29 -381q0 -322 52 -321q31 0 69.5 47t53.5 47q20 0 20 -27 q0 -39 -55.5 -103.5t-116.5 -64.5q-104 0 -104 318v63q-25 -88 -59 -166t-102.5 -149.5t-150.5 -71.5q-86 0 -124 98.5t-38 241.5zM201 1128q0 14 13 23.5t28 9.5q33 0 55 -37q20 -35 39.5 -56t31 -26.5t17.5 -15.5t6 -29q0 -20 -15.5 -36.5t-33.5 -16.5q-10 0 -16 6 q-10 8 -12.5 10.5t-8.5 9.5t-10 14t-20 29l-35 48q-39 51 -39 67z" />
<glyph unicode="&#xfa;" horiz-adv-x="837" d="M68 336q0 131 24.5 273.5t52.5 221.5q10 31 48 31q20 0 35.5 -12t15.5 -31v-10q-86 -250 -86 -494q0 -209 88 -209q61 0 128.5 110t117 282t59.5 342q2 39 49 39q23 0 39 -12.5t16 -32.5v-9l-4 -20q-29 -137 -28 -381q0 -322 51 -322q31 0 69.5 47.5t53.5 47.5 q20 0 20 -27q0 -39 -55 -103.5t-117 -64.5q-104 0 -104 317v64q-25 -88 -58.5 -166t-102.5 -149.5t-151 -71.5q-86 0 -123.5 98.5t-37.5 241.5zM231 1016q0 10 5 16q4 4 7 15.5t19.5 30t59.5 61.5q41 41 71 41q14 0 24.5 -11.5t10.5 -23.5q0 -8 -20.5 -48t-56.5 -83t-70 -43 q-18 0 -34 14.5t-16 30.5z" />
<glyph unicode="&#xfb;" horiz-adv-x="858" d="M49 336q0 131 24.5 273.5t53.5 221.5q10 31 47 31q20 0 35.5 -12t15.5 -31v-10q-86 -250 -86 -494q0 -209 88 -209q61 0 129 110t117 282t59 342q2 39 50 39q23 0 39 -12.5t16 -32.5v-9l-4 -20q-29 -137 -29 -381q0 -322 51 -322q31 0 70 47.5t53 47.5q20 0 21 -27 q0 -39 -55.5 -103.5t-116.5 -64.5q-104 0 -105 317v64q-25 -88 -58.5 -166t-102 -149.5t-150.5 -71.5q-86 0 -124 98.5t-38 241.5zM125 987q0 12 6 21q33 47 120 143t103 96q10 0 23.5 -9t28 -25.5t24.5 -29.5l25 -32l12 -16q20 -25 56 -61t49.5 -54.5t13.5 -34.5 q0 -18 -13.5 -30.5t-29.5 -12.5q-6 0 -42 39l-83 89q-47 50 -68 69q-29 -27 -71 -79l-73 -87q-30 -35 -44.5 -35t-25.5 15.5t-11 33.5z" />
<glyph unicode="&#xfc;" horiz-adv-x="837" d="M35 344q0 131 24.5 273.5t53.5 222.5q10 31 47 30q20 0 35.5 -12t15.5 -31v-10q-86 -250 -86 -493q0 -209 88 -209q61 0 129 109.5t117 281.5t59 342q2 39 49 39q23 0 39.5 -12.5t16.5 -32.5v-8l-5 -21q-29 -137 -28 -381q0 -322 51 -321q31 0 70 47t53 47q20 0 20 -27 q0 -39 -55 -103.5t-117 -64.5q-104 0 -104 318v63q-25 -88 -58.5 -166t-102 -149.5t-150.5 -71.5q-86 0 -124 98.5t-38 241.5zM109 1038q0 29 18 52.5t45 23.5q12 0 18 -2q61 -27 62 -78q0 -53 -71.5 -53t-71.5 57zM436 1040q0 27 19.5 50.5t50.5 25.5h8q31 0 49.5 -22.5 t18.5 -51.5q0 -27 -17.5 -45t-50.5 -18q-39 0 -58.5 18t-19.5 43z" />
<glyph unicode="&#xfd;" horiz-adv-x="813" d="M14 340q0 129 38 253t118 187q25 18 43 19q20 0 33.5 -15.5t13.5 -35.5q0 -16 -12 -29q-59 -55 -96 -167t-37 -218q0 -133 51 -197.5t108 -64.5q92 0 177 104q135 168 153 590q2 25 17.5 40t35.5 15q37 0 45 -45q35 -211 35 -418q0 -51 -4 -149l37 29q20 14 34.5 14 t14.5 -16q0 -20 -31 -64l-65 -86q-37 -311 -132 -474t-200 -163q-131 0 -131 162q0 195 377 516q8 82 8 190v64q-47 -176 -146.5 -287.5t-232.5 -111.5q-90 0 -149.5 60t-81 136t-21.5 162zM360 -371q0 -61 54 -112q156 168 204 477q-258 -236 -258 -365zM420 1090 q0 10 4 16q4 4 7 15.5t19.5 29.5t59.5 61q41 41 72 41q14 0 24 -11t10 -23q0 -8 -20.5 -48.5t-56 -83.5t-70.5 -43q-18 0 -33.5 15t-15.5 31z" />
<glyph unicode="&#xfe;" horiz-adv-x="999" d="M96 -16v413q0 59 1 203.5t1 267.5q0 117 -1 295t-1 199q0 53 51 53q14 0 25.5 -3t19 -7t12.5 -14l8 -17q3 -6 4 -20.5t1 -21.5v-26v-26v-256q0 -129 2 -201q37 55 70 88q37 0 49 -22q96 59 221 59q162 0 288 -125t126 -356q0 -209 -133 -347t-324 -138q-184 0 -297 159 q0 -61 -2 -124.5t-3 -100.5t-1 -45v-59q0 -90 -41 -91q-72 0 -76 179v84zM236 432q0 -147 67.5 -247.5t192.5 -100.5q135 0 258 96t123 240q0 90 -46 201q-90 215 -280 215q-102 0 -203 -56q-112 -141 -112 -348z" />
<glyph unicode="&#xff;" horiz-adv-x="813" d="M49 367q0 129 38 252.5t118 187.5q25 18 43 18q20 0 33.5 -15t13.5 -36q0 -16 -12 -29q-59 -55 -96 -166.5t-37 -218.5q0 -133 51 -197.5t108 -64.5q92 0 176 105q135 168 154 590q2 25 17.5 40t35.5 15q37 0 45 -45q35 -211 35 -418q0 -51 -4 -149l37 28 q20 14 34.5 14.5t14.5 -16.5q0 -20 -31 -63l-65 -86q-37 -311 -132.5 -474t-199.5 -163q-131 0 -131 162q0 195 377 516q8 82 8 190v64q-47 -176 -146.5 -288t-232.5 -112q-90 0 -149.5 60.5t-81 136.5t-21.5 162zM178 1083q0 29 18.5 52.5t45.5 23.5q12 0 18 -2 q61 -27 62 -78q0 -53 -72 -53t-72 57zM395 -344q0 -61 54 -113q156 168 204 477q-258 -235 -258 -364zM506 1085q0 27 19.5 50.5t49.5 25.5h9q31 0 49 -22.5t18 -51.5q0 -27 -17.5 -45t-49.5 -18q-39 0 -58.5 18t-19.5 43z" />
<glyph unicode="&#x152;" horiz-adv-x="1832" d="M55 664q0 350 195 577q45 0 59 -31q119 80 262 80q117 0 222.5 -61.5t173.5 -186.5q63 229 395 230q207 0 348 -64q39 -18 39 -47q0 -31 -37 -31q-2 0 -19.5 4.5t-46.5 10.5l-67 13q-37 7 -87 11.5t-99 4.5q-350 0 -351 -234q0 -162 119 -213q72 27 158 27t170 -22.5 t84 -55.5t-69.5 -42t-207.5 -9q-41 0 -61 2q-193 -66 -193 -273q0 -74 26 -126t58.5 -77.5t89 -40t91 -16.5t92.5 -2q113 0 226.5 53.5t143.5 102.5q12 23 35 22q35 0 35 -39q0 -25 -12 -41q-59 -96 -183 -146t-231 -50q-403 0 -444 285q-74 -133 -197 -205t-252 -72 q-213 0 -339 196t-126 466zM166 649q0 -150 37 -275.5t118.5 -209.5t192.5 -84q180 0 322.5 159.5t142.5 395.5q0 119 -39 244q-100 319 -371 319q-150 0 -276 -80q-127 -176 -127 -469zM1061 662q4 2 12 10l-12 6v-16z" />
<glyph unicode="&#x153;" horiz-adv-x="1255" d="M2 428q0 80 5 128t36 123t90 136q84 84 191 84q57 0 116 -22q10 12 25 12q18 0 27 -15l22 -30l6 -2q0 -2 30 -52.5t44 -78.5q33 14 63 18q49 72 118 116t145 44q145 0 145 -176q0 -82 -37 -162t-111.5 -153.5t-129 -108.5t-103.5 -60l8 -16q29 -53 81 -88t112 -35 q168 0 303 189q10 16 29 16q16 0 29.5 -14.5t13.5 -34.5q0 -16 -13 -33q-57 -86 -152.5 -152.5t-199.5 -66.5q-100 0 -186 49t-115 137q-86 -176 -291 -176q-111 0 -206 115.5t-95 308.5zM78 424q0 -72 23.5 -139.5t81 -119.5t136.5 -52q106 0 171 104.5t65 241.5 q0 80 -20 143q-66 -31 -97 -31q-14 0 -18 4q-27 10 -27 58q0 25 9.5 77t11.5 66q-47 29 -90 29q-100 0 -173 -119t-73 -262zM471 702q0 -29 27 -28h6q-8 16 -31 49q-2 -9 -2 -21zM651 385q0 -16 4 -53q190 106 293 266q37 86 37 139q0 61 -51 62q-80 0 -181.5 -127 t-101.5 -287z" />
<glyph unicode="&#x178;" horiz-adv-x="1146" d="M37 1247q0 25 18.5 42.5t42.5 17.5q37 0 58 -39l112 -215q43 -80 129 -205t170 -205q72 106 230 320l231 319q20 29 53 29q25 0 45.5 -14.5t20.5 -34.5q0 -12 -6 -21q-78 -123 -247 -349t-235 -325q14 -12 15 -30q0 -23 -15.5 -43.5t-35.5 -20.5q-12 0 -21 6 q-143 -213 -217 -426q-20 -61 -68 -61q-20 0 -34.5 14t-14.5 37q0 16 4 27q72 219 238 485q-51 49 -107.5 116.5t-99.5 130.5l-92 137q-49 75 -76 121l-57 100q-31 54 -33 57q-8 14 -8 30zM360 1501q0 29 18.5 52.5t45.5 23.5q12 0 18 -2q61 -27 62 -78q0 -53 -72 -53 t-72 57zM688 1503q0 27 19.5 50.5t50.5 25.5h8q31 0 49.5 -22.5t18.5 -51.5q0 -27 -17.5 -45t-50.5 -18q-39 0 -58.5 18t-19.5 43z" />
<glyph unicode="&#x2c6;" horiz-adv-x="595" d="M74 1114q0 12 6 21q33 47 120 143t103 96q10 0 23.5 -9t28 -25.5t24.5 -30t22 -31.5l15 -16q20 -25 56 -61t49.5 -54.5t13.5 -34.5q0 -18 -13.5 -30.5t-29.5 -12.5q-6 0 -42 39l-83 89q-47 50 -68 69q-29 -27 -72 -79l-72 -87q-30 -35 -44.5 -35t-25.5 15.5t-11 33.5z " />
<glyph unicode="&#x2dc;" horiz-adv-x="765" d="M41 1225q0 57 73.5 102t137.5 45q49 0 91 -31.5t67.5 -70.5t59.5 -71t67 -32q35 0 69.5 59.5t52.5 59.5q14 0 25.5 -12t11.5 -33q0 -66 -53 -114t-121 -48q-14 0 -39 4q-39 0 -73.5 29t-54 63.5t-48 63.5t-57.5 29q-66 0 -125 -70q-16 -25 -39 -24q-18 0 -31.5 15.5 t-13.5 35.5z" />
<glyph unicode="&#x2000;" horiz-adv-x="856" />
<glyph unicode="&#x2001;" horiz-adv-x="1712" />
<glyph unicode="&#x2002;" horiz-adv-x="856" />
<glyph unicode="&#x2003;" horiz-adv-x="1712" />
<glyph unicode="&#x2004;" horiz-adv-x="569" />
<glyph unicode="&#x2005;" horiz-adv-x="428" />
<glyph unicode="&#x2006;" horiz-adv-x="284" />
<glyph unicode="&#x2007;" horiz-adv-x="284" />
<glyph unicode="&#x2008;" horiz-adv-x="212" />
<glyph unicode="&#x2009;" horiz-adv-x="342" />
<glyph unicode="&#x200a;" horiz-adv-x="94" />
<glyph unicode="&#x2010;" horiz-adv-x="675" d="M59 557q0 16 6.5 25.5t23.5 12.5t32.5 4t48.5 1q338 0 383 4h6q39 0 39 -41q0 -39 -39 -39q-53 0 -115.5 -1t-105.5 -2t-47 -1h-80q-20 0 -51 -2t-41 -2q-60 0 -60 41z" />
<glyph unicode="&#x2011;" horiz-adv-x="675" d="M59 557q0 16 6.5 25.5t23.5 12.5t32.5 4t48.5 1q338 0 383 4h6q39 0 39 -41q0 -39 -39 -39q-53 0 -115.5 -1t-105.5 -2t-47 -1h-80q-20 0 -51 -2t-41 -2q-60 0 -60 41z" />
<glyph unicode="&#x2013;" horiz-adv-x="675" d="M-33 539q0 29 18.5 43t41 17t82.5 7q29 0 83 -5t115 -5q10 0 39 1t47 1h68q29 0 39 -1t18 -1h12q20 0 70 4h10q31 0 47.5 -14.5t16.5 -34.5q0 -14 -5 -22.5t-37 -16.5t-91 -8q-14 0 -86 1t-109 1q-80 0 -136 -3t-82 -5t-30 -2q-10 0 -14 2q-20 6 -52 6t-47.5 5t-17.5 30z " />
<glyph unicode="&#x2014;" horiz-adv-x="1036" d="M-25 547q0 29 18.5 43t41 17t80.5 7q29 0 63.5 -5t93.5 -5q8 0 31 1t37 1q72 0 251 -4t253 -4q59 0 121 4h6q31 0 46 -15.5t15 -35.5q0 -35 -24.5 -39t-192.5 -4q-66 0 -263.5 3t-301.5 3q-125 0 -148 -10h-4q-4 0 -8 2q-18 6 -50 6t-48.5 5t-16.5 30z" />
<glyph unicode="&#x2018;" horiz-adv-x="335" d="M59 1176q0 72 45.5 123t128.5 57q39 0 39 -31q0 -29 -36 -35q-55 -8 -78 -27.5t-26 -48t-5 -32.5q0 33 39 32q35 0 56.5 -19t21.5 -52q0 -39 -31 -69t-70 -30q-37 0 -60.5 43.5t-23.5 88.5z" />
<glyph unicode="&#x2019;" horiz-adv-x="368" d="M104 1249q0 37 31 68t72 31q39 0 64.5 -47.5t25.5 -94.5q0 -135 -150 -182q-37 0 -36 23q0 27 36 45q80 37 80 92q0 16 -6 26q0 -33 -39 -32q-33 0 -55.5 20t-22.5 51z" />
<glyph unicode="&#x201a;" horiz-adv-x="401" d="M121 -100q0 29 33 30q39 12 60.5 36t21.5 44q0 8 -5 17q0 -29 -32 -29q-31 0 -52.5 19.5t-21.5 50.5q0 37 25.5 60.5t56.5 23.5q45 0 70.5 -37t25.5 -84q0 -55 -42 -106.5t-109 -51.5q-31 0 -31 27z" />
<glyph unicode="&#x201c;" horiz-adv-x="567" d="M55 1196q0 63 48.5 112.5t142.5 49.5q33 0 33 -29q0 -31 -37 -37q-117 -20 -117 -82q0 -14 6 -24q0 33 39 33q33 0 60.5 -28t27.5 -61q0 -37 -36 -58t-79 -21q-39 0 -63.5 49t-24.5 96zM293 1200q0 55 49 98t139 43q43 0 43 -30q0 -33 -37 -35q-125 -10 -125 -64 q0 -12 7 -18q0 29 37 29q41 0 75.5 -30t20 -58.5t-49 -56t-69.5 -27.5t-62.5 53t-27.5 96z" />
<glyph unicode="&#x201d;" horiz-adv-x="565" d="M53 1077.5q0 28.5 39 34.5q49 6 77 26.5t28 41.5q0 8 -2 12q0 -29 -35 -29t-68 36t-33 71q0 31 39 54.5t78 23.5q31 0 59.5 -50.5t28.5 -95.5q0 -57 -44 -102t-126 -51q-41 0 -41 28.5zM297 1067q0 33 45 43q96 20 96 61q0 12 -6 23q0 -33 -39 -33q-33 0 -61.5 25.5 t-28.5 56.5q0 41 32 65.5t73 24.5q37 0 66.5 -48t29.5 -89q0 -61 -43 -106.5t-123 -51.5q-41 2 -41 29z" />
<glyph unicode="&#x201e;" horiz-adv-x="565" d="M88 -111q0 33 33 33q39 12 59.5 38t20.5 48q0 8 -4 17q0 -29 -31 -29q-29 0 -47.5 18.5t-18.5 46.5q0 37 23.5 59.5t54.5 22.5q39 0 62.5 -42t23.5 -85q0 -51 -40 -101t-111 -50q-25 -1 -25 24zM324 51q0 33 19 55.5t48 22.5q43 0 70.5 -41t27.5 -86q0 -49 -34.5 -99 t-89.5 -50q-14 0 -24.5 10t-10.5 22q0 23 26 25q76 39 76 80q0 16 -10 26v-4q0 -25 -35 -24q-63 0 -63 63z" />
<glyph unicode="&#x2022;" horiz-adv-x="579" d="M82 676q0 72 62.5 128t144.5 56q94 0 164.5 -64.5t70.5 -123.5q0 -80 -63.5 -154t-134.5 -74q-16 0 -27 2q-12 2 -31.5 4.5t-31 4.5t-23.5 5t-18.5 8t-6.5 11v2q2 2 2 4q-49 16 -78.5 74t-29.5 117zM178 678q0 -104 117 -135q27 0 63 43h-14q-43 0 -74.5 26.5t-31.5 59.5 q0 27 35.5 48t74.5 21q25 0 47 -14q-6 27 -43 44t-78 17q-96 1 -96 -110zM295 676q29 -4 41 -23q4 8 4 11q0 12 -45 12z" />
<glyph unicode="&#x2026;" horiz-adv-x="899" d="M86 39q0 25 22.5 47.5t59.5 26.5h10q27 0 43.5 -18.5t16.5 -43t-19.5 -43t-56.5 -18.5q-76 0 -76 49zM375 37q0 29 21.5 54.5t49.5 25.5q8 0 21 -4q55 -23 55 -70q0 -57 -78 -57q-69 0 -69 51zM672 41q0 29 23.5 55.5t56.5 26.5q14 0 20 -2q55 -12 55 -66 q0 -29 -22.5 -49t-63.5 -20q-69 0 -69 55z" />
<glyph unicode="&#x202f;" horiz-adv-x="342" />
<glyph unicode="&#x2039;" horiz-adv-x="755" d="M152 514q0 25 14 53q39 63 184.5 239.5t167.5 190.5q29 16 53 17q27 0 27 -19q0 -23 -8 -41t-16 -27l-33 -42l-297 -369q18 -20 155 -209l168 -231q18 -27 19 -47q0 -35 -39 -35q-18 0 -29 8q-25 16 -109.5 121.5t-125.5 171.5q-4 8 -42 53t-63.5 89t-25.5 77z" />
<glyph unicode="&#x203a;" horiz-adv-x="761" d="M193 117q0 18 14 26q39 23 362 377q-51 66 -143 142l-155 125q-62 50 -62 68.5t25.5 36t48.5 17.5q10 0 18 -4q14 -12 185 -168.5t204 -183.5q14 -14 15 -31q0 -37 -125 -127q-33 -27 -163 -173t-143 -156q-10 -8 -26 -9q-20 0 -37.5 20t-17.5 40z" />
<glyph unicode="&#x205f;" horiz-adv-x="428" />
<glyph unicode="&#x20ac;" horiz-adv-x="1216" d="M23 549q0 35 31.5 47t97.5 14q0 41 8 111q-33 0 -50.5 2t-34 14.5t-16.5 34.5q0 29 15.5 42t36 15t75.5 5q61 219 211 341.5t332 122.5t371 -124q25 -16 24 -41q0 -18 -16 -34t-37 -16q-23 0 -41 19q-143 92 -287 92q-162 0 -285.5 -106.5t-158.5 -262.5q14 -2 49 -2 q20 0 84 2t105 2h118q18 0 56.5 1t54.5 1q53 0 53 -45q0 -25 -15.5 -44t-37.5 -19q-6 0 -103.5 1t-224.5 1q-35 0 -87 -1t-70 -1q-8 -55 -9 -113q18 0 555 10q53 0 54 -45q0 -23 -15.5 -42t-38.5 -19h-82q-33 0 -206.5 -2t-259.5 -2q23 -201 148.5 -295t307.5 -94 q217 0 418 110q6 2 14 2q29 0 29 -32q0 -80 -130 -141.5t-316 -61.5q-221 0 -385 130t-205 382h-37q-100 0 -100 41z" />
<glyph unicode="&#x2122;" horiz-adv-x="1200" d="M55 1227q0 10 12.5 15t36 7t44 2t48 -1t37.5 -1v8q0 20 33 21q29 0 43 -12l23 -17h182q18 0 18 -37q0 -16 -5 -27t-12 -16.5t-20.5 -8.5t-20.5 -4t-22.5 0t-17.5 1q-18 0 -56 3t-46 3q6 -209 6 -213q0 -141 -12.5 -185t-57.5 -44q-25 0 -45 10t-20 25q0 6 12 16 q27 20 27 209q0 66 -4 180q-10 0 -30 -1t-28 -1q-10 0 -34.5 -2t-36 -1t-26.5 7t-21.5 21.5t-6.5 42.5zM582 754q0 63 2 250.5t2 255.5q14 25 84 24q45 0 65 -16q35 -41 76 -164t43 -127q12 18 51 145t64 152q14 10 53 10q76 0 82 -43q0 -70 -3 -214t-3 -218v-55 q0 -29 -43 -29q-35 0 -39 23q-4 59 -4 186v156q0 63 -2 86q-14 -27 -44 -117t-56.5 -154.5t-47.5 -64.5q-39 0 -61 34q-18 43 -48 128t-47.5 128.5t-25.5 43.5q-4 0 -5 -74t-3 -181.5t-6 -162.5q-4 -25 -50 -25q-34 0 -34 23z" />
<glyph horiz-adv-x="528" />
<glyph horiz-adv-x="899" d="M102 274q0 -16 -10 -25t-24 -9q-35 0 -35 34q18 248 146 495t313 431q0 31 32 31q39 0 39 -35q199 -311 391 -852q0 -10 -16 -23.5t-31 -13.5q-23 0 -22 37q-43 78 -101.5 256t-105.5 250q-20 88 -115 231q-14 61 -37 62q-16 0 -77 -62q-292 -483 -347 -807zM102 713 q-53 0 -53 32q0 35 53 35h668q10 0 23.5 -15t13.5 -30q0 -43 -266 -43q-78 0 -224.5 10.5t-214.5 10.5z" />
<glyph horiz-adv-x="993" d="M207 1133q10 0 25.5 -13.5t15.5 -21.5q0 -10 -19 -11q-57 -49 -87.5 -145t-30.5 -207q0 -166 59 -268q123 -88 307 -88q188 0 350 86q35 47 35 100q0 199 -317 199q-186 0 -316 -92q0 35 -3 44t-19 25q141 0 272 56.5t131 144.5q0 55 -45 100t-106 45q-27 18 -64 19 q-23 0 -48 -7t-60 -18.5t-58 -17.5q-14 0 -28.5 9t-14.5 24q0 39 76 64.5t137 25.5q113 0 201 -62.5t113 -175.5q0 -80 -57.5 -139t-143.5 -86t-156.5 -39t-126.5 -12q-12 0 -27.5 14t-15.5 29q0 47 132.5 89t240.5 42q162 0 265.5 -84t103.5 -195q0 -121 -122 -193.5 t-306 -72.5q-285 0 -385 141q-59 152 -60 320q0 252 152 371z" />
<glyph horiz-adv-x="905" d="M719 1090q10 -10 10 -23q0 -23 -20 -23q-14 0 -35 21q-63 57 -142 57q-86 0 -164.5 -62.5t-125.5 -148.5t-75 -169t-28 -134q0 -115 98.5 -167t251.5 -52q182 0 345 55q18 0 18 -49q0 -51 -18 -65q-197 -45 -336 -45q-231 0 -377 112q-74 125 -74 236q0 90 51 155 q47 125 184.5 260.5t264.5 135.5q100 0 172 -94z" />
<glyph horiz-adv-x="911" d="M102 1071q18 18 35 19q14 0 23.5 -14.5t9.5 -28.5q-10 -18 -10 -54q0 -27 5 -123t5 -168q0 -254 47 -323q20 -20 68 -21q43 0 105.5 17.5t129 42t88.5 31.5q172 123 172 274q0 129 -111.5 238.5t-267.5 109.5q-184 0 -254 -24q-16 -16 -32 -17q-12 0 -22.5 9.5 t-10.5 17.5q0 14 20 14q74 98 254 98q184 0 342 -151.5t158 -302.5q0 -170 -178 -289q-10 -4 -101.5 -46t-162 -64.5t-129.5 -22.5q-45 0 -78 15.5t-52.5 50t-30.5 63.5t-15.5 82t-5.5 76.5t-1 74.5q0 57 -23.5 149.5t-23.5 149.5q0 92 47 117z" />
<glyph horiz-adv-x="937" d="M823 1221q35 0 35 -35t-35 -35q-299 0 -413 -45h-207q-51 -18 -60.5 -35.5t-9.5 -103.5q47 -207 47 -621l-47 23q266 53 399 53q94 0 227.5 -30t133.5 -58q0 -35 -70 -35q-94 20 -229 20q-78 0 -231.5 -10t-229.5 -10q-20 0 -31.5 12.5t-11.5 24.5l-2 10q0 123 -11 393.5 t-11 411.5q0 45 22 45q229 25 735 25zM594 805q20 10 39 10q37 0 37 -39q0 -14 -9.5 -26.5t-21.5 -12.5h-506q-43 0 -43 29q0 14 12.5 26.5t30.5 12.5h461z" />
<glyph horiz-adv-x="843" d="M772 1159q29 0 29 -24q0 -16 -22.5 -28.5t-65.5 -20t-86 -11.5t-107.5 -5t-104.5 -2t-99.5 0t-71.5 1q-43 -12 -64.5 -32.5t-24.5 -37t-3 -47.5v-620q0 -25 -10.5 -39t-24.5 -14q-35 0 -35 53v483q0 20 -10.5 93t-10.5 112q0 61 21 94q70 45 276 45h414zM590 768 q16 0 16 -23q0 -18 -35.5 -29t-102.5 -15.5t-123 -4.5t-135 2t-104 2q-18 0 -18 33q0 35 18 35h484z" />
<glyph horiz-adv-x="1050" d="M874 1120q16 0 17 -20q0 -14 -8.5 -27.5t-16.5 -13.5q-6 0 -12 12q-102 51 -215 51q-195 0 -354.5 -133t-159.5 -344q0 -127 84 -189.5t186 -62.5q133 0 265.5 88t193.5 197q8 20 31 20q16 0 29.5 -9t13.5 -19q0 -8 -13 -15q-51 -129 -220 -241.5t-324 -112.5 q-129 0 -218.5 103.5t-89.5 285.5q0 215 171.5 358.5t383.5 143.5q145 0 256 -72zM418 678q-8 16 -8 37q0 29 18 28q12 0 31 -18q39 0 108.5 -1t100.5 -1q184 0 247 47q43 0 64 -45q0 -55 -14.5 -160.5t-14.5 -152.5q0 -74 29 -129q0 -12 -17.5 -27.5t-32 -15.5t-14.5 20 q-66 90 -65 178q0 25 7 90.5t7 110.5q12 0 12.5 4t-8 12.5t-8.5 10.5q0 4 14 4q-90 -18 -235 -19q-127 0 -221 27z" />
<glyph horiz-adv-x="960" d="M158 1161q0 37 22 37q14 0 30.5 -13.5t16.5 -23.5q-25 -276 -24 -827q-33 -35 -86 -35q-51 0 -51 35q0 311 92 827zM778 1161q0 37 23 37q14 0 30.5 -13.5t16.5 -23.5q0 -553 -23 -827q-35 -35 -88 -35q-51 0 -51 35q92 536 92 827zM158 678q-37 0 -56.5 17.5t-19.5 39.5 q0 35 31 35q274 23 782 23q33 0 33 -35q0 -33 -33 -33q-508 0 -737 -47z" />
<glyph horiz-adv-x="548" d="M268 1204q0 20 14.5 20.5t34 -16t19.5 -26.5q0 -553 -45 -828q0 -35 -35 -35t-35 35q0 576 47 850zM129 1137q-53 0 -53 39q0 29 30 28q39 27 80 38t69 13t108.5 -1t134.5 -3v-69q-39 -18 -61.5 -27.5t-57.5 -14.5t-51.5 -5t-83 1t-115.5 1zM106 307q-20 0 -36.5 18.5 t-16.5 39.5q0 35 53 34q18 0 76 1t104 2t98 -1t82 -8t30 -18q0 -25 -43 -68h-347z" />
<glyph horiz-adv-x="829" d="M88 1085q-43 20 -43 45q0 18 105.5 39t260 47.5t230.5 51.5q10 0 15.5 -11.5t7.5 -23.5v-10q111 -150 110 -385q0 -266 -125 -419t-289 -153q-80 0 -179 37t-99 90q0 37 27 37q14 0 26 -12q121 -72 230 -72q133 0 184 117q115 143 115 368q0 115 -23 207v127v-12 q-309 -68 -553 -68z" />
<glyph horiz-adv-x="1038" d="M205 1243q55 0 55 -8q0 -6 -8 -14q-12 -86 -47 -288t-51.5 -338t-16.5 -271q0 -35 -47 -35q-45 0 -45 35q0 152 3 238.5t16.5 222t48.5 248t92 210.5zM827 1243q53 0 54 -37q0 -16 -9 -32q-61 -49 -130 -99l-111 -79q-43 -30 -131 -81l-111 -63l-132 -73 q-110 -60 -120 -64v67q543 -82 850 -391q4 -12 4 -20q0 -25 -18.5 -44.5t-42.5 -19.5q-20 0 -35 17q-66 66 -154 123t-206.5 109t-191.5 81l-206 78q-35 0 -35 16q0 18 35 51q459 324 690 461z" />
<glyph horiz-adv-x="868" d="M106 1169q6 37 37 37q18 0 35 -10t17 -20q0 -47 1 -130t1 -120q0 -332 -31 -580q-14 18 -27.5 27.5t-19.5 11.5t-18.5 3t-16.5 1q356 16 553 17q8 0 35.5 2t46 2t40 -4.5t33 -16.5t11.5 -33q0 -27 -31 -26h-8q-188 -16 -389 -17q-315 0 -316 29q0 2 11 2h10 q33 274 33 565q-1 127 -7 260z" />
<glyph horiz-adv-x="1181" d="M139 348q-2 -18 -18.5 -29.5t-34.5 -11.5q-43 0 -43 43v6q-6 301 -6 324q0 125 17.5 307t51.5 182q16 0 52 -20q47 -78 130 -170t191.5 -201.5t161.5 -169.5q-49 4 -96 6l233 289q160 201 279 336q31 -2 46 -5t30.5 -14.5t15.5 -31.5q0 -94 -6 -285.5t-6 -288.5 q0 -160 10 -278q8 -14 8 -27q0 -27 -35 -26q-49 0 -49 34q-31 123 -31 301q0 78 8.5 230.5t8.5 226.5q0 37 -4 115q23 0 45 -24.5t47 -26.5q-68 -49 -124 -101.5t-114 -127.5l-87 -114q-30 -40 -97 -145l-90 -137l-96 8q-68 119 -232 308.5t-219 277.5h10q12 0 62 41 q-31 -117 -31 -272q0 -68 8 -203t8 -207q0 -41 -4 -119z" />
<glyph horiz-adv-x="849" d="M160 295q-4 -12 -27 -12q-43 0 -43 22q-27 135 -27 326q0 86 5.5 182t13.5 216l12 181q25 37 66 37h8q135 -147 319.5 -456.5t264.5 -411.5q-2 -20 -11 -21q-4 0 -22.5 10.5t-34.5 12.5q-6 147 -7 408.5t-5 390.5q6 53 53 53q33 0 66 -23q-23 -166 -23 -350 q0 -109 10 -307.5t10 -222.5q-2 -12 -20 -25.5t-34.5 -13.5t-16.5 16v6q-250 399 -629 850q10 0 28.5 9.5t32 18.5t13.5 11v-94q0 -92 -6 -274.5t-6 -278.5q0 -147 10 -260z" />
<glyph horiz-adv-x="991" d="M221 1184q33 0 51.5 -28t18.5 -64q-74 -68 -117 -182.5t-43 -231.5q0 -139 59.5 -231.5t176.5 -92.5q53 0 134 30t166 82t145 137t60 179q0 61 -30 125q-53 182 -338 183q-70 0 -238 -21q-14 -16 -24.5 -16t-10.5 16q0 66 102.5 95.5t213.5 29.5q135 0 233.5 -58.5 t130.5 -181.5q31 -78 31 -151q0 -111 -57.5 -211t-143.5 -165t-182 -101.5t-178 -36.5q-160 0 -251 130t-91 316q0 281 182 449z" />
<glyph horiz-adv-x="882" d="M201 293q0 -16 -35 -16.5t-35 16.5q-2 18 -22.5 141t-27.5 172t-16.5 140.5t-9.5 160.5q0 223 80 314.5t242 91.5q227 0 333.5 -101.5t106.5 -253.5q0 -168 -153.5 -277.5t-294.5 -109.5q-78 0 -151 27t-73 82q0 20 17 20q12 0 39 -16q68 -10 135 -10q86 0 168 20.5 t153.5 87t71.5 170.5q0 113 -97 176.5t-224 63.5q-45 16 -82 16q-66 0 -107 -45t-41 -133q-35 -49 -35 -110.5t35 -143.5q0 -321 23 -483z" />
<glyph horiz-adv-x="1140" d="M438 1192q-20 20 -20 35q0 12 61.5 25.5t100.5 13.5q188 0 333.5 -148.5t145.5 -353.5q0 -184 -184.5 -332.5t-380.5 -148.5q-195 0 -310.5 162.5t-115.5 365.5q0 209 141 319.5t346 110.5q45 0 68 -2q29 -33 28 -68q0 -37 -33 -36q-20 0 -43 12q-358 0 -413 -277 q0 -88 16.5 -170t53 -158.5t106.5 -123.5t166 -47q147 0 281.5 92t158.5 223q12 70 12 115q0 168 -104 229q-33 47 -71 79t-69.5 48.5t-82.5 24.5t-85 9t-106 1zM1059 340q8 0 8 -8q0 -10 -15.5 -23.5t-37.5 -13.5q-16 10 -53 30.5t-58.5 34t-43 39t-30.5 58.5 q-39 55 -99 110.5t-107 71.5q-20 20 -21 45q0 20 14.5 35.5t32.5 15.5q12 0 19 -4q160 -102 184 -207q8 -12 19.5 -24.5t19.5 -22.5t23 -23l24 -21q8 -7 28 -22l27 -22l33 -24z" />
<glyph horiz-adv-x="1110" d="M1073 334q20 -20 20.5 -41t-15 -36t-27.5 -15q-78 76 -390.5 243.5t-441.5 167.5q-59 0 -65 -43q0 23 -45 23q141 0 217.5 3t184 24.5t171.5 64.5q139 70 139 184q0 111 -108.5 197t-241.5 86q-143 0 -195.5 -106.5t-52.5 -290.5q0 -51 22.5 -201t22.5 -236 q0 -14 -15 -29.5t-35.5 -15.5t-41.5 21q-37 362 -37 465q0 170 37 295q18 102 91 147t175 45q190 0 338 -126t148 -257q0 -106 -129 -178q-66 -57 -148 -92t-186.5 -48.5t-172 -16.5t-183.5 -3l-48 45q31 123 168 123q76 0 179.5 -34.5t212 -93l190.5 -106.5l169 -105z" />
<glyph horiz-adv-x="997" d="M891 1083q18 -18 18 -32q0 -20 -28 -21q-18 0 -35 8q-156 156 -375 156q-131 0 -246 -64q-72 -94 -71 -124q0 -37 71 -37q51 -27 129 -44.5t101 -25.5q20 -8 90.5 -28.5t129 -43t123 -54.5t102.5 -78t38 -101q0 -90 -81 -162t-187.5 -105.5t-202.5 -33.5q-233 0 -404 123 q-4 12 -4 33q0 33 17.5 50t42.5 17q20 0 37 -8q121 -121 315 -121q113 0 256 59.5t143 137.5q0 47 -81.5 95t-179.5 77l-206 58q-109 30 -133 40q-82 0 -146.5 41t-64.5 102q0 45 33 89t57.5 61.5t75.5 50.5q115 90 262 90q115 0 221.5 -54.5t182.5 -150.5z" />
<glyph horiz-adv-x="1038" d="M106 1098q-66 33 -65 57q0 10 20 10q115 47 392 47h505q33 0 33 -47q0 -45 -33 -45q-82 -10 -237.5 -10t-222.5 -12h-392zM498 1120q0 39 28 39q61 0 62 -627q0 -14 2 -57t1 -71.5t-3 -62.5t-12.5 -51.5t-29 -17.5t-33.5 12.5t-15 30.5v805z" />
<glyph horiz-adv-x="1032" d="M152 1239q0 18 24 18q20 0 41 -12t21 -28q0 -12 -13 -21q-68 -190 -67 -414q0 -387 252 -387q43 0 112 17q190 47 287.5 187t97.5 331q0 150 -63 315l69 -6q29 -141 32 -447.5t28 -453.5q-2 -18 -20.5 -30.5t-41.5 -12.5q-47 0 -47 47q-6 125 -6 425t-14 478q2 39 65 39 q31 0 31 -14q27 -201 27 -338q0 -276 -109.5 -433t-370.5 -192q-57 -8 -84 -8q-180 0 -265 136t-85 343q1 254 99 461z" />
<glyph horiz-adv-x="1101" d="M45 1202q-12 12 -12 23q0 33 53 32q33 0 45 -20l191 -373q145 -283 225 -456q-6 0 -6 4q0 16 41 65q6 16 35 88l38 91l35 81q27 61 39 86l37 79t43 87l45 81l53.5 91t57.5 88q0 18 18 19q23 0 48.5 -21.5t25.5 -44.5q-348 -649 -451 -899q-23 -23 -82 -22q-31 0 -30 12 l-200 413q-155 322 -249 496z" />
<glyph horiz-adv-x="1370" d="M45 1149q-4 6 -4 18q0 18 15.5 31.5t35.5 13.5q27 0 45 -18q31 -125 126 -415t132 -449q-68 0 -67 45q51 84 98 174t113 229l98 205q14 33 43 33q27 0 27 -33q57 -115 171.5 -321.5t172.5 -323.5q-51 -2 -99 -47q33 139 129.5 448.5t132.5 479.5q20 10 41 10 q29 0 51.5 -15.5t22.5 -39.5q-51 -145 -94 -280l-103 -336q-60 -202 -81 -265q0 -37 -33 -37q-31 0 -66 35q-66 106 -172 351t-143 319h70q-16 -33 -127 -287t-207 -391q0 -8 -8 -9q-29 0 -84 56q-140 557 -236 819z" />
<glyph horiz-adv-x="1056" d="M57 1100q-20 18 -20 38.5t20.5 37t44.5 16.5q209 -141 398 -332q96 -76 195.5 -170t162.5 -165l164 -185q0 -25 -13.5 -45.5t-29.5 -20.5t-25 21q-178 74 -438 436q-256 224 -459 369zM172 295q-20 -20 -43 -21q-20 0 -33.5 18.5t-13.5 41.5q41 80 187.5 219t179.5 178 q72 61 145 135l168 174l145 152q23 18 43 18t34.5 -12t14.5 -31q0 -8 -4 -20q-115 -150 -411.5 -426t-411.5 -426z" />
<glyph horiz-adv-x="1030" d="M76 1174q-12 12 -13 24q0 16 17.5 28.5t40.5 12.5q27 0 47 -18q88 -123 211 -260.5t223 -221.5q33 -18 33 -39q0 -18 -21.5 -33.5t-44.5 -15.5q-20 0 -26 15q-209 148 -467 508zM889 1255q0 18 16 19q18 0 41 -20.5t23 -43.5q-57 -100 -154 -235l-176 -240 q-80 -104 -161 -238.5t-120 -252.5q-20 -20 -43 -21q-25 0 -43 19.5t-18 42.5q72 154 178.5 316.5t245.5 353.5t211 300z" />
<glyph horiz-adv-x="1017" d="M178 1145q-18 0 -30.5 12t-12.5 27q0 31 43 30h690q23 0 44.5 -19t21.5 -36q0 -14 -19 -14q-137 -137 -391 -414l-391 -416v93q131 -20 277 -21q92 0 276 10.5t275 10.5q18 0 18 -48q0 -45 -18 -45q-182 -16 -435 -16q-250 0 -415 16q-20 20 -20.5 47t20.5 46 q348 420 735 806q23 -25 22 -69h-690z" />
<glyph horiz-adv-x="813" d="M629 723q0 35 35 35q43 0 43 -101q0 -129 -89.5 -241.5t-216.5 -112.5q-158 0 -239.5 119t-81.5 278q0 98 36 214t124 215.5t206 99.5q88 0 183 -68q94 -94 94 -241q0 -113 -53.5 -230t-132.5 -196q0 -8 -13 -9q-27 0 -26 23q0 14 16 31q59 61 103.5 157.5t44.5 192.5 t-60.5 177t-152.5 81q-117 0 -202 -140.5t-85 -328.5q0 -123 51 -212t170 -89q117 0 181.5 102.5t64.5 243.5z" />
<glyph horiz-adv-x="559" d="M186 965q-8 -8 -30 -9q-53 0 -54 31q0 18 33 43t79 52.5t62 43.5q18 33 43 33q27 0 27 -33v-804q0 -35 -35 -35t-35 35v804q18 -35 26.5 -41t43.5 -6q-97 -46 -160 -114zM162 344q18 0 18 -12q0 -10 -18 -10q-35 0 -40 3t-5 19q45 45 159 45q12 0 46 1t59 1t52.5 -2 t43 -8t15.5 -19q0 -8 -4.5 -15t-13.5 -11t-20.5 -7t-29.5 -5t-34.5 -3.5t-42 -1.5t-47 1.5t-54.5 1.5h-60q0 -20 -8 -21q-6 0 -16 21h24q-22 -1 -24 22z" />
<glyph horiz-adv-x="714" d="M276 885q16 0 17 -35q0 -33 -17 -33q-137 20 -137 117q0 80 75 131t179 51q63 0 113.5 -27.5t50.5 -89.5q0 -152 -119 -321l-63 -94l-70 -103q-20 -29 -61 -79t-82 -91q0 8 -23.5 25.5t-23.5 42.5h506q35 0 34 -35q0 -33 -34 -33h-506q-53 0 -54 37q0 14 9 31 q57 57 160.5 173t160.5 173q70 137 70 229q0 94 -72 95q-51 0 -103.5 -41t-52.5 -80q0 -31 43 -43z" />
<glyph horiz-adv-x="808" d="M125 1020q-35 0 -35 53t35 53h391q23 0 23 -69l-83.5 -64.5t-87 -68t-66.5 -63.5t-62 -81l-68 70q68 55 176 55q133 0 249 -80t116 -209t-152.5 -222t-329.5 -93q-109 0 -125 27q-6 8 -6 20q0 35 17 35q276 0 354 53q141 80 141 170q0 92 -77.5 152.5t-174.5 60.5 q-51 0 -105 -28.5t-69 -28.5q-33 0 -32 29q0 18 18 36q31 61 76 107.5t114.5 99.5t108.5 92q0 -27 22.5 -44t22.5 -25q-94 -37 -291 -37h-100z" />
<glyph horiz-adv-x="847" d="M162 1133q27 12 55 12q49 0 49 -23q-51 -369 -112 -520l-23 47q66 0 216.5 19.5t234.5 19.5q184 0 184 -39q0 -18 -15.5 -32.5t-43.5 -14.5q-92 0 -288 -22.5t-288 -22.5q-41 2 -45 45q20 72 33.5 163t25 204t17.5 164zM518 1141q0 31 37 30q20 0 35.5 -10t15.5 -28 q-51 -426 -51 -805q0 -53 -35 -54q-20 0 -38.5 18.5t-18.5 39.5q0 385 55 809z" />
<glyph horiz-adv-x="770" d="M236 1204q25 25 38 25q25 0 29 -72q-33 -203 -182 -414l-47 23q63 82 152 130t173 48q82 0 143.5 -49t84.5 -152q20 -61 20 -116q0 -109 -79 -184.5t-188.5 -107.5t-234.5 -32q-4 0 -20 -1t-24.5 0t-19.5 3t-16.5 9.5t-5.5 19.5q0 25 15.5 45t46.5 20q446 0 446 228 q0 113 -70.5 177t-140.5 64q-111 0 -235 -125q0 -20 -17 -20q-10 0 -22 11t-12 22q0 6 4 10q27 47 47 89t37.5 91t26 77t26 92t25.5 89zM633 1167q31 0 31 -34q0 -43 -37 -43h-439q-16 0 -16 32q0 35 16 35q61 12 201 12q39 0 121 -1t123 -1z" />
<glyph horiz-adv-x="663" d="M571 1251q16 0 17 -47q0 -45 -17 -45q-162 -49 -305 -220t-143 -341q0 -57 10 -82q16 -45 88 -74.5t148 -29.5q68 0 111.5 25.5t43.5 78.5q0 98 -53 163.5t-129 65.5q-59 0 -117 -45q-20 -20 -43 -20q-20 0 -36.5 14.5t-16.5 32.5q0 12 4 18q106 82 213 82 q111 0 182.5 -81.5t71.5 -217.5q0 -113 -89 -168t-216 -55q-121 0 -182.5 85t-61.5 183q0 106 60 195q53 160 171.5 287.5t288.5 195.5z" />
<glyph horiz-adv-x="679" d="M176 1194q16 0 17 -29q0 -27 -17 -63q-27 -10 -45 -2t-27.5 10t-13.5 19.5t-5 28.5t-1 36q53 0 159.5 5t162.5 5q94 0 161 -10q23 0 23 -92q-158 -346 -232 -850q-12 -14 -47 -14q-68 0 -67 59q23 139 72 301t88 264l116 287l47 -47q-324 0 -483 -23q-12 0 -28.5 19.5 t-16.5 34.5q0 16 20 16q25 45 117 45zM244 688q-43 14 -43 53q0 29 20 29q2 0 38 -13.5t58 -13.5q35 0 100.5 13.5t100.5 13.5q57 0 91 -25.5t34 -48t-25 -22.5q-14 0 -28 14h-232q-12 -20 -28 -20q-12 0 -41 10t-45 10z" />
<glyph horiz-adv-x="690" d="M276 887q12 4 17 4q18 0 28.5 -17.5t10.5 -40t-8 -38.5q-162 -123 -162 -277q0 -39 16.5 -66.5t38 -41t62 -20.5t65.5 -8t72 -1q123 0 123 53q0 49 -74 110.5t-161 116t-160.5 146.5t-73.5 194q31 92 153.5 162t241.5 70q80 0 120 -50t40 -106q0 -49 -29 -117.5 t-49 -101.5l-68 -104q-25 -10 -39 -11q-47 0 -47 52q4 6 45 61t73 113.5t32 95.5q0 59 -105 59q-90 0 -176 -58t-86 -108q0 -29 18.5 -61.5t40 -59t62.5 -62.5t64.5 -54.5t67.5 -50t50 -37.5q156 -123 156 -211q0 -43 -48 -74t-100.5 -41t-99.5 -10q-158 0 -242 58.5 t-84 144.5q0 92 68.5 200.5t146.5 186.5z" />
<glyph horiz-adv-x="694" d="M551 1159q18 -8 18 -22q0 -20 -24 -21q-12 0 -61.5 31t-82.5 31q-86 0 -166.5 -78t-80.5 -158q0 -68 42 -106.5t83 -38.5q63 0 110 63q43 33 64.5 87t24.5 95t3 117q16 35 49 35q31 0 66 -35q27 -147 27 -276q0 -164 -40 -288t-147.5 -213t-275.5 -97q-31 0 -46.5 15 t-15.5 34q0 20 15 20q217 23 319.5 157t102.5 329q0 143 -54 297h115q-59 -215 -100 -283q-76 -127 -226 -127q-184 0 -184 188q0 135 89 245t198 110q104 0 178 -111z" />
<glyph horiz-adv-x="768" d="M106 162q0 -23 -24.5 -23t-24.5 23q12 170 114.5 342t248.5 317q0 23 8 23t8 -23q141 -225 279 -608q0 -8 -11.5 -17.5t-21.5 -9.5q-14 0 -45 80l-66 179q-35 99 -53 128q-10 39 -35.5 90.5t-47 85t-25.5 33.5q-12 0 -56 -43q-207 -341 -248 -577zM106 475 q-37 0 -36.5 24.5t36.5 24.5h478q8 0 17 -11t9 -21q0 -31 -190 -31q-55 0 -161 7t-153 7z" />
<glyph horiz-adv-x="702" d="M147 809q8 0 19.5 -9t11.5 -16q0 -8 -14 -8q-70 -57 -70 -194q0 -125 53 -215q14 -102 158 -103q61 0 105 19q207 0 206 118q0 143 -227 144q-133 0 -225 -66q0 35 -17 51q100 0 194.5 40t94.5 104q0 51 -50 84t-105 33q-20 0 -61.5 -13.5t-55.5 -17.5q-31 0 -31 22 q0 29 54.5 47.5t97.5 18.5q80 0 143.5 -45t81.5 -125q0 -57 -41 -99t-102.5 -61.5t-112.5 -29t-90 -9.5q-10 0 -20.5 10.5t-10.5 22.5q0 33 94.5 62.5t171.5 29.5q117 0 190 -61.5t73 -139.5q0 -86 -86.5 -137t-217.5 -51q-207 0 -276 100q-41 113 -41 230q0 180 106 264z " />
<glyph horiz-adv-x="665" d="M514 778q6 -8 6 -16q0 -14 -14 -14q-8 0 -54 26.5t-71 26.5q-82 0 -150.5 -75t-99.5 -158t-31 -134q0 -156 250 -155q129 0 246 38q12 0 12 -34.5t-12 -46.5q-131 -31 -240 -31q-170 0 -270 80q-53 86 -53 168q0 66 37 110q35 88 133 185.5t188 97.5q70 0 123 -68z" />
<glyph horiz-adv-x="661" d="M74 766q12 12 24 12q23 0 23 -30q-8 -14 -8 -39q0 -12 4 -49t4 -60q0 -2 -2 -26.5t-2 -52.5v-65q0 -38 5 -72t14 -63.5t26.5 -47t40.5 -17.5q41 0 135 31.5t96 31.5q123 86 123 195q0 94 -80 173t-190 79q-131 0 -183 -18q-10 -10 -22 -11q-23 0 -23 19q0 10 15 10 q51 70 180 70t243.5 -107.5t114.5 -218.5q0 -123 -129 -205q-8 -4 -54 -25.5t-75.5 -34t-73.5 -24.5t-77 -12t-56.5 11t-37 37t-21.5 45.5t-11 59t-3 54.5v53q0 41 -17.5 106.5t-17.5 106.5q0 66 35 84z" />
<glyph horiz-adv-x="706" d="M588 872q27 0 26 -26q0 -25 -26 -25q-90 0 -238.5 -15t-204.5 -15q-39 -14 -45 -26.5t-6 -74.5q35 -147 35 -442l-35 16q193 37 289 37q66 0 160 -21.5t94 -41.5q0 -25 -49 -25q-63 14 -164 14q-55 0 -164.5 -7t-165.5 -7q-14 0 -21 8t-7 17l-3 10q0 88 -8 280.5 t-8 292.5q0 33 16 33q165 18 525 18zM424 575q14 8 27 9q27 0 26.5 -29t-20.5 -29h-363q-31 0 -31 21q0 10 9.5 19t21.5 9h330z" />
<glyph horiz-adv-x="624" d="M551 827q20 0 20 -18q0 -45 -315 -45q-55 0 -87 -5t-44 -19.5t-14 -24.5t-2 -35v-442q0 -39 -25 -39q-10 0 -17.5 28.5t-8.5 78.5t-1 95t1 103.5t1 77.5q0 16 -7 67t-7 80q0 45 14 68q49 31 197 30h295zM422 549q12 0 12 -17q0 -14 -26.5 -22t-73.5 -10t-88 -2t-97.5 1 t-72.5 1q-12 0 -12.5 24.5t12.5 24.5h346z" />
<glyph horiz-adv-x="747" d="M625 801q12 0 12 -15q0 -10 -6 -20t-13 -10q-4 0 -8 10q-70 35 -153 35q-139 0 -253 -94.5t-114 -245.5q0 -90 59.5 -135t133.5 -45q94 0 188 63.5t139 138.5q6 16 23 17q10 0 20.5 -6.5t10.5 -14.5q0 -6 -11 -10q-37 -92 -156.5 -173t-232.5 -81q-92 0 -155.5 73.5 t-63.5 205.5q0 152 122 255t275 103q105 0 183 -51zM299 483q-6 16 -6 27q0 20 12 20q10 0 23 -12q29 0 80 -1t73 -1q125 0 172 35q14 0 25.5 -8t15.5 -17l4 -8q0 -41 -10 -115.5t-10 -107.5q0 -53 20 -92q0 -10 -12 -20.5t-22.5 -10.5t-10.5 14q-47 63 -47 127q0 18 5 64.5 t5 79.5l11 2q0 2 -6.5 8t-6.5 8q0 4 11 4q-63 -14 -168 -14q-86 0 -158 18z" />
<glyph horiz-adv-x="700" d="M113 829q0 27 16 27q10 0 21.5 -9t11.5 -18q-16 -197 -17 -591q-25 -25 -61.5 -25t-36.5 25q0 231 66 591zM555 829q0 27 16 27q12 0 23.5 -9t11.5 -18q0 -395 -16 -591q-29 -25 -64 -25q-37 0 -37 25q66 370 66 591zM113 483q-55 0 -56 43q0 25 23 25q197 14 559 14 q25 0 25 -24q0 -23 -25 -23q-362 0 -526 -35z" />
<glyph horiz-adv-x="399" d="M193 860q0 14 10 14t23.5 -11t13.5 -19q0 -616 -58 -617q-25 0 -24 27q0 409 35 606zM92 811q-39 0 -39 29q0 20 23 20q29 18 58.5 26.5t49 9.5t77.5 -1t95 -2v-49q-29 -14 -44 -20.5t-39.5 -10.5t-37 -4t-59.5 1t-84 1zM76 219q-14 0 -26.5 13.5t-12.5 27.5q0 25 39 25 q10 0 49 1t73.5 1t72.5 -1t60.5 -5.5t22.5 -12.5q0 -18 -30 -49h-248z" />
<glyph horiz-adv-x="612" d="M63 776q-31 14 -30 31q0 12 73.5 27.5t185 35t167.5 35.5q14 0 14 -33q80 -106 80 -274q0 -190 -89 -299t-206 -109q-57 0 -129 27t-72 64q0 27 21 26q10 0 18 -8q92 -51 166 -51q100 0 155.5 113.5t55.5 232.5q0 43 -7 133t-7 104q-171 -55 -396 -55z" />
<glyph horiz-adv-x="747" d="M145 889q41 0 41 -6q0 -4 -6 -11l-34 -202q-26 -152 -37 -247t-11 -192q0 -27 -32.5 -26.5t-32.5 26.5q0 145 4 228.5t29.5 210.5t78.5 219zM592 889q37 0 37 -27q0 -12 -6 -24q-37 -31 -74 -58.5t-79 -54.5l-71 -46q-29 -19 -76 -46l-71 -39l-79 -43l-75 -41v49 q387 -59 607 -280q4 -8 4 -15q0 -16 -14.5 -30.5t-30.5 -14.5q-12 0 -25 12q-61 59 -165.5 117t-177.5 87.5t-198 74.5q-27 0 -26.5 12.5t26.5 36.5q347 244 494 330z" />
<glyph horiz-adv-x="612" d="M76 836q2 27 26 26q12 0 24.5 -8t12.5 -16q0 -31 1 -86.5t1 -81.5q0 -221 -22 -422q-10 12 -19.5 19t-13.5 9.5t-14 2.5h-13q223 12 371 12q6 0 29.5 1t39 1t35 -3t29.5 -12.5t10 -23.5q0 -18 -22 -18h-6q-133 -10 -293 -11q-209 0 -209 19q0 2 6 2h8q23 213 23 405 q0 62 -4 185z" />
<glyph horiz-adv-x="872" d="M100 248q-4 -29 -39 -29q-31 0 -30 31q0 37 -2 114.5t-2 120.5q0 94 11 222.5t38 128.5q14 0 37 -15q33 -55 92 -121.5t138 -144.5t116 -121q-37 4 -70 4l164 203l203 244q66 -4 65 -37q0 -70 -5 -205t-5 -205q0 -111 8 -198q6 -12 6 -21q0 -18 -24 -18q-35 0 -35 26 q-25 96 -25 219q0 53 6.5 162t6.5 162t-2 80q18 -2 33.5 -18.5t31.5 -18.5q-47 -35 -87 -73t-81 -90t-62.5 -81.5t-69.5 -103.5l-64 -98q-35 4 -70 6q-47 86 -165 221t-157 197q16 0 52 30q-23 -92 -23 -196q0 -49 6 -147.5t6 -151.5q0 -51 -2 -78z" />
<glyph horiz-adv-x="608" d="M115 211q-4 -10 -21 -10q-31 0 -31 16q-18 94 -18 229q0 45 23 418q18 27 47 27h6q96 -104 227 -325.5t189 -295.5q-2 -14 -9 -14q-2 0 -14 7t-25 9q-4 106 -6 294t-4 276q6 39 39 39q18 0 47 -17q-16 -117 -16 -254q0 -78 7 -215t7 -159q-2 -8 -15 -17.5t-24 -9.5 q-12 0 -12 14q-168 272 -449 608q8 0 20.5 6.5t22 12.5t9.5 8v-70q0 -63 -4.5 -190t-4.5 -192q1 -105 9 -195z" />
<glyph horiz-adv-x="710" d="M158 846q23 0 36 -19.5t13 -46.5q-53 -47 -84 -129t-31 -166q0 -98 43 -164.5t127 -66.5q53 0 135 34t155 107.5t73 161.5q0 41 -23 90q-37 131 -244 131q-57 0 -168 -14q-12 -12 -18 -12t-6 10q0 47 72.5 68.5t152.5 21.5q123 0 203 -69.5t80 -209.5q0 -154 -135.5 -260 t-266.5 -106q-115 0 -180 93t-65 224q0 199 131 322z" />
<glyph horiz-adv-x="616" d="M143 209q0 -12 -24.5 -12t-24.5 12q-53 324 -53 440q0 160 56.5 224.5t170.5 64.5q164 0 240 -72.5t76 -181.5q0 -121 -111 -198.5t-211 -77.5q-55 0 -106.5 19t-51.5 58q0 14 13 15q2 0 49 -9.5t76 -9.5q59 0 117.5 15.5t109.5 63.5t51 122q0 80 -69.5 125t-159.5 45 q-35 10 -58 10q-47 0 -76.5 -31.5t-29.5 -95.5q-25 -37 -25 -78t25 -102q0 -229 16 -346z" />
<glyph horiz-adv-x="802" d="M313 852q-16 14 -16 25q0 8 45 17t74 9q133 0 236.5 -105.5t103.5 -252.5q0 -133 -131 -237.5t-273 -104.5q-139 0 -222 115.5t-83 261.5q0 147 101.5 227t246.5 80q70 0 70 -51q0 -25 -23 -25q-14 0 -30 8q-258 0 -297 -196q0 -88 19.5 -163t77.5 -134.5t148 -59.5 q137 0 229.5 89t92.5 216q0 121 -74 164q-39 55 -87 82t-87 31t-121 4zM756 244q6 0 6 -6q0 -8 -10.5 -17.5t-26.5 -9.5q-12 8 -39 22.5t-42 23.5t-30.5 27.5t-21.5 41.5q-27 41 -70 79.5t-78 51.5q-14 14 -14 30.5t9.5 27.5t23.5 11q31 0 83 -54t62 -97q31 -43 148 -131z " />
<glyph horiz-adv-x="788" d="M766 238q14 -14 14 -28.5t-11 -26t-19 -11.5q-55 55 -278.5 175t-315.5 120q-41 0 -45 -31q0 16 -33 17q508 0 508 196q0 78 -77 140.5t-171 62.5q-72 0 -113 -43t-53 -100.5t-12 -141.5q0 -37 16.5 -143.5t16.5 -167.5q0 -10 -11.5 -20.5t-25.5 -10.5q-18 0 -31 13 q-25 307 -25 335q0 180 50.5 263.5t166.5 83.5q135 0 240 -90.5t105 -184.5q0 -80 -91 -127q-61 -53 -156.5 -79.5t-160 -31t-176.5 -4.5l-35 33q23 86 121 86q53 0 127 -24.5t152 -66.5l137 -75q57 -33 120.5 -75.5t65.5 -42.5z" />
<glyph horiz-adv-x="667" d="M637 774q14 -14 14 -24q0 -14 -22 -15q-12 0 -25 6q-111 111 -266 111q-80 0 -153.5 -38t-73.5 -95q0 -14 41 -28.5t100 -28t74 -19.5q10 -4 64 -19.5t93 -30.5t86 -40t74 -57.5t27 -71.5q0 -94 -112 -154.5t-224 -60.5q-72 0 -182.5 29.5t-110.5 83.5q0 47 43 47 q14 0 27 -7q86 -86 225 -86q80 0 182.5 42t102.5 98q0 45 -87.5 85t-207 71.5t-133.5 37.5q-57 0 -103.5 29t-46.5 74q0 82 108.5 144.5t196.5 62.5q176 -1 289 -146z" />
<glyph horiz-adv-x="716" d="M76 784q-47 27 -47 41q0 6 14 6q82 35 281 35h360q25 0 25 -32.5t-25 -32.5q-57 -8 -167.5 -8t-160.5 -9h-280zM356 801q0 27 21 26q43 0 43 -444q0 -10 1 -42t1 -52.5t-2 -45t-9.5 -36.5t-19.5 -12t-23.5 9t-11.5 21v576z" />
<glyph horiz-adv-x="729" d="M109 885q0 14 18 14q14 0 28.5 -9t14.5 -22q0 -8 -8 -14q-49 -139 -49 -297q0 -274 180 -274q168 0 261 114.5t93 266.5q0 115 -45 225l51 -4q20 -100 21.5 -318.5t19.5 -324.5q0 -12 -13 -21.5t-30 -9.5q-35 0 -35 31q0 469 -14 647q2 29 47 29q23 0 23 -11 q18 -129 18 -241q0 -453 -401 -453q-129 0 -189.5 97.5t-60.5 244.5q0 187 70 330z" />
<glyph horiz-adv-x="755" d="M33 858q-8 8 -8 16q0 25 36 25q23 0 33 -16q45 -94 143.5 -283.5t153.5 -308.5q-4 0 -4 4l29 45l25 63l27 66l25 57l27 63l27 56q18 39 31.5 61.5t32 57.5t37.5 65l40 64q0 12 14 12q16 0 35 -15.5t19 -31.5q-250 -463 -324 -641q-12 -16 -57 -16q-23 0 -23 8l-137 286 q-114 238 -182 363z" />
<glyph horiz-adv-x="950" d="M33 821q-4 8 -4 13q0 12 11 22t26 10q18 0 32 -14q23 -92 90.5 -299t94.5 -317q-49 0 -50 32q37 59 70 123t81 166t71 145q12 25 30.5 25t18.5 -25q41 -84 123 -231t123 -229q-35 -2 -70 -35q25 104 93.5 324.5t94.5 338.5q12 6 29 7q20 0 36.5 -10.5t16.5 -28.5 q-37 -102 -69 -205l-71 -230q-38 -127 -60 -194q0 -27 -23 -27q-37 0 -85 84t-109.5 234.5t-77.5 185.5h49q-29 -57 -69 -154.5t-79 -176.5t-90 -152q0 -6 -6 -6q-20 0 -59 39q-98 388 -168 585z" />
<glyph horiz-adv-x="722" d="M41 786q-14 12 -14 26.5t15 27t32 12.5q145 -96 282 -238q164 -127 373 -370q0 -16 -10 -31.5t-20.5 -15.5t-16.5 14q-127 51 -313 311q-189 164 -328 264zM123 211q-16 -16 -30.5 -16t-24 13t-9.5 30q29 57 132.5 156.5t127.5 127.5q41 35 87 80l76 77l85 88l80 85 q16 12 31 12q14 0 25.5 -9t11.5 -21q0 -6 -4 -15q-82 -106 -294 -304t-294 -304z" />
<glyph horiz-adv-x="696" d="M53 838q-8 8 -8 18q0 29 43 29q18 0 33 -13q63 -88 150 -185t159 -159q23 -12 23 -28q0 -12 -15.5 -23.5t-30 -11.5t-20.5 10q-146 105 -334 363zM635 897q0 14 12 14t28.5 -15t16.5 -32q-39 -72 -214 -310.5t-222 -379.5q-14 -14 -30.5 -14t-30 13t-13.5 30 q51 111 127 226.5t176.5 253.5t149.5 214z" />
<glyph horiz-adv-x="710" d="M127 817q-31 0 -31 29q0 23 31 22h494q16 0 31.5 -14t15.5 -27q0 -10 -15 -10q-96 -96 -276 -293.5t-283 -298.5v66q92 -14 199 -15q66 0 197 7.5t196 7.5q14 0 14 -33t-14 -33q-147 -12 -311 -12q-162 0 -295 12q-16 14 -16.5 32.5t16.5 33.5q236 287 524 577 q8 -8 12.5 -20t4.5 -21v-10h-494z" />
</font>
</defs>
</svg>
